<?xml version="1.0" encoding="UTF-8" standalone="no"?>
<!-- Created with Inkscape (http://www.inkscape.org/) -->

<svg
   width="116.91766mm"
   height="49.237534mm"
   viewBox="0 0 116.91766 49.237534"
   version="1.1"
   id="svg5"
   sodipodi:docname="aka.svg"
   inkscape:version="1.1.2 (b8e25be833, 2022-02-05)"
   xmlns:inkscape="http://www.inkscape.org/namespaces/inkscape"
   xmlns:sodipodi="http://sodipodi.sourceforge.net/DTD/sodipodi-0.dtd"
   xmlns="http://www.w3.org/2000/svg"
   xmlns:svg="http://www.w3.org/2000/svg"
   xmlns:rdf="http://www.w3.org/1999/02/22-rdf-syntax-ns#"
   xmlns:cc="http://creativecommons.org/ns#"
   xmlns:dc="http://purl.org/dc/elements/1.1/">
  <title
     id="title852">All-Kemono Airways</title>
  <sodipodi:namedview
     id="namedview7"
     pagecolor="#ffffff"
     bordercolor="#666666"
     borderopacity="1.0"
     inkscape:pageshadow="2"
     inkscape:pageopacity="0.0"
     inkscape:pagecheckerboard="true"
     inkscape:document-units="mm"
     showgrid="false"
     inkscape:zoom="1.2141903"
     inkscape:cx="316.67194"
     inkscape:cy="128.06889"
     inkscape:window-width="2250"
     inkscape:window-height="1430"
     inkscape:window-x="-6"
     inkscape:window-y="-6"
     inkscape:window-maximized="1"
     inkscape:current-layer="layer1"
     fit-margin-top="0"
     fit-margin-left="0"
     fit-margin-right="0"
     fit-margin-bottom="0" />
  <defs
     id="defs2" />
  <g
     inkscape:label="Layer 1"
     inkscape:groupmode="layer"
     id="layer1"
     transform="translate(-47.498963,-105.86828)">
    <path
       id="path10394"
       style="font-style:italic;font-weight:bold;font-size:50.8px;line-height:1.25;font-family:'Tw Cen MT';-inkscape-font-specification:'Tw Cen MT, Bold Italic';letter-spacing:0px;fill:#000033;fill-opacity:1;stroke-width:0.999999"
       d="m 251.44141,416.95312 -66.09375,123.09376 h 26.15625 l 13.21875,-24.75 h 0.0137 l -0.0371,-0.0195 11.56055,-21.54296 h -0.006 l 0.98047,-1.81446 5.32812,-9.92969 0.0254,0.0137 13.25977,-24.55079 9.1875,36.28126 h -21.54493 l -11.57226,21.5625 h 38.46094 l 6.1875,24.75 h 23.8125 l -31.3125,-123.09376 z"
       transform="scale(0.26458333)" />
    <path
       id="rect10982"
       style="fill:#4090ba;fill-opacity:1;stroke-width:0.955924;stroke-linecap:round;stroke-linejoin:round"
       d="m 143.50112,105.86828 h 20.9155 L 150.9925,142.88736 H 130.077 Z"
       sodipodi:nodetypes="ccccc" />
    <path
       id="path11297"
       style="fill:#000033;fill-opacity:1;stroke-width:0.955924;stroke-linecap:round;stroke-linejoin:round"
       d="m 137.15108,105.86828 h 20.9155 l -13.42412,37.01908 h -20.9155 z"
       sodipodi:nodetypes="ccccc" />
    <path
       id="path10396"
       style="font-style:italic;font-weight:bold;font-size:50.8px;line-height:1.25;font-family:'Tw Cen MT';-inkscape-font-specification:'Tw Cen MT, Bold Italic';letter-spacing:0px;fill:#000033;fill-opacity:1;stroke-width:0.999999"
       d="m 295.03516,416.95312 -7.30664,48.70313 8.73828,32.98437 7.69726,29.05665 6.0586,-41.18165 35.0625,53.53126 h 27.46875 l -40.125,-61.21876 61.6875,-61.875 h -32.625 l -48.1875,48.1875 6.84375,-48.1875 z m -9.68946,64.58399 -8.77929,58.50977 h 24.28125 l -0.86328,-3.25782 -9.67579,-36.51758 z"
       transform="scale(0.26458333)" />
    <path
       id="path10398"
       style="font-style:italic;font-weight:bold;font-size:50.8px;line-height:1.25;font-family:'Tw Cen MT';-inkscape-font-specification:'Tw Cen MT, Bold Italic';letter-spacing:0px;fill:#000033;fill-opacity:1;stroke-width:0.999999"
       d="M 233.16797 16.820312 L 182.85742 110.51953 L 197.28516 132.32422 L 206.44922 115.16406 L 218.01953 93.601562 L 217.98047 93.601562 L 224.16992 82.142578 L 224.3125 81.875 L 237.57422 57.320312 L 246.76172 93.601562 L 225.25 93.601562 L 213.67773 115.16406 L 252.10547 115.16406 L 258.29297 139.91406 L 282.10547 139.91406 L 250.79297 16.820312 L 233.16797 16.820312 z M 177.99219 119.58203 L 167.07422 139.91406 L 191.44531 139.91406 L 177.99219 119.58203 z "
       transform="matrix(0.26458333,0,0,0.26458333,47.498963,105.86828)" />
    <g
       aria-label="全獣空輸 · Inspiration of FURRY"
       id="text14020"
       style="font-weight:300;font-size:8.81944px;line-height:1.25;font-family:'Segoe UI';-inkscape-font-specification:'Segoe UI, Light';letter-spacing:-0.500063px;fill:#000033;stroke-width:0.264583">
      <path
         d="m 54.074786,153.19379 h -4.874808 l -1.218702,0.0172 q -0.05168,0 -0.05168,-0.0517 v -0.19379 q 0,-0.0517 0.05168,-0.0517 l 1.218702,0.0172 h 2.213473 v -1.73116 h -0.968933 l -1.227314,0.0172 q -0.05168,0 -0.05168,-0.0517 v -0.19379 q 0,-0.0517 0.05168,-0.0517 l 1.227314,0.0172 h 0.968933 v -1.55029 h -0.882805 l -1.19717,0.0172 q -0.05598,0 -0.05598,-0.0517 v -0.19379 q 0,-0.0517 0.05598,-0.0517 l 1.19717,0.0172 h 2.105813 l 1.201477,-0.0172 q 0.05168,0 0.05168,0.0517 v 0.19379 q 0,0.0517 -0.05168,0.0517 l -1.201477,-0.0172 h -0.951707 v 1.55029 h 1.136881 l 1.227315,-0.0172 q 0.05168,0 0.05168,0.0517 v 0.19379 q 0,0.0517 -0.05168,0.0517 l -1.227315,-0.0172 h -1.136881 v 1.73116 h 2.390034 l 1.218702,-0.0172 q 0.05168,0 0.05168,0.0517 v 0.19379 q 0,0.0517 -0.05168,0.0517 z m -6.575823,-3.89296 q 1.313442,-0.58997 2.402953,-1.5589 0.900031,-0.80099 1.408182,-1.64934 0.133497,-0.22393 0.176561,-0.43064 0.163642,0.0302 0.297139,0.0775 0.09905,0.0387 0.09905,0.0904 0,0.0388 -0.04306,0.0603 -0.04737,0.0172 -0.09043,0.0603 1.550293,2.2996 4.112581,3.23839 -0.107659,0.0775 -0.167948,0.16794 -0.05168,0.0732 -0.08182,0.0732 -0.01723,0 -0.08613,-0.0301 -2.467548,-1.03784 -3.918794,-3.22978 -0.762227,1.17133 -1.795755,2.02399 -0.822516,0.68041 -1.959397,1.26608 -0.0646,0.0301 -0.08613,0.0301 -0.02584,0 -0.09043,-0.0646 -0.07321,-0.0689 -0.176561,-0.12489 z"
         id="path828" />
      <path
         d="m 59.129936,149.93817 h -1.472777 l -1.093817,0.0172 q -0.05168,0 -0.05168,-0.0517 l 0.01723,-0.76222 v -0.86128 l -0.01723,-0.75792 q 0,-0.0517 0.05168,-0.0517 l 1.093817,0.0172 h 1.472777 l 1.093818,-0.0172 q 0.05168,0 0.05168,0.0517 l -0.01723,0.75792 v 0.86128 l 0.01723,0.76222 q 0,0.0517 -0.05168,0.0517 z m 0.874193,-0.22823 v -0.92157 h -1.511535 v 0.92157 z m -3.221163,-0.92157 v 0.92157 h 1.464165 v -0.92157 z m 3.221163,-1.07228 h -1.511535 v 0.84405 h 1.511535 z m -3.221163,0 v 0.84405 h 1.464165 v -0.84405 z m 2.954168,5.91695 q -0.05168,0 -0.05168,-0.0517 v -0.39619 h -2.583821 v 0.44787 q 0,0.056 -0.05168,0.056 h -0.185174 q -0.05598,0 -0.05598,-0.056 l 0.01723,-1.12397 v -0.4091 l -0.01723,-0.59859 q 0,-0.0517 0.05168,-0.0517 l 0.981852,0.0172 h 1.10243 l 0.981851,-0.0172 q 0.05168,0 0.05168,0.0517 l -0.01723,0.52107 v 0.44787 l 0.01723,1.11104 q 0,0.0517 -0.05598,0.0517 z m -2.635497,-1.92064 v 1.22731 h 2.583821 v -1.22731 z m 5.723162,-3.12643 H 62.10133 q 0.23685,1.68379 0.788065,2.95848 0.516764,1.19286 1.240234,1.85174 -0.124885,0.0431 -0.211012,0.15933 -0.04737,0.0646 -0.0646,0.0646 -0.01723,0 -0.07751,-0.0646 -0.757921,-0.85697 -1.235928,-2.13165 -0.409105,-1.0852 -0.529683,-2.25223 -0.167948,1.60197 -0.62873,2.71301 -0.374654,0.90434 -1.029221,1.68379 -0.05168,0.0603 -0.0689,0.0603 -0.01292,0 -0.06029,-0.0603 -0.0646,-0.0732 -0.176561,-0.11197 0.835435,-0.88711 1.24454,-2.09289 0.37896,-1.11535 0.499538,-2.77761 h -0.228237 l -1.016303,0.0215 q -0.05168,0 -0.05168,-0.056 v -0.19378 q 0,-0.0517 0.05168,-0.0517 l 1.016303,0.0172 h 0.245463 q 0.04737,-0.62012 0.04737,-1.63212 0,-0.55552 -0.07321,-0.90003 0.211012,0.0172 0.361734,0.056 0.09043,0.0215 0.09043,0.0689 0,0.009 -0.04306,0.16794 -0.0646,0.2024 -0.0646,0.65027 0,0.77084 -0.04306,1.58905 h 0.740695 l 1.011997,-0.0172 q 0.05598,0 0.05598,0.0517 v 0.19378 q 0,0.056 -0.05598,0.056 z m -3.475238,2.2307 h -2.054137 l -1.192864,0.0172 q -0.05168,0 -0.05168,-0.0517 v -0.18517 q 0,-0.0517 0.05168,-0.0517 l 1.192864,0.0172 h 2.054137 l 1.188557,-0.0172 q 0.05598,0 0.05598,0.0517 v 0.18517 q 0,0.0517 -0.05598,0.0517 z m -0.124885,-3.63888 q 0.34451,-0.49954 0.572747,-0.98616 0.08613,-0.19378 0.116272,-0.37465 0.172255,0.056 0.301446,0.12488 0.05168,0.0258 0.05168,0.0732 0,0.0344 -0.06029,0.0775 -0.05598,0.0301 -0.167948,0.25838 -0.180868,0.3359 -0.503845,0.81821 -0.05168,0.0732 -0.08182,0.0732 -0.01723,0 -0.09474,-0.0301 -0.04306,-0.0172 -0.133498,-0.0345 z m 3.397724,-0.61581 q -0.02153,-0.0215 -0.02153,-0.0301 0,-0.0215 0.09043,-0.0775 0.09043,-0.0646 0.107659,-0.0646 0.01292,0 0.03445,0.0215 0.422024,0.43494 0.792372,1.10243 0.01292,0.0215 0.01292,0.0344 0,0.0215 -0.107659,0.0991 -0.09474,0.0689 -0.111966,0.0689 -0.01292,0 -0.03014,-0.0345 -0.275607,-0.58567 -0.766533,-1.11966 z m -6.218394,-0.48662 q -0.02153,-0.0215 -0.02153,-0.0301 0,-0.0215 0.08182,-0.0775 0.09043,-0.056 0.103353,-0.056 0.01292,0 0.03015,0.0215 0.404798,0.45648 0.650261,0.96032 0.0086,0.0172 0.0086,0.0258 0,0.0215 -0.120579,0.0904 -0.08613,0.0474 -0.111965,0.0474 -0.01723,0 -0.03876,-0.0387 -0.245463,-0.56414 -0.58136,-0.9431 z m 1.421101,-0.0904 q -0.02153,-0.0215 -0.02153,-0.0344 0,-0.0215 0.08182,-0.0689 0.08613,-0.056 0.103353,-0.056 0.01723,0 0.03445,0.0258 0.335897,0.43925 0.546909,1.00769 0.0086,0.0215 0.0086,0.0302 0,0.0258 -0.120578,0.0775 -0.08182,0.0388 -0.103353,0.0388 -0.02153,0 -0.03876,-0.0474 -0.185174,-0.52969 -0.490926,-0.97324 z"
         id="path830" />
      <path
         d="m 70.752297,153.16364 h -4.94371 l -1.210089,0.0172 q -0.05168,0 -0.05168,-0.0517 v -0.19379 q 0,-0.0517 0.05168,-0.0517 l 1.210089,0.0172 h 2.273762 v -1.97662 h -1.192863 l -1.25746,0.0172 q -0.05598,0 -0.05598,-0.0517 v -0.19379 q 0,-0.0517 0.05598,-0.0517 l 1.25746,0.0172 h 2.842202 l 1.257459,-0.0172 q 0.05598,0 0.05598,0.0517 v 0.19379 q 0,0.0517 -0.05598,0.0517 l -1.257459,-0.0172 h -1.38665 v 1.97662 h 2.407259 l 1.210089,-0.0172 q 0.05168,0 0.05168,0.0517 v 0.19379 q 0,0.0517 -0.05168,0.0517 z m -5.632728,-6.00738 v 1.29191 q 0,0.0517 -0.05168,0.0517 h -0.185173 q -0.05598,0 -0.05598,-0.0517 l 0.01722,-0.85697 v -0.24977 l -0.01722,-0.39618 q 0,-0.0517 0.05168,-0.0517 l 1.283298,0.0172 h 1.903414 v -0.37035 q 0,-0.45648 -0.06029,-0.70624 0.176561,0.0129 0.344509,0.0431 0.08613,0.0172 0.08613,0.0646 0,0.0345 -0.05168,0.15934 -0.04737,0.10766 -0.04737,0.43925 v 0.37035 h 2.045524 l 1.283298,-0.0172 q 0.05168,0 0.05168,0.0517 l -0.01722,0.32728 v 0.25408 l 0.01722,0.79668 q 0,0.0517 -0.05598,0.0517 h -0.185173 q -0.05168,0 -0.05168,-0.0517 v -1.16703 z m 3.905875,1.2833 v 0.52107 q 0,0.35743 0.107659,0.42202 0.163642,0.10766 0.848354,0.10766 0.671793,0 0.844048,-0.15072 0.172255,-0.15072 0.185174,-0.82252 0.07752,0.0775 0.159336,0.1335 0.09905,0.0517 0.09905,0.10335 0,0.009 -0.0043,0.056 -0.04306,0.54691 -0.271302,0.74931 -0.249769,0.2024 -1.016302,0.2024 -0.813904,0 -1.020609,-0.15933 -0.129191,-0.0991 -0.163642,-0.25408 -0.03015,-0.12058 -0.03015,-0.37896 v -0.52107 q 0,-0.62012 -0.06029,-0.86558 0.163642,0.0129 0.335897,0.0431 0.08613,0.0172 0.08613,0.0646 0,0.0345 -0.05168,0.15933 -0.04737,0.10766 -0.04737,0.58998 z m -4.185789,1.60197 q 1.037834,-0.29284 1.584743,-0.79668 0.456475,-0.41772 0.680406,-1.07229 0.116272,-0.33159 0.116272,-0.58136 0.163642,0.0474 0.297139,0.11627 0.08182,0.0388 0.08182,0.0861 0,0.009 -0.08613,0.1335 -0.0646,0.0775 -0.159336,0.37035 -0.258382,0.72777 -0.800984,1.19286 -0.512458,0.44356 -1.360812,0.73639 -0.06029,0.0172 -0.07752,0.0172 -0.03014,0 -0.09905,-0.0689 -0.09905,-0.099 -0.176561,-0.13349 z"
         id="path832" />
      <path
         d="m 74.773919,147.13473 h -0.378961 v 0.8828 h 0.254076 l 0.822516,-0.0172 q 0.05168,0 0.05168,0.0517 l -0.01722,0.83544 v 1.11965 l 0.01722,0.83975 q 0,0.0517 -0.05168,0.0517 l -0.822516,-0.0172 h -0.254076 v 0.90864 h 0.361735 l 0.968933,-0.0172 q 0.05168,0 0.05168,0.0517 v 0.17656 q 0,0.056 -0.05168,0.056 l -0.968933,-0.0172 h -0.361735 v 0.0172 l 0.01723,1.56751 q 0,0.056 -0.05168,0.056 h -0.193786 q -0.05168,0 -0.05168,-0.056 l 0.01723,-1.5589 v -0.0258 h -0.503845 l -0.968933,0.0172 q -0.05168,0 -0.05168,-0.056 v -0.17656 q 0,-0.0517 0.05168,-0.0517 l 0.968933,0.0172 h 0.503845 v -0.90864 h -0.245463 l -0.822516,0.0172 q -0.05168,0 -0.05168,-0.0517 l 0.01723,-0.83975 v -1.11965 l -0.01723,-0.83544 q 0,-0.0517 0.05168,-0.0517 l 0.822516,0.0172 h 0.245463 v -0.8828 h -0.452169 l -0.96032,0.0172 q -0.05168,0 -0.05168,-0.0517 v -0.17656 q 0,-0.056 0.05168,-0.056 l 0.96032,0.0215 h 0.452169 q 0,-0.80099 -0.06029,-1.13258 0.211012,0.0129 0.33159,0.0474 0.08182,0.0129 0.08182,0.0603 0,0.004 -0.03445,0.14211 -0.05598,0.19379 -0.05598,0.81821 v 0.0646 h 0.378961 l 0.960319,-0.0215 q 0.05598,0 0.05598,0.056 v 0.17656 q 0,0.0517 -0.05598,0.0517 z m 0.478006,3.50969 v -1.11535 h -0.856967 v 1.11535 z m -1.96801,-1.11535 v 1.11535 h 0.848355 v -1.11535 z m 1.96801,-1.27469 h -0.856967 v 1.03784 h 0.856967 z m -1.96801,0 v 1.03784 h 0.848355 v -1.03784 z m 4.65949,2.20486 v 1.53307 l 0.0086,0.99046 q 0,0.34021 -0.176561,0.49093 -0.146416,0.12489 -0.633036,0.12489 -0.08613,0 -0.103352,-0.0172 -0.01292,-0.0129 -0.03876,-0.0904 -0.05168,-0.12489 -0.124884,-0.2024 0.275607,0.0258 0.478006,0.0258 0.2024,0 0.271302,-0.0947 0.05598,-0.0818 0.05598,-0.2756 v -0.97755 h -1.274684 v 0.61581 l 0.01723,1.05076 q 0,0.0517 -0.05168,0.0517 h -0.185174 q -0.05168,0 -0.05168,-0.0517 l 0.01722,-1.03353 v -2.17902 l -0.01722,-1.04645 q 0,-0.0517 0.05168,-0.0517 l 0.62873,0.0172 h 0.465087 l 0.62873,-0.0172 q 0.05168,0 0.05168,0.0517 z m -1.537373,0.30576 v 0.95601 h 1.274684 V 150.765 Z m 0,-1.17995 v 0.93448 h 1.274684 v -0.93448 z m -0.792372,-1.13688 q 1.446939,-0.89572 2.222086,-2.32113 0.129191,-0.21963 0.176561,-0.43925 0.129191,0.0301 0.28422,0.0861 0.107659,0.0387 0.107659,0.0904 0,0.0431 -0.05168,0.0689 -0.05598,0.0258 -0.07321,0.0431 0.641649,0.89141 1.21009,1.39095 0.581359,0.51677 1.425407,0.9474 -0.116272,0.0603 -0.185174,0.15073 -0.05598,0.0689 -0.07751,0.0689 -0.02153,0 -0.08182,-0.0344 -0.839742,-0.50385 -1.434021,-1.09813 -0.508151,-0.50815 -0.990464,-1.24023 -0.869886,1.49 -2.222085,2.44602 -0.05598,0.0345 -0.07321,0.0345 -0.02153,0 -0.08613,-0.0732 -0.09043,-0.0861 -0.150723,-0.12058 z m 4.594894,1.67518 v 1.68379 l 0.0086,1.14549 q 0,0.24977 -0.05598,0.36604 -0.03015,0.0646 -0.120578,0.14642 -0.146417,0.12919 -0.58136,0.12919 -0.09043,0 -0.219625,-0.004 -0.08182,0 -0.09905,-0.0172 -0.01723,-0.0129 -0.04306,-0.0904 -0.03445,-0.11196 -0.120578,-0.21101 0.322977,0.0344 0.624423,0.0344 0.215318,0 0.275608,-0.0904 0.06029,-0.0818 0.06029,-0.31437 v -2.76899 q 0,-0.71486 -0.06029,-0.96032 0.124884,0.009 0.340203,0.0431 0.09043,0.0129 0.09043,0.0603 0,0.0388 -0.05598,0.15934 -0.04306,0.11196 -0.04306,0.68902 z m -1.416795,1.17994 v -0.95171 q 0,-0.77514 -0.06029,-1.01199 0.163642,0.009 0.322977,0.0431 0.0689,0.0129 0.0689,0.0603 0,0.009 -0.04306,0.11627 -0.03445,0.0947 -0.03445,0.77515 v 0.96893 l 0.01722,0.86558 q 0,0.0517 -0.05168,0.0517 H 78.82621 q -0.05168,0 -0.05168,-0.0517 z m -0.185174,-2.91972 h -0.779452 l -0.81821,0.0172 q -0.05168,0 -0.05168,-0.0517 v -0.18517 q 0,-0.0517 0.05168,-0.0517 l 0.81821,0.0172 h 0.779452 l 0.81821,-0.0172 q 0.05168,0 0.05168,0.0517 v 0.18517 q 0,0.0517 -0.05168,0.0517 z"
         id="path834" />
      <path
         d="m 83.407137,150.38604 q -0.146416,0 -0.245462,-0.10336 -0.09905,-0.10335 -0.09905,-0.24977 0,-0.14641 0.09905,-0.24115 0.09905,-0.0991 0.245462,-0.0991 0.146417,0 0.24977,0.0991 0.103353,0.0947 0.103353,0.24115 0,0.14642 -0.103353,0.24977 -0.103353,0.10336 -0.24977,0.10336 z"
         id="path836" />
      <path
         d="m 86.597105,153.07751 v -6.17533 h 0.42633 v 6.17533 z"
         id="path838" />
      <path
         d="m 91.019218,153.07751 v -2.56659 q 0,-1.58905 -1.145493,-1.58905 -0.637343,0 -1.046448,0.46939 -0.409105,0.46509 -0.409105,1.15411 v 2.53214 h -0.396185 v -4.40972 h 0.396185 v 0.80099 h 0.01723 q 0.482313,-0.90864 1.507228,-0.90864 0.714857,0 1.093818,0.478 0.37896,0.4737 0.37896,1.35651 v 2.68286 z"
         id="path840" />
      <path
         d="m 92.013468,152.88373 v -0.47801 q 0.223931,0.19379 0.542602,0.30575 0.318672,0.11197 0.551215,0.11197 1.037835,0 1.037835,-0.84836 0,-0.29283 -0.228238,-0.49953 -0.228237,-0.20671 -0.740695,-0.42633 -0.633036,-0.27561 -0.891418,-0.56844 -0.254075,-0.29714 -0.254075,-0.71917 0,-0.53829 0.409105,-0.86988 0.413411,-0.33159 1.016302,-0.33159 0.568441,0 0.973239,0.23254 v 0.44786 q -0.490926,-0.31867 -1.016303,-0.31867 -0.434943,0 -0.701937,0.22824 -0.266995,0.22393 -0.266995,0.58566 0,0.31437 0.167948,0.51246 0.167949,0.19379 0.740695,0.44786 0.689019,0.31006 0.947401,0.57706 0.258382,0.26269 0.258382,0.70193 0,0.52538 -0.396186,0.86989 -0.391879,0.3402 -1.085204,0.3402 -0.637342,0 -1.063673,-0.30144 z"
         id="path842" />
      <path
         d="m 95.578613,152.29376 h -0.01723 v 2.81205 h -0.396186 v -6.43802 h 0.396186 v 0.90865 h 0.01723 q 0.23685,-0.48662 0.6761,-0.74931 0.443556,-0.26699 0.973239,-0.26699 0.839741,0 1.309135,0.58136 0.473701,0.57705 0.473701,1.57182 0,1.10674 -0.542603,1.79145 -0.538295,0.6804 -1.425407,0.6804 -0.990464,0 -1.464165,-0.89141 z m -0.01723,-1.64073 v 0.55552 q 0,0.66318 0.417717,1.14119 0.417718,0.4737 1.098124,0.4737 0.6761,0 1.098124,-0.57705 0.422023,-0.58136 0.422023,-1.52446 0,-0.82682 -0.387573,-1.31344 -0.387573,-0.48662 -1.033528,-0.48662 -0.770839,0 -1.192863,0.51676 -0.422024,0.51677 -0.422024,1.2144 z"
         id="path844" />
      <path
         d="m 99.798331,147.55675 q -0.129191,0 -0.228238,-0.0947 -0.09905,-0.0947 -0.09905,-0.24115 0,-0.14211 0.09905,-0.22824 0.103353,-0.0904 0.228238,-0.0904 0.133497,0 0.232539,0.0861 0.10336,0.0861 0.10336,0.23255 0,0.1378 -0.0991,0.23685 -0.09905,0.099 -0.236849,0.099 z m -0.193787,5.52076 v -4.40972 h 0.396186 v 4.40972 z"
         id="path846" />
      <path
         d="m 102.99313,149.08121 q -0.19809,-0.14211 -0.46509,-0.14211 -0.52107,0 -0.87419,0.53829 -0.35312,0.5383 -0.35312,1.52876 v 2.07136 h -0.38758 v -4.40972 h 0.38758 v 0.97755 h 0.0172 q 0.15072,-0.50384 0.47801,-0.78376 0.32728,-0.27991 0.75792,-0.27991 0.24546,0 0.43925,0.0775 z"
         id="path848" />
      <path
         d="m 105.95969,153.07751 v -0.8828 h -0.0172 q -0.21102,0.45217 -0.61581,0.72347 -0.4005,0.26699 -0.89142,0.26699 -0.62873,0 -0.99477,-0.35312 -0.36604,-0.35312 -0.36604,-0.89142 0,-1.1541 1.52876,-1.39526 l 1.3565,-0.2024 q 0,-1.4211 -1.06798,-1.4211 -0.72777,0 -1.41679,0.58567 v -0.47801 q 0.24546,-0.19379 0.66318,-0.33159 0.42202,-0.1378 0.79237,-0.1378 0.68041,0 1.05075,0.42202 0.37466,0.42202 0.37466,1.22731 v 2.86804 z m -1.21439,-2.19624 q -0.69333,0.099 -0.97324,0.32297 -0.27992,0.21963 -0.27992,0.71917 0,0.39188 0.25838,0.64595 0.26269,0.25408 0.72778,0.25408 0.63734,0 1.05937,-0.4694 0.42202,-0.4737 0.42202,-1.2187 v -0.43063 z"
         id="path850" />
      <path
         d="m 108.92626,153.01723 q -0.31006,0.14641 -0.58136,0.14641 -0.97755,0 -0.97755,-1.17133 v -2.96278 h -0.79237 v -0.36174 h 0.79237 v -1.14549 q 0.0947,-0.0344 0.19809,-0.0689 0.10336,-0.0301 0.1981,-0.0646 v 1.27899 h 1.16272 v 0.36174 h -1.16272 v 2.9111 q 0,0.45648 0.14211,0.66318 0.14641,0.2024 0.49092,0.2024 0.24547,0 0.52969,-0.15933 z"
         id="path852" />
      <path
         d="m 109.49417,147.55675 q -0.12919,0 -0.22824,-0.0947 -0.099,-0.0947 -0.099,-0.24115 0,-0.14211 0.099,-0.22824 0.10336,-0.0904 0.22824,-0.0904 0.1335,0 0.23254,0.0861 0.10336,0.0861 0.10336,0.23255 0,0.1378 -0.0991,0.23685 -0.0991,0.099 -0.23685,0.099 z m -0.19379,5.52076 v -4.40972 h 0.39619 v 4.40972 z"
         id="path854" />
      <path
         d="m 112.37891,153.18517 q -0.96462,0 -1.52876,-0.63303 -0.55983,-0.63734 -0.55983,-1.65365 0,-1.09812 0.58567,-1.71824 0.58997,-0.62011 1.55029,-0.62011 0.9431,0 1.49001,0.61581 0.5469,0.61581 0.5469,1.70532 0,1.02922 -0.55982,1.66656 -0.55552,0.63734 -1.52446,0.63734 z m 0.0301,-4.2633 q -0.77945,0 -1.24454,0.52538 -0.46078,0.52537 -0.46078,1.45986 0,0.86558 0.45216,1.39095 0.45217,0.52538 1.23593,0.52538 0.79668,0 1.22732,-0.51677 0.43063,-0.51676 0.43063,-1.43402 0,-0.94309 -0.43063,-1.44693 -0.42633,-0.50385 -1.21009,-0.50385 z"
         id="path856" />
      <path
         d="m 118.05418,153.07751 v -2.56659 q 0,-1.58905 -1.1455,-1.58905 -0.63734,0 -1.04644,0.46939 -0.40911,0.46509 -0.40911,1.15411 v 2.53214 h -0.39619 v -4.40972 h 0.39619 v 0.80099 h 0.0172 q 0.48231,-0.90864 1.50722,-0.90864 0.71486,0 1.09382,0.478 0.37896,0.4737 0.37896,1.35651 v 2.68286 z"
         id="path858" />
      <path
         d="m 122.96239,153.18517 q -0.96463,0 -1.52876,-0.63303 -0.55983,-0.63734 -0.55983,-1.65365 0,-1.09812 0.58567,-1.71824 0.58997,-0.62011 1.55029,-0.62011 0.94309,0 1.49,0.61581 0.54691,0.61581 0.54691,1.70532 0,1.02922 -0.55983,1.66656 -0.55552,0.63734 -1.52445,0.63734 z m 0.0301,-4.2633 q -0.77945,0 -1.24454,0.52538 -0.46078,0.52537 -0.46078,1.45986 0,0.86558 0.45217,1.39095 0.45217,0.52538 1.23593,0.52538 0.79668,0 1.22731,-0.51677 0.43064,-0.51676 0.43064,-1.43402 0,-0.94309 -0.43064,-1.44693 -0.42633,-0.50385 -1.21009,-0.50385 z"
         id="path860" />
      <path
         d="m 127.33283,146.96678 q -0.15933,-0.12488 -0.48231,-0.12488 -0.81391,0 -0.81391,1.09381 v 0.73208 h 1.16703 v 0.36174 h -1.16703 v 4.04798 h -0.39618 v -4.04798 h -0.79237 v -0.36174 h 0.79237 v -0.76653 q 0,-0.69763 0.34881,-1.05936 0.35313,-0.36174 0.8785,-0.36174 0.27992,0 0.46509,0.0818 z"
         id="path862" />
      <path
         d="m 129.76487,147.29406 v 2.51923 h 2.28238 v 0.38757 h -2.28238 v 2.87665 h -0.42633 v -6.17533 h 2.88527 v 0.39188 z"
         id="path864" />
      <path
         d="m 137.14547,150.60997 q 0,2.5752 -2.19625,2.5752 -2.08859,0 -2.08859,-2.48046 v -3.80253 h 0.42203 v 3.74224 q 0,2.14887 1.74838,2.14887 1.6924,0 1.6924,-2.08858 v -3.80253 h 0.42203 z"
         id="path866" />
      <path
         d="m 141.31351,153.07751 -0.82252,-1.80867 q -0.25408,-0.55983 -0.50815,-0.74931 -0.25408,-0.19378 -0.63734,-0.19378 h -0.76654 v 2.75176 h -0.42633 v -6.17533 h 1.71394 q 0.81821,0 1.28329,0.44356 0.4694,0.43925 0.4694,1.16272 0,0.66749 -0.38327,1.11535 -0.38327,0.44786 -1.07228,0.57705 v 0.0172 q 0.36604,0.14641 0.71485,0.89141 l 0.91726,1.96801 z m -2.73455,-5.78345 v 2.64411 h 1.06367 q 0.70625,0 1.11966,-0.37034 0.41772,-0.37035 0.41772,-1.01631 0,-0.58997 -0.37466,-0.92156 -0.37465,-0.3359 -1.07228,-0.3359 z"
         id="path868" />
      <path
         d="m 145.70978,153.07751 -0.82251,-1.80867 q -0.25408,-0.55983 -0.50815,-0.74931 -0.25408,-0.19378 -0.63735,-0.19378 h -0.76653 v 2.75176 h -0.42633 v -6.17533 h 1.71393 q 0.81821,0 1.2833,0.44356 0.4694,0.43925 0.4694,1.16272 0,0.66749 -0.38327,1.11535 -0.38327,0.44786 -1.07229,0.57705 v 0.0172 q 0.36604,0.14641 0.71486,0.89141 l 0.91726,1.96801 z m -2.73454,-5.78345 v 2.64411 h 1.06367 q 0.70625,0 1.11966,-0.37034 0.41772,-0.37035 0.41772,-1.01631 0,-0.58997 -0.37466,-0.92156 -0.37465,-0.3359 -1.07228,-0.3359 z"
         id="path870" />
      <path
         d="m 148.72802,150.73054 v 2.34697 h -0.42203 v -2.33835 l -1.89049,-3.83698 h 0.478 l 1.43833,2.9757 q 0.0775,0.15503 0.19379,0.45648 h 0.0172 q 0.0603,-0.15934 0.21101,-0.44786 l 1.50723,-2.98432 h 0.46078 z"
         id="path872" />
    </g>
  </g>
  <metadata
     id="metadata850">
    <rdf:RDF>
      <cc:Work
         rdf:about="">
        <dc:title>All-Kemono Airways</dc:title>
        <cc:license
           rdf:resource="http://creativecommons.org/licenses/by/4.0/" />
        <dc:date>2022-07-25</dc:date>
        <dc:creator>
          <cc:Agent>
            <dc:title>https://airlinefurries.com/#me</dc:title>
          </cc:Agent>
        </dc:creator>
        <dc:identifier>https://airlinefurries.com/about/logos/aka.svg</dc:identifier>
      </cc:Work>
      <cc:License
         rdf:about="http://creativecommons.org/licenses/by/4.0/">
        <cc:permits
           rdf:resource="http://creativecommons.org/ns#Reproduction" />
        <cc:permits
           rdf:resource="http://creativecommons.org/ns#Distribution" />
        <cc:requires
           rdf:resource="http://creativecommons.org/ns#Notice" />
        <cc:requires
           rdf:resource="http://creativecommons.org/ns#Attribution" />
        <cc:permits
           rdf:resource="http://creativecommons.org/ns#DerivativeWorks" />
      </cc:License>
    </rdf:RDF>
  </metadata>
</svg>
