<?xml version="1.0" encoding="UTF-8" standalone="no"?>
<!-- Created with Inkscape (http://www.inkscape.org/) -->

<svg
   width="711.81665"
   height="250.87686"
   viewBox="0 0 188.33482 66.377838"
   version="1.1"
   id="svg5"
   sodipodi:docname="avian.svg"
   inkscape:version="1.1.2 (b8e25be833, 2022-02-05)"
   inkscape:export-filename="C:\Users\donge\Downloads\Avian SA.png"
   inkscape:export-xdpi="67.433098"
   inkscape:export-ydpi="67.433098"
   xmlns:inkscape="http://www.inkscape.org/namespaces/inkscape"
   xmlns:sodipodi="http://sodipodi.sourceforge.net/DTD/sodipodi-0.dtd"
   xmlns="http://www.w3.org/2000/svg"
   xmlns:svg="http://www.w3.org/2000/svg"
   xmlns:rdf="http://www.w3.org/1999/02/22-rdf-syntax-ns#"
   xmlns:cc="http://creativecommons.org/ns#"
   xmlns:dc="http://purl.org/dc/elements/1.1/">
  <title
     id="title830">Avian</title>
  <sodipodi:namedview
     id="namedview7"
     pagecolor="#ffffff"
     bordercolor="#666666"
     borderopacity="1.0"
     inkscape:pageshadow="2"
     inkscape:pageopacity="0.0"
     inkscape:pagecheckerboard="true"
     inkscape:document-units="mm"
     showgrid="false"
     fit-margin-top="0"
     fit-margin-left="0"
     fit-margin-right="0"
     fit-margin-bottom="0"
     inkscape:zoom="1.8091391"
     inkscape:cx="338.00607"
     inkscape:cy="58.31503"
     inkscape:window-width="2250"
     inkscape:window-height="1430"
     inkscape:window-x="-6"
     inkscape:window-y="-6"
     inkscape:window-maximized="1"
     inkscape:current-layer="layer1"
     units="px" />
  <defs
     id="defs2" />
  <g
     inkscape:label="Layer 1"
     inkscape:groupmode="layer"
     id="layer1"
     transform="translate(91.088155,-99.550223)">
    <path
       style="fill:#cc0000;fill-opacity:1;stroke:none;stroke-width:0.264583px;stroke-linecap:butt;stroke-linejoin:miter;stroke-opacity:1"
       d="m 63.306894,99.550243 c 0,0 -73.91289,61.735217 33.939776,62.108107 0,0 -13.984462,4.33355 -21.20001,4.269 -13.891115,-0.12428 -23.280894,-10.0853 -32.613265,-10.95148 l 27.350059,0.0817 c 0,0 -2.462155,-4.52824 -25.982381,-4.85215 0,0 -8.038034,-12.03241 18.505821,-50.655197 z"
       id="path857"
       sodipodi:nodetypes="ccsccccc" />
    <g
       aria-label="Avian"
       id="text6958"
       style="font-weight:600;font-size:52.9167px;line-height:1.25;font-family:'Segoe UI';-inkscape-font-specification:'Segoe UI, Semi-Bold';letter-spacing:-2.11667px;fill:#cc0000;stroke-width:0.264583">
      <path
         d="m -56.516601,155.00189 h -6.743778 l -3.333132,-9.43095 h -14.572763 l -3.203941,9.43095 h -6.71794 l 13.875131,-37.05202 h 6.924646 z m -11.704719,-14.44357 -5.141808,-14.77947 q -0.232544,-0.72347 -0.490926,-2.32544 h -0.103353 q -0.232544,1.47278 -0.516765,2.32544 l -5.090132,14.77947 z"
         id="path824" />
      <path
         d="m -32.562494,128.54354 -10.23194,26.45835 h -6.485396 l -9.741013,-26.45835 h 6.511234 l 5.865279,18.50018 q 0.671794,2.04122 0.826823,3.56567 h 0.07751 q 0.232544,-1.91203 0.72347,-3.46232 l 6.149499,-18.60353 z"
         id="path826" />
      <path
         d="m -27.59949,122.98832 q -1.472779,0 -2.532146,-0.95601 -1.033529,-0.95602 -1.033529,-2.4288 0,-1.47277 1.033529,-2.45463 1.059367,-0.98185 2.532146,-0.98185 1.524456,0 2.583824,0.98185 1.059367,0.98186 1.059367,2.45463 0,1.39527 -1.059367,2.40296 -1.059368,0.98185 -2.583824,0.98185 z m 2.971397,32.01357 h -5.99447 v -26.45835 h 5.99447 z"
         id="path828" />
      <path
         d="m 1.3930708,155.00189 h -5.8136021 v -4.13411 h -0.103353 q -2.7388525,4.75423 -8.0356897,4.75423 -3.901573,0 -6.123661,-2.11874 -2.19625,-2.11873 -2.19625,-5.60689 0,-7.49309 8.629969,-8.73332 l 7.8548229,-1.11105 q 0,-5.65857 -5.3743522,-5.65857 -4.7283967,0 -8.5266167,3.25562 v -5.24516 q 4.185794,-2.48047 9.6634989,-2.48047 10.0252339,0 10.0252339,9.8702 z m -5.7877639,-12.99663 -5.5552198,0.77515 q -2.5838231,0.3359 -3.9015731,1.26607 -1.291911,0.90434 -1.291911,3.20394 0,1.67949 1.188558,2.76469 1.214397,1.05937 3.229779,1.05937 2.7388527,0 4.5216907,-1.91203 1.8086762,-1.93787 1.8086762,-4.85759 z"
         id="path830" />
      <path
         d="m 30.15309,155.00189 h -5.99447 v -14.90866 q 0,-7.41557 -5.245161,-7.41557 -2.738852,0 -4.52169,2.06706 -1.782838,2.04122 -1.782838,5.16764 v 15.08953 H 6.5886228 v -26.45835 h 6.0203082 v 4.3925 h 0.103353 q 2.971396,-5.01261 8.578293,-5.01261 4.314984,0 6.588749,2.81636 2.273764,2.79053 2.273764,8.08737 z"
         id="path832" />
    </g>
  </g>
  <metadata
     id="metadata828">
    <rdf:RDF>
      <cc:License
         rdf:about="http://creativecommons.org/licenses/by/4.0/">
        <cc:permits
           rdf:resource="http://creativecommons.org/ns#Reproduction" />
        <cc:permits
           rdf:resource="http://creativecommons.org/ns#Distribution" />
        <cc:requires
           rdf:resource="http://creativecommons.org/ns#Notice" />
        <cc:requires
           rdf:resource="http://creativecommons.org/ns#Attribution" />
        <cc:permits
           rdf:resource="http://creativecommons.org/ns#DerivativeWorks" />
      </cc:License>
      <cc:Work
         rdf:about="">
        <cc:license
           rdf:resource="http://creativecommons.org/licenses/by/4.0/" />
        <dc:title>Avian</dc:title>
        <dc:date>2022-07-25</dc:date>
        <dc:creator>
          <cc:Agent>
            <dc:title>https://airlinefurries.com/#me</dc:title>
          </cc:Agent>
        </dc:creator>
        <dc:identifier>https://airlinefurries.com/about/icons/avian.svg</dc:identifier>
      </cc:Work>
    </rdf:RDF>
  </metadata>
</svg>
