<?xml version="1.0" encoding="UTF-8" standalone="no"?>
<!-- Created with Inkscape (http://www.inkscape.org/) -->

<svg
   width="47.004807mm"
   height="28.188902mm"
   viewBox="0 0 47.004807 28.188902"
   version="1.1"
   id="svg5"
   inkscape:version="1.1.2 (b8e25be833, 2022-02-05)"
   sodipodi:docname="dook.svg"
   xmlns:inkscape="http://www.inkscape.org/namespaces/inkscape"
   xmlns:sodipodi="http://sodipodi.sourceforge.net/DTD/sodipodi-0.dtd"
   xmlns="http://www.w3.org/2000/svg"
   xmlns:svg="http://www.w3.org/2000/svg"
   xmlns:rdf="http://www.w3.org/1999/02/22-rdf-syntax-ns#"
   xmlns:cc="http://creativecommons.org/ns#"
   xmlns:dc="http://purl.org/dc/elements/1.1/">
  <title
     id="title832">Dook &amp; OwO</title>
  <sodipodi:namedview
     id="namedview7"
     pagecolor="#ffffff"
     bordercolor="#666666"
     borderopacity="1.0"
     inkscape:pageshadow="2"
     inkscape:pageopacity="0.0"
     inkscape:pagecheckerboard="0"
     inkscape:document-units="mm"
     showgrid="false"
     fit-margin-top="0"
     fit-margin-left="0"
     fit-margin-right="0"
     fit-margin-bottom="0"
     inkscape:zoom="3.1034859"
     inkscape:cx="77.815725"
     inkscape:cy="7.2499122"
     inkscape:window-width="1794"
     inkscape:window-height="1422"
     inkscape:window-x="448"
     inkscape:window-y="0"
     inkscape:window-maximized="0"
     inkscape:current-layer="layer1" />
  <defs
     id="defs2" />
  <g
     inkscape:label="Layer 1"
     inkscape:groupmode="layer"
     id="layer1"
     transform="translate(-57.189828,-66.647045)">
    <g
       aria-label="DO OK"
       id="text1442"
       style="font-size:10.5833px;line-height:1.25;font-family:Rockwell;-inkscape-font-specification:'Rockwell, Normal';word-spacing:13.2292px;fill:#3eb489;stroke-width:0.264583">
      <path
         d="m 58.166509,73.570193 v -5.389834 h -0.976681 v -0.899167 h 2.780183 q 1.152381,0 1.772496,0.118855 0.625283,0.118855 1.209225,0.537433 0.583941,0.418578 0.930172,1.152381 0.351399,0.728635 0.351399,1.663976 0,1.064531 -0.335896,1.85001 -0.335895,0.785479 -0.883664,1.173051 -0.542601,0.387572 -1.297074,0.542601 -0.749306,0.149861 -1.912022,0.149861 h -2.614819 v -0.899167 z m 1.085202,0 h 0.568439 q 0.950843,0 1.503779,-0.118855 0.558104,-0.118856 0.940508,-0.403075 0.382405,-0.289387 0.620116,-0.868161 0.23771,-0.578775 0.23771,-1.364254 0,-0.93534 -0.392739,-1.586461 -0.387572,-0.651121 -0.997352,-0.847491 -0.604613,-0.201537 -1.865514,-0.201537 h -0.614947 z"
         id="path853" />
      <path
         d="m 65.297834,70.841686 q 0,-1.565791 1.02319,-2.619986 1.02319,-1.054196 2.666496,-1.054196 1.658808,0 2.702668,1.054196 1.043861,1.054195 1.043861,2.640657 0,1.617467 -1.064531,2.671663 -1.059364,1.049028 -2.697501,1.049028 -1.043861,0 -1.922357,-0.496092 -0.873329,-0.50126 -1.312578,-1.390092 -0.439248,-0.893999 -0.439248,-1.855178 z m 1.183387,0.0052 q 0,1.183387 0.692462,1.984369 0.692462,0.800982 1.819004,0.800982 1.116208,0 1.834508,-0.816485 0.7183,-0.821653 0.7183,-1.958531 0,-1.147213 -0.733803,-1.93786 -0.728635,-0.795814 -1.834508,-0.795814 -1.100704,0 -1.798334,0.780311 -0.697629,0.780312 -0.697629,1.943028 z"
         id="path855" />
      <path
         d="m 89.658102,70.841686 q 0,-1.565791 1.02319,-2.619986 1.02319,-1.054196 2.666496,-1.054196 1.658808,0 2.702669,1.054196 1.04386,1.054195 1.04386,2.640657 0,1.617467 -1.064531,2.671663 -1.059363,1.049028 -2.697501,1.049028 -1.043861,0 -1.922357,-0.496092 -0.873329,-0.50126 -1.312577,-1.390092 -0.439249,-0.893999 -0.439249,-1.855178 z m 1.183387,0.0052 q 0,1.183387 0.692462,1.984369 0.692462,0.800982 1.819004,0.800982 1.116208,0 1.834508,-0.816485 0.7183,-0.821653 0.7183,-1.958531 0,-1.147213 -0.733803,-1.93786 -0.728635,-0.795814 -1.834507,-0.795814 -1.100705,0 -1.798335,0.780311 -0.697629,0.780312 -0.697629,1.943028 z"
         id="path857" />
      <path
         d="m 98.706615,73.570193 v -5.389834 h -0.899168 v -0.899167 h 2.909373 v 0.899167 h -0.925004 v 5.389834 h 0.826824 v 0.899167 h -2.811193 v -0.899167 z m 1.121375,-2.893871 2.30476,-2.495963 h -0.82165 v -0.899167 h 2.81636 v 0.899167 h -0.76481 l -2.21175,2.495963 2.27376,2.893871 h 0.76997 v 0.899167 h -2.9197 v -0.899167 h 0.77514 z"
         id="path859" />
    </g>
    <g
       aria-label="&amp;"
       id="text6904"
       style="font-size:52.9167px;line-height:1.25;font-family:'Kunstler Script';-inkscape-font-specification:'Kunstler Script, Normal';fill:#3eb489;stroke-width:0.264583">
      <path
         d="m 78.832061,78.222572 q 0.335897,2.118735 0.335897,3.643191 0,5.736088 -4.470014,9.275925 -4.470014,3.539838 -10.025234,3.539838 -2.454632,0 -4.082441,-0.956015 -1.653647,-0.956014 -1.653647,-2.377117 0,-1.782838 1.731162,-3.048911 1.705323,-1.266074 4.056602,-1.266074 1.369427,0 2.842206,0.542603 l -0.07752,0.15503 q -1.550294,-0.465088 -2.816367,-0.465088 -2.19625,0 -3.824059,1.240235 -1.627808,1.266073 -1.627808,2.76469 0,1.214397 1.446941,2.092897 1.446941,0.8785 3.694867,0.8785 4.883426,0 9.585984,-4.728396 4.728396,-4.702558 4.728396,-9.50847 0,-0.568441 -0.103353,-1.446941 -2.738852,2.532147 -4.418337,3.384809 -1.653647,0.826823 -3.152264,0.826823 -1.731162,0 -2.532147,-0.930176 -0.800985,-0.930176 -0.800985,-1.963706 0,-1.834514 1.576132,-3.436485 1.60197,-1.60197 3.539838,-2.092896 l 4.96094,-1.214397 q 0.02584,-2.764691 1.912029,-4.625044 1.912029,-1.860352 3.875735,-1.860352 0.8785,0 1.369426,0.43925 0.516765,0.43925 0.516765,1.16272 0,1.369426 -1.472779,2.687176 -1.446941,1.31775 -5.839441,2.428794 0.07751,1.860353 0.620118,4.004926 3.617352,-3.488161 5.296837,-4.521691 1.705324,-1.033529 2.997235,-1.033529 1.033529,0 1.653647,0.516765 0.645956,0.516764 0.645956,1.136882 0,0.43925 -0.361735,0.800985 -0.361736,0.335897 -0.775147,0.335897 -0.387574,0 -0.671794,-0.284221 -0.284221,-0.28422 -0.284221,-0.697632 0,-0.542603 0.413412,-0.826823 0.43925,-0.284221 0.43925,-0.387574 0,-0.129191 -0.387574,-0.258382 -0.361735,-0.129191 -0.671794,-0.129191 -0.930176,0 -1.834514,0.43925 -0.8785,0.413412 -2.6355,1.989544 -1.757,1.550294 -3.720705,3.772381 z m -0.800985,-5.193484 q 3.384808,-0.645956 5.219322,-1.989544 1.860353,-1.343588 1.860353,-2.816367 0,-1.31775 -1.653647,-1.31775 -1.989544,0 -3.720705,1.886191 -1.705323,1.860353 -1.705323,4.23747 z m 0.361735,4.67672 -0.361735,-2.299603 Q 77.82437,74.16597 77.772693,74.036779 L 77.746855,73.4425 q -3.35897,0.930176 -4.96094,1.989543 -1.576133,1.03353 -2.790529,2.790529 -1.214397,1.731162 -1.214397,2.687177 0,0.671794 0.542602,1.136882 0.542603,0.465088 1.446941,0.465088 1.705324,0 3.798221,-1.266073 2.118735,-1.291912 3.824058,-3.539838 z"
         id="path832" />
    </g>
    <path
       d="m 69.933289,89.817202 q 0.908626,2.479793 3.188709,3.696874 2.266304,1.217305 5.049571,1.172019 3.100174,-0.05044 5.86147,-1.446026 2.747742,-1.381581 4.803968,-3.758012 2.056227,-2.376429 2.028203,-4.098747 -0.01816,-1.116063 -1.219927,-2.130174 -1.201769,-1.014111 -3.254774,-0.980707 -3.816658,0.0621 -7.035214,2.154234 -3.218558,2.092134 -3.182912,4.282923 0.01233,0.75782 0.753579,1.421088 0.741249,0.663266 1.939982,0.643762 2.356131,-0.03834 5.029376,-1.76326 2.659466,-1.724701 4.648248,-4.858053 l 0.09757,0.06732 q -1.813473,2.896204 -4.525811,4.759586 -2.726116,1.863606 -5.233812,1.904408 -1.308962,0.0213 -2.064885,-0.696859 -0.755924,-0.718157 -0.768254,-1.475977 -0.03632,-2.232125 3.250458,-4.366715 3.272999,-2.134366 7.089657,-2.196466 2.204568,-0.03587 3.546812,1.141341 1.342245,1.177211 1.3687,2.80308 0.03789,2.328575 -1.720367,4.383166 -1.771811,2.068593 -4.882278,3.180432 -3.110243,1.125618 -6.306867,1.17763 -2.962387,0.0482 -5.255801,-1.141099 -2.307191,-1.189075 -3.300731,-3.805309 -0.435982,0.310302 -1.309066,0.862014 l -1.555061,0.990056 -0.05691,-0.109332 0.968861,-0.594617 q 0.368434,-0.22651 0.85908,-0.565266 l 1.049964,-0.692411 q -0.317476,-0.876895 -0.3316,-1.744943 -0.04237,-2.604145 1.535745,-5.56543 1.564561,-2.947283 4.510462,-4.855811 2.932122,-1.908305 6.679887,-1.969284 2.025447,-0.03296 3.591615,0.506631 1.907595,-0.499633 4.125941,-0.535728 1.832546,-0.02982 2.691973,0.273191 0.85965,0.316785 0.867273,0.785255 0.01435,0.881827 -2.190219,0.917698 -1.639647,0.02668 -3.896088,-0.58437 l -2.022653,-0.642418 q -0.06934,-0.02644 -0.906245,0.207696 -0.850683,0.234357 -1.643786,0.619381 -0.806881,0.385248 -1.705504,1.061414 -0.898399,0.689946 -1.589447,1.417864 -0.704603,0.741921 -2.541046,3.073428 -3.928625,5.039294 -7.03785,7.07452 z M 85.038691,76.271606 q 0.02756,-4.49e-4 -0.470488,-0.116385 l -1.382338,-0.253152 -0.441811,-0.04794 q -0.206903,-0.01041 -0.427808,-0.03438 -0.206902,-0.01042 -0.41358,-0.0071 -0.206902,-0.01041 -0.413581,-0.0071 -2.976166,0.04842 -5.840965,1.859158 -2.878577,1.810958 -4.484475,4.758913 -1.619452,2.961957 -1.576183,5.621216 0.013,0.799157 0.315804,1.621161 0.939735,-0.690617 1.752996,-1.530781 0.799931,-0.812384 1.690035,-2.012135 0.755008,-1.032167 2.071677,-3.12092 0.99428,-1.573566 1.589102,-2.286136 0.540605,-0.656559 1.275007,-1.261143 0.870393,-0.717054 1.812369,-1.269887 1.023975,-0.595512 2.064644,-1.012129 2.232003,-0.890812 2.879595,-0.901349 z m 1.019388,-0.03037 q 2.982565,1.191869 5.559153,1.149945 1.694762,-0.02757 1.683553,-0.716503 -0.0054,-0.330685 -0.78236,-0.648815 -0.790758,-0.317906 -2.637084,-0.287865 -2.301017,0.03744 -3.823262,0.503238 z"
       id="path28508"
       style="font-size:28.2222px;line-height:1.25;font-family:'Kunstler Script';-inkscape-font-specification:'Kunstler Script, Normal';fill:#3eb489;fill-opacity:1;stroke-width:0.264583" />
    <g
       aria-label="owo"
       transform="rotate(-77.027276,82.577277,79.687285)"
       id="text27004"
       style="font-size:16.9333px;line-height:1.25;font-family:'Kunstler Script';-inkscape-font-specification:'Kunstler Script, Normal';fill:#3eb489;fill-opacity:1;stroke-width:0.264583">
      <path
         d="m 73.414801,92.439506 -0.01419,0.08061 q -0.412552,-0.08447 -0.597596,-0.348556 -0.151832,-0.216682 -0.100475,-0.47478 -0.879274,-0.13099 -1.636711,-0.44831 -0.757438,-0.317321 -1.023143,-0.696516 -0.137597,-0.196368 -0.09029,-0.431434 0.0473,-0.235066 0.297843,-0.410621 0.575563,-0.403302 1.464326,-0.25877 0.895534,0.139787 1.651685,0.599354 0.767666,0.461594 1.042861,0.854331 0.270449,0.385965 -0.0952,0.642181 -0.379194,0.265705 -1.517209,0.154482 -0.06356,0.226268 0.07878,0.429407 0.16132,0.230226 0.539324,0.308619 z m 0.876719,-0.967684 q 0.128655,-0.09015 0.13874,-0.248657 0.01483,-0.151735 -0.07058,-0.273619 -0.3606,-0.514621 -2.12053,-0.836207 -1.755185,-0.314814 -2.086981,-0.08232 -0.0948,0.06643 -0.109628,0.218162 -0.0081,0.146991 0.07735,0.268875 0.199278,0.284395 0.860534,0.608536 0.672773,0.326166 1.372534,0.431502 0.711277,0.107361 1.199649,0.09832 0.495142,-0.01378 0.73891,-0.184593 z"
         id="path28533"
         style="fill:#3eb489;fill-opacity:1" />
      <path
         d="m 72.60541,92.169817 -0.0435,-0.06933 1.17956,-0.595114 q 1.227239,-0.618126 1.606043,-0.531396 0.193432,0.04429 0.277421,0.23316 0.08584,0.180813 0.03786,0.390364 -0.06459,0.282088 -0.28415,0.537176 -0.219565,0.255087 -1.001569,0.669794 -0.772099,0.408493 -0.955924,0.54453 -0.183825,0.136038 -0.21335,0.264993 -0.0572,0.249849 0.224884,0.314435 0.370744,0.08488 1.192558,-0.244369 0.823659,-0.337313 1.286181,-0.579185 l 2.404085,-1.349576 0.741489,0.169768 -0.547785,0.391993 -1.374267,0.889821 q -0.788028,0.515114 -0.995354,0.6797 -0.205481,0.156526 -0.235006,0.28548 -0.03691,0.161194 0.06369,0.277529 0.110502,0.110122 0.271695,0.147028 0.499699,0.114409 1.347728,-0.107057 0.848028,-0.221465 1.798416,-0.741816 0.285996,-0.545235 0.749982,-1.01579 0.473892,-0.476769 0.675383,-0.430636 0.128955,0.02952 0.09389,0.182658 -0.06459,0.282088 -0.555953,0.686999 -0.491368,0.40491 -0.876495,0.605127 l -0.0203,0.08866 q -0.02768,0.120895 0.04252,0.22179 0.08011,0.09468 0.201003,0.12236 0.120895,0.02768 0.252862,0.007 0.131967,-0.02068 0.616143,-0.283038 l 0.0435,0.06933 q -0.632751,0.355576 -0.939019,0.285455 -0.338506,-0.0775 -0.327326,-0.422712 -0.866779,0.488601 -1.756951,0.7089 -0.880267,0.214084 -1.420265,0.09045 -0.23373,-0.05351 -0.351803,-0.241708 -0.116228,-0.196254 -0.06087,-0.438044 0.07197,-0.314327 0.37883,-0.617283 0.316769,-0.309172 1.513425,-1.05305 l -0.02117,-0.05574 -1.561484,0.855438 q -0.611096,0.335088 -1.450875,0.66871 -0.837933,0.325562 -1.200618,0.242524 -0.169253,-0.03875 -0.279266,-0.225101 -0.101954,-0.184503 -0.04106,-0.450472 0.08858,-0.386864 0.396117,-0.655737 0.315602,-0.267028 1.129845,-0.674354 0.824147,-0.41354 0.892423,-0.711748 0.04613,-0.201491 -0.171478,-0.251314 -0.185372,-0.04244 -0.579916,0.08776 -0.386483,0.132049 -1.4131,0.651912 z"
         id="path28535"
         style="fill:#3eb489;fill-opacity:1" />
      <path
         d="m 83.410028,92.025215 0.07136,0.04009 q -0.216389,0.361262 -0.526865,0.448359 -0.254748,0.07146 -0.481253,-0.06251 -0.414913,0.786211 -0.965267,1.395731 -0.550354,0.609521 -0.996164,0.734583 -0.230866,0.06476 -0.436982,-0.05775 -0.206117,-0.122514 -0.288747,-0.417067 -0.189826,-0.676677 0.241009,-1.467354 0.428602,-0.798638 1.112741,-1.359815 0.689866,-0.571371 1.151599,-0.700899 0.453771,-0.127296 0.574366,0.302593 0.125062,0.445811 -0.356928,1.482697 0.192428,0.134942 0.431255,0.06794 0.27067,-0.07593 0.469877,-0.406609 z M 82.787477,90.8774 q -0.04243,-0.151258 -0.188645,-0.21329 -0.138251,-0.06426 -0.281547,-0.02407 -0.605029,0.169727 -1.491554,1.723704 -0.878564,1.551744 -0.769135,1.941828 0.03127,0.111453 0.169517,0.175718 0.136018,0.05631 0.279314,0.01611 0.334358,-0.0938 0.859279,-0.610308 0.530648,-0.526706 0.86188,-1.152044 0.336959,-0.635531 0.49024,-1.099313 0.151048,-0.471742 0.07065,-0.758334 z"
         id="path28537"
         style="fill:#3eb489;fill-opacity:1" />
    </g>
  </g>
  <metadata
     id="metadata830">
    <rdf:RDF>
      <cc:License
         rdf:about="http://creativecommons.org/licenses/by/4.0/">
        <cc:permits
           rdf:resource="http://creativecommons.org/ns#Reproduction" />
        <cc:permits
           rdf:resource="http://creativecommons.org/ns#Distribution" />
        <cc:requires
           rdf:resource="http://creativecommons.org/ns#Notice" />
        <cc:requires
           rdf:resource="http://creativecommons.org/ns#Attribution" />
        <cc:permits
           rdf:resource="http://creativecommons.org/ns#DerivativeWorks" />
      </cc:License>
      <cc:Work
         rdf:about="">
        <cc:license
           rdf:resource="http://creativecommons.org/licenses/by/4.0/" />
        <dc:title>Dook &amp; OwO</dc:title>
        <dc:date>2022-07-25</dc:date>
        <dc:creator>
          <cc:Agent>
            <dc:title>https://airlinefurries.com/#me</dc:title>
          </cc:Agent>
        </dc:creator>
        <dc:identifier>https://airlinefurries.com/about/icons/dook.svg</dc:identifier>
      </cc:Work>
    </rdf:RDF>
  </metadata>
</svg>
