<?xml version="1.0" encoding="UTF-8" standalone="no"?>
<!-- Created with Inkscape (http://www.inkscape.org/) -->

<svg
   width="46.581341mm"
   height="19.339359mm"
   viewBox="0 0 46.581341 19.339359"
   version="1.1"
   id="svg5"
   inkscape:version="1.1.2 (b8e25be833, 2022-02-05)"
   sodipodi:docname="gowojet.svg"
   xmlns:inkscape="http://www.inkscape.org/namespaces/inkscape"
   xmlns:sodipodi="http://sodipodi.sourceforge.net/DTD/sodipodi-0.dtd"
   xmlns="http://www.w3.org/2000/svg"
   xmlns:svg="http://www.w3.org/2000/svg"
   xmlns:rdf="http://www.w3.org/1999/02/22-rdf-syntax-ns#"
   xmlns:cc="http://creativecommons.org/ns#"
   xmlns:dc="http://purl.org/dc/elements/1.1/">
  <title
     id="title841">GowoJet</title>
  <sodipodi:namedview
     id="namedview7"
     pagecolor="#ffffff"
     bordercolor="#666666"
     borderopacity="1.0"
     inkscape:pageshadow="2"
     inkscape:pageopacity="0.0"
     inkscape:pagecheckerboard="0"
     inkscape:document-units="mm"
     showgrid="false"
     inkscape:zoom="1.7962713"
     inkscape:cx="108.27986"
     inkscape:cy="90.465176"
     inkscape:window-width="2250"
     inkscape:window-height="1430"
     inkscape:window-x="-6"
     inkscape:window-y="-6"
     inkscape:window-maximized="1"
     inkscape:current-layer="layer1"
     fit-margin-top="0"
     fit-margin-left="0"
     fit-margin-right="0"
     fit-margin-bottom="0" />
  <defs
     id="defs2" />
  <g
     inkscape:label="Layer 1"
     inkscape:groupmode="layer"
     id="layer1"
     transform="translate(-44.837959,-91.21546)">
    <g
       aria-label="GowoJet"
       transform="rotate(-7.1543304)"
       id="text23629"
       style="font-size:10.5833px;line-height:1.25;fill:#6666cc;stroke-width:0.264583">
      <path
         d="m 35.340772,109.307 q -1.591629,0 -2.485629,-0.78548 -0.893999,-0.78547 -0.893999,-2.23241 0,-1.06453 0.32556,-1.96887 0.330728,-0.90433 0.956011,-1.57612 0.620116,-0.66663 1.519283,-1.04386 0.904334,-0.37724 2.030877,-0.37724 0.676959,0 1.34875,0.16536 0.67696,0.1602 1.379757,0.5271 l -0.232543,1.16789 h -0.09302 q -0.573606,-0.53744 -1.250565,-0.77515 -0.671792,-0.24288 -1.446936,-0.24288 -0.852658,0 -1.493444,0.3359 -0.640786,0.3359 -1.080034,0.894 -0.428913,0.54777 -0.651121,1.2764 -0.21704,0.72864 -0.21704,1.46761 0,1.11104 0.604612,1.71565 0.60978,0.60461 1.798334,0.60461 0.52193,0 0.976682,-0.093 0.459918,-0.0982 0.862993,-0.24805 l 0.434081,-1.96887 h -2.051548 l 0.19637,-0.86299 h 3.079906 l -0.764809,3.30211 q -0.341064,0.13953 -0.614948,0.25322 -0.273884,0.10852 -0.687294,0.22737 -0.356566,0.10336 -0.738971,0.17053 -0.377237,0.0672 -0.811317,0.0672 z"
         style="font-style:italic;-inkscape-font-specification:'sans-serif, Italic'"
         id="path999" />
      <path
         d="m 45.443482,105.42612 q 0,0.77514 -0.237711,1.48827 -0.237711,0.71314 -0.671791,1.24023 -0.449584,0.54777 -1.038693,0.85783 -0.58911,0.30489 -1.374589,0.30489 -1.028358,0 -1.607132,-0.58394 -0.573607,-0.58911 -0.573607,-1.62264 0,-0.77514 0.232544,-1.47794 0.23771,-0.7028 0.682126,-1.25056 0.428913,-0.5271 1.049029,-0.84233 0.625282,-0.31522 1.364253,-0.31522 0.997352,0 1.586461,0.56844 0.58911,0.56843 0.58911,1.63297 z m -1.581294,2.18073 q 0.279052,-0.41341 0.423745,-0.95601 0.149862,-0.5426 0.149862,-1.14721 0,-0.72347 -0.346231,-1.09554 -0.346231,-0.37207 -0.976682,-0.37207 -0.50126,0 -0.899167,0.24288 -0.397907,0.23771 -0.687294,0.65629 -0.279052,0.40824 -0.428913,0.95601 -0.149861,0.54777 -0.149861,1.13688 0,0.71313 0.346231,1.09554 0.346231,0.3824 0.981849,0.3824 0.496092,0 0.899167,-0.23771 0.403075,-0.23771 0.687294,-0.66146 z"
         style="font-style:italic;-inkscape-font-specification:'sans-serif, Italic'"
         id="path1001" />
      <path
         d="m 54.714204,103.3849 -2.681998,5.77224 h -0.909503 l -0.578774,-4.45966 -2.382276,4.45966 h -0.899167 l -0.361734,-5.77224 h 0.992185 l 0.149861,4.46483 2.356438,-4.46483 h 0.811317 l 0.563271,4.46483 1.922358,-4.46483 z"
         style="font-style:italic;-inkscape-font-specification:'sans-serif, Italic'"
         id="path1003" />
      <path
         d="m 60.527784,105.42612 q 0,0.77514 -0.237711,1.48827 -0.237711,0.71314 -0.671792,1.24023 -0.449583,0.54777 -1.038692,0.85783 -0.58911,0.30489 -1.374589,0.30489 -1.028358,0 -1.607132,-0.58394 -0.573607,-0.58911 -0.573607,-1.62264 0,-0.77514 0.232543,-1.47794 0.237711,-0.7028 0.682127,-1.25056 0.428913,-0.5271 1.049028,-0.84233 0.625283,-0.31522 1.364254,-0.31522 0.997352,0 1.586461,0.56844 0.58911,0.56843 0.58911,1.63297 z m -1.581294,2.18073 q 0.279052,-0.41341 0.423745,-0.95601 0.149862,-0.5426 0.149862,-1.14721 0,-0.72347 -0.346231,-1.09554 -0.346231,-0.37207 -0.976682,-0.37207 -0.50126,0 -0.899167,0.24288 -0.397907,0.23771 -0.687294,0.65629 -0.279052,0.40824 -0.428913,0.95601 -0.149861,0.54777 -0.149861,1.13688 0,0.71313 0.34623,1.09554 0.346231,0.3824 0.98185,0.3824 0.496092,0 0.899167,-0.23771 0.403075,-0.23771 0.687294,-0.66146 z"
         style="font-style:italic;-inkscape-font-specification:'sans-serif, Italic'"
         id="path1005" />
      <path
         d="m 65.896947,106.61984 q -0.315225,1.35392 -1.183387,2.00504 -0.868161,0.65112 -2.377108,0.65112 -0.552936,0 -0.997352,-0.0413 -0.444416,-0.0362 -0.795814,-0.10852 l 0.366901,-1.59163 h 0.186035 q 0.222208,0.0879 0.470254,0.17053 0.253213,0.0827 0.671791,0.0827 0.790647,0 1.183387,-0.37724 0.392739,-0.37723 0.640785,-1.4676 l 0.707965,-3.0644 h -1.756993 l 0.325561,-1.41593 h 3.751697 z"
         style="font-style:italic;font-weight:bold;-inkscape-font-specification:'sans-serif, Bold Italic'"
         id="path1007" />
      <path
         d="m 71.767371,105.5088 q 0.0155,-0.093 0.02067,-0.17053 0.01033,-0.0775 0.01033,-0.1602 0,-0.40824 -0.253213,-0.62528 -0.253214,-0.21704 -0.728636,-0.21704 -0.573606,0 -0.966346,0.31005 -0.387572,0.31006 -0.589109,0.863 z m -1.421098,3.80337 q -1.483109,0 -2.289259,-0.65629 -0.806149,-0.65629 -0.806149,-1.81383 0,-0.79065 0.263549,-1.45211 0.263549,-0.66145 0.759641,-1.16271 0.475421,-0.48576 1.188554,-0.76998 0.713132,-0.28422 1.565791,-0.28422 1.297074,0 1.953363,0.5271 0.661456,0.52193 0.661456,1.54512 0,0.3514 -0.07235,0.68729 -0.06718,0.3359 -0.180867,0.66663 h -4.3098 q 0,0.031 0,0.062 0,0.0258 0,0.0568 0,0.60462 0.423745,0.94568 0.423745,0.34106 1.297074,0.34106 0.60978,0 1.152381,-0.2067 0.547769,-0.20671 0.950843,-0.45992 h 0.206705 l -0.346231,1.49344 q -0.5426,0.23771 -1.142045,0.35657 -0.599445,0.12402 -1.276404,0.12402 z"
         style="font-style:italic;font-weight:bold;-inkscape-font-specification:'sans-serif, Bold Italic'"
         id="path1009" />
      <path
         d="m 76.325218,109.27083 q -0.966346,0 -1.379756,-0.31522 -0.41341,-0.3204 -0.41341,-0.94568 0,-0.16536 0.02584,-0.32039 0.02584,-0.15503 0.06718,-0.36174 l 0.63045,-2.74917 h -0.764808 l 0.284219,-1.22473 h 0.764809 l 0.382404,-1.65881 h 1.865513 l -0.382404,1.65881 h 1.746658 l -0.28422,1.22473 h -1.746657 l -0.48059,2.09288 q -0.05168,0.21704 -0.09819,0.43925 -0.04651,0.21704 -0.04651,0.37207 0,0.31006 0.170531,0.43408 0.1757,0.11886 0.537434,0.11886 0.144693,0 0.377236,-0.0517 0.237711,-0.0568 0.377237,-0.12402 h 0.155029 l -0.289387,1.2454 q -0.315225,0.0775 -0.666624,0.11885 -0.346231,0.0465 -0.831988,0.0465 z"
         style="font-style:italic;font-weight:bold;-inkscape-font-specification:'sans-serif, Bold Italic'"
         id="path1011" />
    </g>
    <path
       style="fill:none;stroke:#6666cc;stroke-width:0.327696px;stroke-linecap:butt;stroke-linejoin:miter;stroke-opacity:1"
       d="M 44.837959,106.61494 H 91.383452"
       id="path23631" />
    <g
       aria-label="AIRLINES"
       id="text23635"
       style="font-size:3.52778px;line-height:1.25;font-family:'Copperplate Gothic Light';-inkscape-font-specification:'Copperplate Gothic Light, Normal';letter-spacing:4.10104px;stroke-width:0.264583">
      <path
         d="m 46.912788,109.7849 h -1.259183 l -0.206706,0.44614 q -0.02928,0.0637 -0.02928,0.0896 0,0.0517 0.10163,0.0689 v 0.0551 h -0.523655 v -0.0551 q 0.07062,-0.0121 0.106799,-0.0517 0.0379,-0.0396 0.09819,-0.17226 l 0.861274,-1.85863 q 0.03101,-0.0672 0.03101,-0.0913 0,-0.0448 -0.0844,-0.0672 v -0.0551 h 0.571886 v 0.0551 q -0.0844,0.0276 -0.0844,0.0723 0,0.0189 0.031,0.0861 l 0.825101,1.79145 q 0.0913,0.19809 0.120579,0.23255 0.02928,0.0344 0.127468,0.0586 v 0.0551 H 47.04198 v -0.0551 q 0.09991,-0.0138 0.09991,-0.0758 0,-0.0276 -0.0379,-0.1068 z m -0.10163,-0.22393 -0.528823,-1.161 -0.527099,1.161 z"
         id="path1014" />
      <path
         d="m 52.055972,110.24137 v -1.94475 q 0,-0.0724 -0.02239,-0.10164 -0.02239,-0.031 -0.08785,-0.0465 v -0.0551 h 0.490926 v 0.0551 q -0.06546,0.0172 -0.08785,0.0465 -0.02239,0.0293 -0.02239,0.10164 v 1.94475 q 0,0.0724 0.02067,0.10163 0.02239,0.0293 0.08957,0.0465 v 0.0551 h -0.490926 v -0.0551 q 0.06718,-0.0172 0.08785,-0.0465 0.02239,-0.0293 0.02239,-0.10163 z"
         id="path1016" />
      <path
         d="m 57.436868,109.38527 v 0.8561 q 0,0.0706 0.02239,0.10163 0.02239,0.0293 0.08785,0.0465 v 0.0551 h -0.490927 v -0.0551 q 0.06546,-0.0172 0.08785,-0.0465 0.02239,-0.0293 0.02239,-0.10163 v -1.94475 q 0,-0.0724 -0.02239,-0.10164 -0.02239,-0.031 -0.08785,-0.0465 v -0.0551 h 1.290189 q 0.265273,0 0.41858,0.0293 0.155029,0.0276 0.268717,0.0982 0.117134,0.0724 0.189481,0.1981 0.08268,0.14297 0.08268,0.32211 0,0.26872 -0.179145,0.43925 -0.177423,0.16881 -0.489204,0.19293 l 0.597725,0.93017 q 0.0534,0.0861 0.155029,0.0861 v 0.0551 h -0.544325 v -0.0551 q 0.0844,-0.0138 0.0844,-0.0482 0,-0.0172 -0.06029,-0.11197 l -0.53399,-0.84404 z m 0,-0.22221 h 0.952569 q 0.194648,0 0.292833,-0.0155 0.09991,-0.0172 0.1757,-0.0603 0.177423,-0.10335 0.177423,-0.34623 0,-0.2446 -0.18259,-0.34795 -0.08096,-0.0448 -0.180868,-0.0603 -0.09819,-0.0155 -0.306614,-0.0155 h -0.928453 z"
         id="path1018" />
      <path
         d="m 64.249202,110.2207 h 1.502062 q 0.07235,0 0.101631,-0.0224 0.03101,-0.0224 0.04651,-0.0879 h 0.05512 v 0.44442 h -0.05512 q -0.0155,-0.0655 -0.04651,-0.0879 -0.02928,-0.0224 -0.101631,-0.0224 h -1.882746 v -0.0551 q 0.06718,-0.0172 0.08785,-0.0465 0.02239,-0.0293 0.02239,-0.10163 v -1.94475 q 0,-0.0724 -0.02239,-0.10164 -0.02239,-0.0293 -0.08785,-0.0465 v -0.0551 h 0.490927 v 0.0551 q -0.06546,0.0172 -0.08785,0.0465 -0.02239,0.0293 -0.02239,0.10164 z"
         id="path1020" />
      <path
         d="m 70.472423,110.24137 v -1.94475 q 0,-0.0724 -0.02239,-0.10164 -0.02239,-0.031 -0.08785,-0.0465 v -0.0551 h 0.490927 v 0.0551 q -0.06546,0.0172 -0.08785,0.0465 -0.02239,0.0293 -0.02239,0.10164 v 1.94475 q 0,0.0724 0.02067,0.10163 0.02239,0.0293 0.08957,0.0465 v 0.0551 h -0.49093 v -0.0551 q 0.06718,-0.0172 0.08785,-0.0465 0.02239,-0.0293 0.02239,-0.10163 z"
         id="path1022" />
      <path
         d="m 75.829202,108.39136 v 1.85001 q 0,0.0706 0.02239,0.10163 0.02239,0.0293 0.08785,0.0465 v 0.0551 h -0.466811 v -0.0551 q 0.06718,-0.0172 0.08785,-0.0465 0.02239,-0.0293 0.02239,-0.10163 v -1.94475 q 0,-0.0724 -0.02239,-0.10164 -0.02239,-0.031 -0.08785,-0.0465 v -0.0551 h 0.675239 v 0.0551 q -0.08096,0.0276 -0.08096,0.0775 0,0.0345 0.08096,0.12919 l 1.415935,1.65709 v -1.71565 q 0,-0.0724 -0.02239,-0.10164 -0.02239,-0.031 -0.08785,-0.0465 v -0.0551 h 0.466811 v 0.0551 q -0.06546,0.0155 -0.08785,0.0465 -0.02239,0.0293 -0.02239,0.10164 v 1.94475 q 0,0.0724 0.02239,0.10163 0.02239,0.0293 0.08785,0.0465 v 0.0551 h -0.542603 v -0.0551 q 0.07924,-0.0207 0.07924,-0.0706 0,-0.0379 -0.07235,-0.12403 z"
         id="path1024" />
      <path
         d="m 82.92059,109.34737 v 0.87333 h 1.507231 q 0.07235,0 0.10163,-0.0224 0.03101,-0.0224 0.04651,-0.0879 h 0.05512 v 0.44442 h -0.0534 q -0.01722,-0.0655 -0.04823,-0.0879 -0.02928,-0.0224 -0.10163,-0.0224 h -1.887914 v -0.0551 q 0.06718,-0.0172 0.08785,-0.0465 0.02239,-0.0293 0.02239,-0.10163 v -1.94475 q 0,-0.0724 -0.02239,-0.10164 -0.02239,-0.0293 -0.08785,-0.0465 v -0.0551 h 1.86552 q 0.07235,0 0.101631,-0.0224 0.02928,-0.0224 0.04651,-0.0896 h 0.05512 v 0.44442 h -0.05512 q -0.0155,-0.0637 -0.04651,-0.0861 -0.02928,-0.0224 -0.101631,-0.0224 H 82.92059 v 0.80615 h 0.97324 q 0.07235,0 0.101631,-0.0224 0.03101,-0.0224 0.04651,-0.0879 h 0.05512 v 0.44441 h -0.05512 q -0.0155,-0.0654 -0.04651,-0.0879 -0.02928,-0.0224 -0.101631,-0.0224 z"
         id="path1026" />
      <path
         d="m 91.386572,108.23805 -0.246325,0.44442 -0.04823,-0.0258 q 0.02928,-0.0775 0.02928,-0.0965 0,-0.0517 -0.127469,-0.11197 -0.346232,-0.16192 -0.733805,-0.16192 -0.318672,0 -0.554661,0.11886 -0.113688,0.0586 -0.180868,0.15158 -0.06546,0.093 -0.06546,0.19637 0,0.0861 0.05168,0.16364 0.05168,0.0758 0.136081,0.11369 0.09302,0.0431 0.218764,0.0603 0.127469,0.0155 0.413412,0.0241 0.396186,0.0121 0.566718,0.0379 0.170533,0.0241 0.280776,0.0861 0.292833,0.16364 0.292833,0.49782 0,0.31867 -0.265273,0.52193 -0.294555,0.22737 -0.81132,0.22737 -0.298001,0 -0.52021,-0.0603 -0.222209,-0.0603 -0.530545,-0.22221 -0.08613,-0.0396 -0.10163,-0.0396 -0.02584,0 -0.08096,0.062 l -0.04651,-0.0293 0.258382,-0.43236 0.04823,0.0276 q -0.03273,0.0689 -0.03273,0.093 0,0.0551 0.220487,0.17053 0.198093,0.10335 0.380683,0.14986 0.184313,0.0448 0.399631,0.0448 0.435805,0 0.661459,-0.19121 0.149862,-0.12747 0.149862,-0.30317 0,-0.23082 -0.25666,-0.31867 -0.08268,-0.0293 -0.172255,-0.0362 -0.08785,-0.009 -0.502984,-0.0241 -0.296279,-0.0121 -0.465088,-0.0448 -0.167088,-0.0327 -0.298001,-0.1068 -0.122301,-0.0689 -0.194648,-0.19293 -0.07063,-0.12402 -0.07063,-0.27044 0,-0.24977 0.186036,-0.42891 0.137803,-0.13092 0.380683,-0.20498 0.242879,-0.0758 0.532267,-0.0758 0.23599,0 0.437528,0.0465 0.203261,0.0465 0.458198,0.1602 0.05684,0.0241 0.07062,0.0241 0.03101,0 0.08441,-0.0689 z"
         id="path1028" />
    </g>
  </g>
  <metadata
     id="metadata839">
    <rdf:RDF>
      <cc:License
         rdf:about="http://creativecommons.org/licenses/by/4.0/">
        <cc:permits
           rdf:resource="http://creativecommons.org/ns#Reproduction" />
        <cc:permits
           rdf:resource="http://creativecommons.org/ns#Distribution" />
        <cc:requires
           rdf:resource="http://creativecommons.org/ns#Notice" />
        <cc:requires
           rdf:resource="http://creativecommons.org/ns#Attribution" />
        <cc:permits
           rdf:resource="http://creativecommons.org/ns#DerivativeWorks" />
      </cc:License>
      <cc:Work
         rdf:about="">
        <cc:license
           rdf:resource="http://creativecommons.org/licenses/by/4.0/" />
        <dc:title>GowoJet</dc:title>
        <dc:date>2022-07-25</dc:date>
        <dc:creator>
          <cc:Agent>
            <dc:title>https://airlinefurries.com/#me</dc:title>
          </cc:Agent>
        </dc:creator>
        <dc:identifier>https://airlinefurries.com/about/icons/gowojet.svg</dc:identifier>
      </cc:Work>
    </rdf:RDF>
  </metadata>
</svg>
