<?xml version="1.0" encoding="UTF-8" standalone="no"?>
<!-- Created with Inkscape (http://www.inkscape.org/) -->

<svg
   width="1248.5841mm"
   height="203.05392mm"
   viewBox="0 0 1248.5841 203.05392"
   version="1.1"
   id="svg2637"
   inkscape:version="1.1.2 (b8e25be833, 2022-02-05)"
   sodipodi:docname="lambda.svg"
   xmlns:inkscape="http://www.inkscape.org/namespaces/inkscape"
   xmlns:sodipodi="http://sodipodi.sourceforge.net/DTD/sodipodi-0.dtd"
   xmlns="http://www.w3.org/2000/svg"
   xmlns:svg="http://www.w3.org/2000/svg"
   xmlns:rdf="http://www.w3.org/1999/02/22-rdf-syntax-ns#"
   xmlns:cc="http://creativecommons.org/ns#"
   xmlns:dc="http://purl.org/dc/elements/1.1/">
  <title
     id="title833">Lambda Air Ways</title>
  <sodipodi:namedview
     id="namedview2639"
     pagecolor="#ffffff"
     bordercolor="#666666"
     borderopacity="1.0"
     inkscape:pageshadow="2"
     inkscape:pageopacity="0.0"
     inkscape:pagecheckerboard="true"
     inkscape:document-units="mm"
     showgrid="false"
     fit-margin-top="0"
     fit-margin-left="0"
     fit-margin-right="0"
     fit-margin-bottom="0"
     inkscape:zoom="0.18164217"
     inkscape:cx="1489.1916"
     inkscape:cy="542.27496"
     inkscape:window-width="2250"
     inkscape:window-height="1430"
     inkscape:window-x="-6"
     inkscape:window-y="-6"
     inkscape:window-maximized="1"
     inkscape:current-layer="layer1" />
  <defs
     id="defs2634" />
  <g
     inkscape:label="Layer 1"
     inkscape:groupmode="layer"
     id="layer1"
     transform="translate(41.148184,-47.505003)">
    <g
       aria-label="LAMBDA"
       id="text4469"
       style="font-weight:600;font-size:211.667px;line-height:1.25;font-family:'Segoe UI';-inkscape-font-specification:'Segoe UI, Semi-Bold';letter-spacing:23.8125px;fill:#ffffff;stroke-width:0.264583">
      <path
         d="M 325.62804,223.63948 H 243.56573 V 75.431234 h 24.59803 V 202.86552 h 57.46428 z"
         id="path826"
         style="fill:#ffffff" />
      <path
         d="m 498.0622,223.63948 h -26.97514 l -13.33254,-37.72386 h -58.29111 l -12.81578,37.72386 H 359.77585 L 415.27642,75.431234 h 27.69862 z M 451.24328,165.86514 430.67603,106.7472 q -0.93018,-2.89388 -1.96371,-9.30177 h -0.41341 q -0.93018,5.89112 -2.06706,9.30177 l -20.36055,59.11794 z"
         id="path828"
         style="fill:#ffffff" />
      <path
         d="m 701.3989,223.63948 h -24.39132 v -95.91161 q 0,-11.78225 1.44694,-28.835498 h -0.41341 q -2.27377,9.715188 -4.03077,13.952658 l -44.23509,110.79445 h -16.9499 L 568.4869,113.67186 q -1.86036,-4.8576 -3.92742,-14.779488 h -0.41341 q 0.82683,8.888358 0.82683,29.042198 v 95.70491 H 542.23523 V 75.431234 h 34.62326 l 38.9641,98.702146 q 4.44418,11.36883 5.78777,16.9499 h 0.51676 q 3.82406,-11.6789 6.20118,-17.36331 l 39.68757,-98.288736 h 33.38303 z"
         id="path830"
         style="fill:#ffffff" />
      <path
         d="M 761.69501,223.63948 V 75.431234 h 47.02563 q 21.49743,0 34.00314,9.405126 12.60907,9.405126 12.60907,24.49467 0,12.60907 -7.13136,21.91084 -7.13136,9.30177 -19.74043,13.22919 v 0.41341 q 15.29625,1.757 24.39132,11.36883 9.19842,9.50848 9.19842,24.80473 0,19.01696 -14.98619,30.79921 -14.98619,11.78224 -37.82721,11.78224 z M 786.18967,95.171663 V 137.3397 h 15.91637 q 12.81578,0 20.05049,-5.99448 7.33806,-6.09782 7.33806,-17.1566 0,-19.016957 -25.42484,-19.016957 z m 0,61.908467 v 46.92227 h 20.98067 q 13.74595,0 21.18737,-6.30453 7.54477,-6.40789 7.54477,-17.57002 0,-23.04772 -31.93608,-23.04772 z"
         id="path832"
         style="fill:#ffffff" />
      <path
         d="M 913.35522,223.63948 V 75.431234 h 42.78816 q 81.95892,0 81.95892,72.243766 0,34.31321 -22.7376,55.19052 -22.7377,20.77396 -60.97832,20.77396 z M 937.84989,96.308546 V 202.86552 h 19.63708 q 25.94161,0 40.30768,-14.26272 14.46945,-14.26272 14.46945,-40.30768 0,-51.986574 -53.84695,-51.986574 z"
         id="path834"
         style="fill:#ffffff" />
      <path
         d="m 1207.4359,223.63948 h -26.9751 l -13.3326,-37.72386 h -58.2911 l -12.8158,37.72386 h -26.8718 l 55.5006,-148.208246 h 27.6986 z m -46.8189,-57.77434 -20.5673,-59.11794 q -0.9301,-2.89388 -1.9637,-9.30177 h -0.4134 q -0.9302,5.89112 -2.0671,9.30177 l -20.3605,59.11794 z"
         id="path836"
         style="fill:#ffffff" />
    </g>
    <g
       id="g17183">
      <path
         id="path15316"
         style="fill:#cc0000;fill-opacity:1;stroke-width:0.836905;stroke-linecap:round;stroke-linejoin:round"
         inkscape:transform-center-x="3.1520123e-06"
         inkscape:transform-center-y="-33.842317"
         d="M 76.084803,47.505003 17.468309,149.03196 -41.148184,250.55892 -5.3520536,235.26274 17.468309,195.73689 76.084803,94.209927 134.7013,195.73689 l 22.82036,39.52585 35.79656,15.29618 -58.61692,-101.52696 z"
         sodipodi:nodetypes="ccccccccccc" />
      <path
         id="path16362"
         style="fill:#990000;fill-opacity:1;stroke-width:0.836905;stroke-linecap:round;stroke-linejoin:round"
         inkscape:transform-center-x="3.1520123e-06"
         inkscape:transform-center-y="-33.842317"
         d="M 76.084803,47.505003 V 94.209927 L 134.7013,195.73689 157.52166,235.26274 193.31822,250.55892 134.7013,149.03196 Z"
         sodipodi:nodetypes="ccccccc" />
    </g>
  </g>
  <metadata
     id="metadata831">
    <rdf:RDF>
      <cc:License
         rdf:about="http://creativecommons.org/licenses/by/4.0/">
        <cc:permits
           rdf:resource="http://creativecommons.org/ns#Reproduction" />
        <cc:permits
           rdf:resource="http://creativecommons.org/ns#Distribution" />
        <cc:requires
           rdf:resource="http://creativecommons.org/ns#Notice" />
        <cc:requires
           rdf:resource="http://creativecommons.org/ns#Attribution" />
        <cc:permits
           rdf:resource="http://creativecommons.org/ns#DerivativeWorks" />
      </cc:License>
      <cc:Work
         rdf:about="">
        <cc:license
           rdf:resource="http://creativecommons.org/licenses/by/4.0/" />
        <dc:title>Lambda Air Ways</dc:title>
        <dc:date>2022-07-25</dc:date>
        <dc:creator>
          <cc:Agent>
            <dc:title>https://airlinefurries.com/#me</dc:title>
          </cc:Agent>
        </dc:creator>
        <dc:identifier>https://airlinefurries.com/about/icons/lambda.svg</dc:identifier>
      </cc:Work>
    </rdf:RDF>
  </metadata>
</svg>
