<?xml version="1.0" encoding="UTF-8" standalone="no"?>
<!-- Created with Inkscape (http://www.inkscape.org/) -->

<svg
   width="44.742359mm"
   height="14.86178mm"
   viewBox="0 0 44.742359 14.86178"
   version="1.1"
   id="svg5"
   inkscape:version="1.1.2 (b8e25be833, 2022-02-05)"
   sodipodi:docname="peets.svg"
   xmlns:inkscape="http://www.inkscape.org/namespaces/inkscape"
   xmlns:sodipodi="http://sodipodi.sourceforge.net/DTD/sodipodi-0.dtd"
   xmlns="http://www.w3.org/2000/svg"
   xmlns:svg="http://www.w3.org/2000/svg"
   xmlns:rdf="http://www.w3.org/1999/02/22-rdf-syntax-ns#"
   xmlns:cc="http://creativecommons.org/ns#"
   xmlns:dc="http://purl.org/dc/elements/1.1/">
  <title
     id="title831">Peets Aviation</title>
  <sodipodi:namedview
     id="namedview7"
     pagecolor="#ffffff"
     bordercolor="#666666"
     borderopacity="1.0"
     inkscape:pageshadow="2"
     inkscape:pageopacity="0.0"
     inkscape:pagecheckerboard="0"
     inkscape:document-units="mm"
     showgrid="false"
     fit-margin-top="0"
     fit-margin-left="0"
     fit-margin-right="0"
     fit-margin-bottom="0"
     inkscape:zoom="0.64052329"
     inkscape:cx="209.98456"
     inkscape:cy="131.92338"
     inkscape:window-width="2250"
     inkscape:window-height="1430"
     inkscape:window-x="-6"
     inkscape:window-y="-6"
     inkscape:window-maximized="1"
     inkscape:current-layer="layer1" />
  <defs
     id="defs2" />
  <g
     inkscape:label="Layer 1"
     inkscape:groupmode="layer"
     id="layer1"
     transform="translate(-49.671098,-113.58406)">
    <g
       aria-label="peets"
       id="text1640"
       style="font-size:16.9333px;line-height:1.25;font-family:'Harlow Solid Italic';-inkscape-font-specification:'Harlow Solid Italic, Normal';fill:#990099;fill-opacity:1;stroke-width:0.264583">
      <path
         d="m 64.945544,122.03797 -2.158003,5.30819 q -0.446484,1.09968 -1.306378,1.09968 -0.330728,0 -0.562238,-0.22325 -0.239778,-0.21497 -0.239778,-0.52089 0,-0.25632 0.206705,-0.77721 l 3.985279,-9.82264 q 0.305923,-0.74414 1.058331,-0.74414 0.520897,0 0.826821,0.49609 0.578775,-0.61185 1.413864,-0.61185 0.868163,0 1.397328,0.66146 0.537434,0.65319 0.537434,1.72806 0,2.03398 -1.265036,3.31555 -0.413411,0.42168 -0.851626,0.57878 -0.438215,0.15709 -1.223696,0.15709 -0.843357,0 -1.165818,-0.11575 -0.314192,-0.11576 -0.653189,-0.52917 z m 0.677994,-1.68671 q 0.206705,0.3638 0.388606,0.47128 0.190169,0.10749 0.595311,0.10749 0.587043,0 0.917772,-0.43821 0.669725,-0.8847 0.669725,-1.81901 0,-0.80202 -0.760675,-0.80202 -0.83509,0 -1.198891,0.96738 -0.04134,0.10749 -0.06615,0.1819 z"
         id="path13768"
         style="fill:#990099;fill-opacity:1" />
      <path
         d="m 72.527496,120.26031 q 0,0.62011 0.934308,0.62011 h 2.455659 q 1.041795,0 1.041795,0.73587 0,0.50436 -0.37207,0.78548 -0.363801,0.28112 -1.025258,0.28112 h -2.339904 q -1.306378,0 -1.99264,-0.64492 -0.677993,-0.64492 -0.677993,-1.88515 0,-1.59577 1.074867,-2.75332 1.083136,-1.15755 2.571415,-1.15755 1.083136,0 1.736324,0.57051 0.661457,0.56224 0.661457,1.48828 0,1.11621 -0.909503,1.65364 -0.504361,0.30593 -1.504815,0.30593 z m 0.396874,-1.50482 h 0.909503 q 0.884699,0 0.859894,-0.38861 -0.0248,-0.43821 -0.570506,-0.43821 -0.760676,0 -1.198891,0.82682 z"
         id="path13770"
         style="fill:#990099;fill-opacity:1" />
      <path
         d="m 79.257821,120.26031 q 0,0.62011 0.934308,0.62011 h 2.455659 q 1.041795,0 1.041795,0.73587 0,0.50436 -0.37207,0.78548 -0.363801,0.28112 -1.025258,0.28112 h -2.339904 q -1.306378,0 -1.99264,-0.64492 -0.677993,-0.64492 -0.677993,-1.88515 0,-1.59577 1.074868,-2.75332 1.083136,-1.15755 2.571414,-1.15755 1.083136,0 1.736325,0.57051 0.661457,0.56224 0.661457,1.48828 0,1.11621 -0.909504,1.65364 -0.504361,0.30593 -1.504815,0.30593 z m 0.396874,-1.50482 h 0.909504 q 0.884698,0 0.859894,-0.38861 -0.02481,-0.43821 -0.570507,-0.43821 -0.760676,0 -1.198891,0.82682 z"
         id="path13772"
         style="fill:#990099;fill-opacity:1" />
      <path
         d="m 88.137881,116.35771 h 0.256315 q 1.050063,0 1.050063,0.73587 0,0.50436 -0.37207,0.78548 -0.37207,0.28112 -1.025258,0.28112 h -0.60358 l -1.10794,2.72024 h 0.926039 q 1.050063,0 1.050063,0.73587 0,0.50436 -0.372069,0.78548 -0.363802,0.28112 -1.025259,0.28112 h -1.48001 q -0.628384,0 -1.000453,-0.28939 -0.363802,-0.28938 -0.363802,-0.78548 0,-0.30592 0.148828,-0.67799 l 0.157096,-0.3638 0.975649,-2.40605 H 85.22747 q -0.92604,0 -0.92604,-0.71934 0,-0.51262 0.363802,-0.79374 0.372069,-0.28939 1.033526,-0.28939 h 0.380338 l 0.438215,-1.08314 0.09095,-0.22324 q 0.388606,-0.91777 1.223695,-0.91777 0.338997,0 0.578775,0.23151 0.248046,0.22324 0.248046,0.5457 0,0.31419 -0.214973,0.79375 z"
         id="path13774"
         style="fill:#990099;fill-opacity:1" />
      <path
         d="m 91.850309,118.61493 -0.157096,0.38034 q -0.363801,0.81855 -1.033526,0.81855 -0.338997,0 -0.611848,-0.23151 -0.264583,-0.23978 -0.264583,-0.5457 0,-0.28939 0.239778,-0.76894 l 1.099672,-2.23242 q 0.405143,-0.80202 1.008722,-0.80202 0.322461,0 0.553971,0.21498 0.23151,0.2067 0.23151,0.49609 0,0.0744 -0.04961,0.32246 -0.03307,0.1819 -0.03307,0.32246 0,0.5209 0.388606,1.0666 l 0.471288,0.65319 q 0.719334,1.00045 0.719334,1.93476 0,1.04179 -0.777212,1.74459 -0.777212,0.69453 -1.934762,0.69453 h -1.728056 q -1.050063,0 -1.050063,-0.7276 0,-0.50436 0.372069,-0.78548 0.37207,-0.28939 1.025259,-0.28939 h 0.959112 q 1.149282,0 1.149282,-0.83509 0,-0.30592 -0.214973,-0.71933 z"
         id="path13776"
         style="fill:#990099;fill-opacity:1" />
    </g>
    <g
       aria-label="ðŸ¾"
       id="text12862"
       style="font-size:10.5833px;line-height:1.25;fill:#990099;fill-opacity:1;stroke-width:0.264583"
       transform="translate(1.5875)">
      <path
         d="m 50.062797,113.58406 q 0.32556,0 0.506427,0.17053 0.180867,0.16537 0.180867,0.50643 0,0.14986 -0.04651,0.29972 -0.04651,0.1447 -0.134359,0.26872 -0.08785,0.11886 -0.21704,0.19637 -0.124023,0.0724 -0.289387,0.0724 -0.160197,0 -0.279052,-0.0775 -0.118855,-0.0827 -0.19637,-0.20154 -0.07751,-0.12402 -0.118855,-0.26871 -0.03617,-0.14986 -0.03617,-0.28939 0,-0.31006 0.155029,-0.49092 0.160197,-0.18604 0.475422,-0.18604 z m -1.343583,0.75448 q 0.32556,0 0.50126,0.17569 0.180867,0.17054 0.180867,0.50643 0,0.1447 -0.04651,0.29456 -0.04651,0.14469 -0.134358,0.26871 -0.08268,0.11886 -0.211873,0.19637 -0.129191,0.0724 -0.289387,0.0724 -0.160197,0 -0.279052,-0.0775 -0.118855,-0.0775 -0.201537,-0.19637 -0.07751,-0.12403 -0.118856,-0.26872 -0.03617,-0.14986 -0.03617,-0.28939 0,-0.31006 0.160196,-0.49609 0.160197,-0.18603 0.475422,-0.18603 z m 3.653512,-0.0775 q 0,-0.34106 -0.180867,-0.50643 -0.175699,-0.17053 -0.50126,-0.17053 -0.315225,0 -0.475421,0.18604 -0.160197,0.18086 -0.160197,0.49092 0,0.13953 0.03617,0.28939 0.04134,0.14469 0.118855,0.26871 0.08268,0.11886 0.201537,0.20154 0.118856,0.0775 0.279052,0.0775 0.160197,0 0.289387,-0.0775 0.129191,-0.0775 0.211873,-0.19637 0.08785,-0.11885 0.134358,-0.26871 0.04651,-0.14987 0.04651,-0.29456 z m 0.635618,0.0775 q 0.325561,0 0.50126,0.17569 0.180867,0.17054 0.180867,0.50643 0,0.1447 -0.04651,0.29456 -0.04651,0.14469 -0.134358,0.26871 -0.08268,0.11886 -0.211873,0.19637 -0.12919,0.0724 -0.289387,0.0724 -0.160196,0 -0.279052,-0.0775 -0.118855,-0.0775 -0.201537,-0.19637 -0.07751,-0.12403 -0.118856,-0.26872 -0.03617,-0.14986 -0.03617,-0.28939 0,-0.31006 0.160196,-0.49609 0.160197,-0.18603 0.475422,-0.18603 z m -0.268716,2.96105 q 0,-0.40825 -0.129191,-0.77515 -0.129191,-0.3669 -0.372069,-0.64595 -0.237711,-0.27905 -0.578774,-0.43925 -0.341064,-0.16536 -0.769977,-0.16536 -0.434081,0 -0.780312,0.16536 -0.341063,0.1602 -0.578774,0.43925 -0.232543,0.27388 -0.356566,0.64078 -0.124023,0.36691 -0.124023,0.78032 0,0.23771 0.08785,0.3979 0.09302,0.15503 0.23771,0.25838 0.149862,0.10336 0.341064,0.1602 0.19637,0.0517 0.397907,0.0775 0.206705,0.0207 0.408243,0.0258 0.201537,0 0.366901,0 0.165364,0 0.366902,0 0.201537,-0.005 0.408242,-0.0258 0.206705,-0.0258 0.397907,-0.0775 0.19637,-0.0568 0.346231,-0.1602 0.149862,-0.10335 0.237711,-0.25838 0.09302,-0.16019 0.09302,-0.3979 z m 0.43408,1.51411 q 0.325561,0 0.506428,0.17053 0.180867,0.16537 0.180867,0.50643 0,0.14469 -0.04651,0.29455 -0.04651,0.14987 -0.134358,0.26872 -0.08785,0.11886 -0.217041,0.19637 -0.12919,0.0775 -0.289387,0.0775 -0.160196,0 -0.279052,-0.0775 -0.118855,-0.0827 -0.196369,-0.20154 -0.07751,-0.12402 -0.118856,-0.26871 -0.03617,-0.14986 -0.03617,-0.28939 0,-0.31006 0.155029,-0.49093 0.160196,-0.18603 0.475421,-0.18603 z m 2.030877,-0.0775 q 0,-0.3359 -0.180866,-0.50643 -0.1757,-0.1757 -0.50126,-0.1757 -0.315225,0 -0.475422,0.18603 -0.160196,0.18604 -0.160196,0.4961 0,0.13952 0.03617,0.28938 0.04134,0.1447 0.118855,0.26872 0.08268,0.11886 0.201538,0.20154 0.118855,0.0775 0.279052,0.0775 0.160196,0 0.289387,-0.0775 0.129191,-0.0775 0.211873,-0.19637 0.08785,-0.11886 0.134358,-0.26872 0.04651,-0.14986 0.04651,-0.29455 z m 0.940509,-0.68213 q 0.330728,0 0.506427,0.17053 0.180867,0.17053 0.180867,0.5116 0,0.14469 -0.04651,0.29455 -0.04651,0.14986 -0.134358,0.26872 -0.08785,0.11885 -0.21704,0.19637 -0.129191,0.0775 -0.289387,0.0775 -0.160197,0 -0.279052,-0.0775 -0.118856,-0.0827 -0.19637,-0.20154 -0.07751,-0.12402 -0.118856,-0.26872 -0.03617,-0.14986 -0.03617,-0.28938 0,-0.31006 0.155029,-0.4961 0.160196,-0.18603 0.475422,-0.18603 z m 2.005039,1.4366 q 0,-0.34106 -0.180867,-0.50643 -0.180867,-0.17053 -0.506428,-0.17053 -0.315225,0 -0.475421,0.18603 -0.155029,0.18087 -0.155029,0.49093 0,0.13953 0.03617,0.28939 0.04134,0.14469 0.118856,0.26871 0.07751,0.11886 0.19637,0.20154 0.118855,0.0775 0.279051,0.0775 0.160197,0 0.289387,-0.0775 0.129191,-0.0775 0.217041,-0.19637 0.08785,-0.11885 0.134358,-0.26872 0.04651,-0.14986 0.04651,-0.29455 z m -2.806022,0.25838 q 0.428913,0 0.769977,0.16536 0.346231,0.1602 0.583942,0.43925 0.242878,0.27905 0.366901,0.64596 0.129191,0.3669 0.129191,0.77514 0,0.23771 -0.09302,0.39791 -0.08785,0.16019 -0.237711,0.25838 -0.149861,0.10335 -0.346231,0.15503 -0.191202,0.0568 -0.397908,0.0775 -0.206705,0.0258 -0.408242,0.0258 -0.201538,0.005 -0.366902,0.005 -0.165364,0 -0.366901,-0.005 -0.201538,0 -0.408243,-0.0258 -0.201537,-0.0207 -0.397907,-0.0775 -0.191202,-0.0517 -0.341063,-0.15503 -0.144694,-0.10335 -0.237711,-0.26355 -0.08785,-0.1602 -0.08785,-0.39274 0,-0.40824 0.124023,-0.77514 0.124023,-0.37207 0.361734,-0.64596 0.237711,-0.27905 0.578774,-0.43925 0.341064,-0.16536 0.775144,-0.16536 z"
         id="path13779"
         style="fill:#990099;fill-opacity:1" />
    </g>
  </g>
  <metadata
     id="metadata829">
    <rdf:RDF>
      <cc:License
         rdf:about="http://creativecommons.org/licenses/by/4.0/">
        <cc:permits
           rdf:resource="http://creativecommons.org/ns#Reproduction" />
        <cc:permits
           rdf:resource="http://creativecommons.org/ns#Distribution" />
        <cc:requires
           rdf:resource="http://creativecommons.org/ns#Notice" />
        <cc:requires
           rdf:resource="http://creativecommons.org/ns#Attribution" />
        <cc:permits
           rdf:resource="http://creativecommons.org/ns#DerivativeWorks" />
      </cc:License>
      <cc:Work
         rdf:about="">
        <cc:license
           rdf:resource="http://creativecommons.org/licenses/by/4.0/" />
        <dc:title>Peets Aviation</dc:title>
        <dc:date>2022-07-25</dc:date>
        <dc:creator>
          <cc:Agent>
            <dc:title>https://airlinefurries.com/#me</dc:title>
          </cc:Agent>
        </dc:creator>
        <dc:identifier>https://airlinefurries.com/about/icons/peets.svg</dc:identifier>
      </cc:Work>
    </rdf:RDF>
  </metadata>
</svg>
