<?xml version="1.0" encoding="UTF-8" standalone="no"?>
<!-- Created with Inkscape (http://www.inkscape.org/) -->

<svg
   width="156.01839mm"
   height="32.455593mm"
   viewBox="0 0 156.01839 32.455593"
   version="1.1"
   id="svg968"
   inkscape:version="1.1.2 (b8e25be833, 2022-02-05)"
   sodipodi:docname="raven.svg"
   xmlns:inkscape="http://www.inkscape.org/namespaces/inkscape"
   xmlns:sodipodi="http://sodipodi.sourceforge.net/DTD/sodipodi-0.dtd"
   xmlns="http://www.w3.org/2000/svg"
   xmlns:svg="http://www.w3.org/2000/svg"
   xmlns:rdf="http://www.w3.org/1999/02/22-rdf-syntax-ns#"
   xmlns:cc="http://creativecommons.org/ns#"
   xmlns:dc="http://purl.org/dc/elements/1.1/">
  <title
     id="title840">Raven Aviation</title>
  <sodipodi:namedview
     id="namedview970"
     pagecolor="#ffffff"
     bordercolor="#666666"
     borderopacity="1.0"
     inkscape:pageshadow="2"
     inkscape:pageopacity="0.0"
     inkscape:pagecheckerboard="0"
     inkscape:document-units="mm"
     showgrid="false"
     inkscape:zoom="1.9729477"
     inkscape:cx="304.87376"
     inkscape:cy="78.309221"
     inkscape:window-width="1794"
     inkscape:window-height="1422"
     inkscape:window-x="443"
     inkscape:window-y="0"
     inkscape:window-maximized="0"
     inkscape:current-layer="layer1"
     fit-margin-top="0"
     fit-margin-left="0"
     fit-margin-right="0"
     fit-margin-bottom="0" />
  <defs
     id="defs965" />
  <g
     inkscape:label="Layer 1"
     inkscape:groupmode="layer"
     id="layer1"
     transform="translate(-40.658528,-86.477238)">
    <path
       id="rect3203"
       style="fill:#003300;fill-opacity:1;stroke-width:0.991536;stroke-linecap:round;stroke-linejoin:round"
       d="M 57.858555,94.342186 66.93842,86.483847 H 170.76946 L 196.67692,118.8724 H 75.891155 Z"
       sodipodi:nodetypes="cccccc" />
    <path
       d="m 56.180765,111.78907 c 0.0735,0.16169 0.139641,0.36747 0.198437,0.61736 0.0735,0.23519 0.110243,0.43362 0.110243,0.59531 0,0.30869 -0.110243,0.57327 -0.330729,0.79376 -0.220487,0.22048 -0.48507,0.33072 -0.793751,0.33072 -0.249885,0 -0.440973,-0.0515 -0.573264,-0.15434 -0.132292,-0.10289 -0.264584,-0.21314 -0.396876,-0.33073 -0.117593,-0.11759 -0.257234,-0.22783 -0.418924,-0.33072 -0.146991,-0.10289 -0.374826,-0.15434 -0.683507,-0.15434 -0.220487,0 -0.440973,0.0441 -0.661459,0.13229 -0.205787,0.0735 -0.389526,0.18374 -0.551216,0.33073 -0.16169,0.14699 -0.293982,0.31602 -0.396876,0.50711 -0.102893,0.19109 -0.15434,0.40423 -0.15434,0.63942 0,0.0735 0.0074,0.15434 0.02205,0.24253 0.0147,0.0735 0.02205,0.14699 0.02205,0.22049 0,0.32338 -0.124942,0.59531 -0.374827,0.8158 -0.235185,0.20579 -0.507118,0.30868 -0.815799,0.30868 -0.293982,0 -0.551216,-0.10289 -0.771702,-0.30868 -0.220487,-0.22049 -0.411575,-0.48507 -0.573265,-0.79375 -0.146991,-0.30869 -0.264583,-0.63207 -0.352778,-0.97014 -0.0735,-0.33808 -0.110243,-0.62471 -0.110243,-0.8599 0,-0.57327 0.102894,-1.10243 0.308681,-1.5875 0.205787,-0.48507 0.49242,-0.904 0.859897,-1.25678 0.367477,-0.35277 0.79375,-0.63205 1.27882,-0.83784 0.499769,-0.20579 1.028937,-0.30868 1.587502,-0.30868 0.411575,0 0.80845,0.0661 1.190626,0.19843 l 1.565453,-2.57969 c -0.573265,-0.70555 -1.065684,-1.45521 -1.477258,-2.24896 -0.396875,-0.79375 -0.712906,-1.63159 -0.948092,-2.51354 h -8.069799 c -0.176389,0.11759 -0.389526,0.27193 -0.639411,0.46302 -0.249885,0.17639 -0.514468,0.35278 -0.793751,0.52917 -0.264583,0.16169 -0.536516,0.30868 -0.815799,0.44097 -0.264583,0.11759 -0.499769,0.17639 -0.705556,0.17639 -0.235185,0 -0.426274,-0.0441 -0.573265,-0.13229 -0.146991,-0.10289 -0.264583,-0.22784 -0.352778,-0.37483 -0.08819,-0.16169 -0.154341,-0.33808 -0.198438,-0.52917 -0.0441,-0.19109 -0.08085,-0.38217 -0.110243,-0.57326 h -0.02205 v -0.79375 c 0,-1.17593 0.213137,-2.29306 0.63941,-3.351394 0.440973,-1.058335 1.036286,-1.984377 1.785939,-2.778128 0.764353,-0.793751 1.660997,-1.418462 2.689934,-1.874134 1.043635,-0.470371 2.168115,-0.705556 3.37344,-0.705556 h 5.137332 c 0.573265,-0.984839 1.264122,-1.866785 2.072572,-2.645836 0.808449,-0.779052 1.690395,-1.440511 2.645836,-1.984377 0.955441,-0.543867 1.977027,-0.955441 3.06476,-1.234724 1.087733,-0.293982 2.197514,-0.440973 3.329343,-0.440973 h 20.791862 v 0.0441 c 0,0.617361 -0.08819,1.220024 -0.264584,1.807988 -0.16169,0.573264 -0.396875,1.109781 -0.705556,1.60955 -0.308681,0.499769 -0.683507,0.96279 -1.12448,1.389064 -0.440973,0.411575 -0.933392,0.757003 -1.477259,1.036286 -0.0294,0.646759 -0.169041,1.264121 -0.418924,1.852085 -0.249885,0.587963 -0.580614,1.11713 -0.992188,1.587501 -0.396875,0.455672 -0.874596,0.845198 -1.433162,1.168578 -0.543866,0.32338 -1.139179,0.536517 -1.785939,0.63941 -0.102893,0.705557 -0.352778,1.344967 -0.749653,1.918232 -0.382177,0.573268 -0.852548,1.065688 -1.411113,1.477258 -0.558565,0.41157 -1.175927,0.7276 -1.852085,0.94809 -0.676158,0.22049 -1.352316,0.33073 -2.028474,0.33073 h -3.152955 l 6.526395,8.24619 h 0.02205 l 3.726219,4.7625 c 0.264584,0.33808 0.396876,0.72761 0.396876,1.16858 0,0.35278 -0.08084,0.68351 -0.242535,0.99219 -0.16169,0.29398 -0.374827,0.55121 -0.639411,0.7717 -0.249885,0.22049 -0.536517,0.38953 -0.859896,0.50712 -0.32338,0.13229 -0.65411,0.19844 -0.992189,0.19844 h -4.321532 c -1.014237,0 -1.962329,-0.18374 -2.844274,-0.55122 -0.867246,-0.35278 -1.60955,-0.8452 -2.226912,-1.47726 -0.617361,-0.63206 -1.080383,-1.38171 -1.389064,-2.24896 -0.308681,-0.88195 -0.404225,-1.83739 -0.286632,-2.86632 z"
       style="font-size:45.1556px;line-height:1.25;-inkscape-font-specification:'sans-serif, Normal';fill:#999999;fill-opacity:1;stroke-width:0.264583"
       id="path4240"
       sodipodi:nodetypes="ccssssccscssscscscccssscsccccccccsccsccscccscsscscscsccsccccsssccccscccsscsccc" />
    <g
       aria-label="raven"
       id="text5535"
       style="font-weight:bold;font-size:17.6389px;line-height:1.25;font-family:Arial;-inkscape-font-specification:'Arial, Bold';fill:#ffffff;stroke-width:0.264583">
      <path
         d="m 94.308022,104.82366 h -2.420181 v -9.146733 h 2.247926 v 1.300525 q 0.577054,-0.921564 1.03353,-1.214397 0.465088,-0.292834 1.050755,-0.292834 0.826823,0 1.593357,0.456476 l -0.749308,2.110122 q -0.611505,-0.396186 -1.136883,-0.396186 -0.508152,0 -0.861274,0.28422 -0.353123,0.275608 -0.559829,1.007692 -0.198093,0.732083 -0.198093,3.066135 z"
         id="path832" />
      <path
         d="M 100.66423,98.467456 98.467978,98.07127 q 0.370348,-1.326363 1.274686,-1.963706 0.904336,-0.637343 2.687176,-0.637343 1.6192,0 2.41157,0.387574 0.79237,0.378961 1.11104,0.97324 0.32729,0.585667 0.32729,2.161799 l -0.0258,2.824976 q 0,1.20579 0.11196,1.78284 0.12058,0.56844 0.43925,1.22301 h -2.39434 q -0.0947,-0.24116 -0.23254,-0.71486 -0.0603,-0.21531 -0.0861,-0.28422 -0.62012,0.6029 -1.32636,0.90434 -0.70625,0.30145 -1.50723,0.30145 -1.412493,0 -2.230704,-0.76654 -0.809598,-0.76653 -0.809598,-1.93786 0,-0.77515 0.370348,-1.37804 0.370348,-0.61151 1.03353,-0.93018 0.671794,-0.327284 1.929254,-0.568441 1.69671,-0.318671 2.35128,-0.594279 v -0.241157 q 0,-0.697632 -0.34451,-0.990466 -0.34451,-0.301446 -1.30052,-0.301446 -0.64596,0 -1.0077,0.258383 -0.36173,0.249769 -0.58566,0.887112 z m 3.23839,1.963704 q -0.46509,0.15503 -1.47278,0.37035 -1.00769,0.21532 -1.31775,0.42202 -0.4737,0.3359 -0.4737,0.85267 0,0.50815 0.37896,0.8785 0.37896,0.37034 0.96463,0.37034 0.65457,0 1.24885,-0.43063 0.43925,-0.32729 0.57705,-0.80099 0.0947,-0.31006 0.0947,-1.17994 z"
         id="path834" />
      <path
         d="m 111.18039,104.82366 -3.68626,-9.146733 h 2.54076 l 1.72255,4.668103 0.49954,1.55891 q 0.19809,-0.59428 0.24977,-0.78376 0.12058,-0.38757 0.25838,-0.77515 l 1.73978,-4.668103 h 2.48908 l -3.63458,9.146733 z"
         id="path836" />
      <path
         d="m 123.77222,101.91255 2.41157,0.4048 q -0.46509,1.32637 -1.47278,2.024 -0.99908,0.68902 -2.50631,0.68902 -2.38573,0 -3.53122,-1.55891 -0.90434,-1.24885 -0.90434,-3.15226 0,-2.273768 1.18856,-3.557067 1.18855,-1.291912 3.00584,-1.291912 2.04122,0 3.22117,1.352201 1.17995,1.343588 1.12827,4.125508 h -6.06337 q 0.0258,1.07659 0.58566,1.67948 0.55983,0.59428 1.39527,0.59428 0.56844,0 0.95601,-0.31006 0.38758,-0.31006 0.58567,-0.99908 z m 0.1378,-2.446015 q -0.0258,-1.050755 -0.5426,-1.593358 -0.51676,-0.551216 -1.25746,-0.551216 -0.79237,0 -1.30914,0.577054 -0.51676,0.577054 -0.50815,1.56752 z"
         id="path838" />
      <path
         d="m 136.60521,104.82366 h -2.42018 v -4.66811 q 0,-1.481388 -0.15503,-1.912025 -0.15503,-0.43925 -0.50815,-0.680407 -0.34451,-0.241157 -0.83544,-0.241157 -0.62873,0 -1.12827,0.34451 -0.49954,0.34451 -0.68902,0.912951 -0.18086,0.568441 -0.18086,2.101508 v 4.14273 h -2.42019 v -9.146733 h 2.24793 v 1.343588 q 1.19717,-1.550294 3.01446,-1.550294 0.80099,0 1.46417,0.292834 0.66318,0.28422 0.99908,0.732083 0.34451,0.447863 0.4737,1.016304 0.1378,0.568441 0.1378,1.627808 z"
         id="path840" />
    </g>
    <g
       aria-label="aviation"
       id="text8669"
       style="font-size:7.05556px;line-height:1.25;font-family:Arial;-inkscape-font-specification:'Arial, Normal';fill:#999999;stroke-width:0.264583">
      <path
         d="m 124.15458,110.68409 q -0.34451,0.29283 -0.6649,0.41341 -0.31695,0.12058 -0.68213,0.12058 -0.60289,0 -0.92673,-0.29283 -0.32384,-0.29628 -0.32384,-0.75448 0,-0.26872 0.12058,-0.4892 0.12402,-0.22393 0.32039,-0.35829 0.19982,-0.13436 0.44786,-0.20326 0.18259,-0.0482 0.55122,-0.093 0.75103,-0.0896 1.10587,-0.2136 0.003,-0.12747 0.003,-0.16192 0,-0.37896 -0.1757,-0.53399 -0.23771,-0.21015 -0.70625,-0.21015 -0.43752,0 -0.64767,0.15503 -0.20671,0.15159 -0.30662,0.54088 l -0.60633,-0.0827 q 0.0827,-0.3893 0.27216,-0.62701 0.18948,-0.24115 0.54777,-0.36862 0.35829,-0.13092 0.83027,-0.13092 0.46853,0 0.76136,0.11025 0.29284,0.11024 0.43064,0.27905 0.1378,0.16536 0.19293,0.4203 0.031,0.15848 0.031,0.57189 v 0.82682 q 0,0.86472 0.0379,1.09554 0.0413,0.22738 0.15847,0.43753 h -0.64768 q -0.0965,-0.19293 -0.12402,-0.45131 z m -0.0517,-1.38493 q -0.33762,0.13781 -1.01285,0.23427 -0.38241,0.0551 -0.54088,0.12402 -0.15848,0.0689 -0.24461,0.20326 -0.0861,0.13092 -0.0861,0.29284 0,0.24804 0.18603,0.41341 0.18948,0.16536 0.55122,0.16536 0.35829,0 0.63734,-0.15503 0.27905,-0.15847 0.40997,-0.43063 0.0999,-0.21016 0.0999,-0.62012 z"
         id="path843" />
      <path
         d="m 126.7074,111.1354 -1.39182,-3.65869 h 0.65457 l 0.78548,2.19108 q 0.12747,0.35484 0.23427,0.73725 0.0827,-0.28939 0.23082,-0.69591 l 0.81304,-2.23242 h 0.63734 l -1.38493,3.65869 z"
         id="path845" />
      <path
         d="m 129.22232,106.79802 v -0.71313 h 0.62012 v 0.71313 z m 0,4.33738 v -3.65869 h 0.62012 v 3.65869 z"
         id="path847" />
      <path
         d="m 133.17385,110.68409 q -0.34451,0.29283 -0.66491,0.41341 -0.31695,0.12058 -0.68213,0.12058 -0.60289,0 -0.92673,-0.29283 -0.32384,-0.29628 -0.32384,-0.75448 0,-0.26872 0.12058,-0.4892 0.12403,-0.22393 0.3204,-0.35829 0.19981,-0.13436 0.44786,-0.20326 0.18259,-0.0482 0.55121,-0.093 0.75104,-0.0896 1.10588,-0.2136 0.003,-0.12747 0.003,-0.16192 0,-0.37896 -0.1757,-0.53399 -0.23772,-0.21015 -0.70625,-0.21015 -0.43753,0 -0.64768,0.15503 -0.2067,0.15159 -0.30661,0.54088 l -0.60634,-0.0827 q 0.0827,-0.3893 0.27216,-0.62701 0.18948,-0.24115 0.54777,-0.36862 0.35829,-0.13092 0.83027,-0.13092 0.46854,0 0.76137,0.11025 0.29283,0.11024 0.43064,0.27905 0.1378,0.16536 0.19292,0.4203 0.031,0.15848 0.031,0.57189 v 0.82682 q 0,0.86472 0.0379,1.09554 0.0413,0.22738 0.15848,0.43753 h -0.64768 q -0.0965,-0.19293 -0.12402,-0.45131 z m -0.0517,-1.38493 q -0.33762,0.13781 -1.01286,0.23427 -0.3824,0.0551 -0.54088,0.12402 -0.15847,0.0689 -0.2446,0.20326 -0.0861,0.13092 -0.0861,0.29284 0,0.24804 0.18604,0.41341 0.18948,0.16536 0.55121,0.16536 0.35829,0 0.63735,-0.15503 0.27905,-0.15847 0.40996,-0.43063 0.0999,-0.21016 0.0999,-0.62012 z"
         id="path849" />
      <path
         d="m 136.06428,110.58074 0.0896,0.54777 q -0.26183,0.0551 -0.46854,0.0551 -0.33762,0 -0.52365,-0.1068 -0.18604,-0.1068 -0.26183,-0.27905 -0.0758,-0.1757 -0.0758,-0.73381 V 107.959 h -0.45475 v -0.48231 h 0.45475 v -0.90607 l 0.61667,-0.37207 v 1.27814 h 0.62356 v 0.48231 h -0.62356 v 2.1394 q 0,0.26528 0.031,0.34107 0.0344,0.0758 0.1068,0.12058 0.0758,0.0448 0.21359,0.0448 0.10335,0 0.27216,-0.0241 z"
         id="path851" />
      <path
         d="m 136.67407,106.79802 v -0.71313 h 0.62011 v 0.71313 z m 0,4.33738 v -3.65869 h 0.62011 v 3.65869 z"
         id="path853" />
      <path
         d="m 138.00732,109.30605 q 0,-1.0163 0.56499,-1.50551 0.47198,-0.40652 1.15067,-0.40652 0.75447,0 1.23334,0.4961 0.47887,0.49265 0.47887,1.36426 0,0.70624 -0.21359,1.11276 -0.21016,0.40308 -0.61668,0.62701 -0.40307,0.22393 -0.88194,0.22393 -0.76826,0 -1.24368,-0.49265 -0.47198,-0.49265 -0.47198,-1.41938 z m 0.63734,0 q 0,0.7028 0.30662,1.0542 0.30661,0.34796 0.7717,0.34796 0.46164,0 0.76825,-0.3514 0.30662,-0.3514 0.30662,-1.07143 0,-0.67868 -0.31006,-1.02664 -0.30661,-0.3514 -0.76481,-0.3514 -0.46509,0 -0.7717,0.34796 -0.30662,0.34795 -0.30662,1.05075 z"
         id="path855" />
      <path
         d="m 142.16211,111.1354 v -3.65869 h 0.5581 v 0.5202 q 0.40308,-0.60289 1.16445,-0.60289 0.33073,0 0.60633,0.12058 0.27906,0.11713 0.41686,0.31006 0.1378,0.19293 0.19293,0.4582 0.0345,0.17225 0.0345,0.60289 v 2.24965 h -0.62012 v -2.22553 q 0,-0.37897 -0.0724,-0.565 -0.0723,-0.18948 -0.25838,-0.29972 -0.18259,-0.11369 -0.43064,-0.11369 -0.39618,0 -0.68557,0.25149 -0.28594,0.25149 -0.28594,0.95429 v 1.99816 z"
         id="path857" />
    </g>
  </g>
  <metadata
     id="metadata838">
    <rdf:RDF>
      <cc:License
         rdf:about="http://creativecommons.org/licenses/by/4.0/">
        <cc:permits
           rdf:resource="http://creativecommons.org/ns#Reproduction" />
        <cc:permits
           rdf:resource="http://creativecommons.org/ns#Distribution" />
        <cc:requires
           rdf:resource="http://creativecommons.org/ns#Notice" />
        <cc:requires
           rdf:resource="http://creativecommons.org/ns#Attribution" />
        <cc:permits
           rdf:resource="http://creativecommons.org/ns#DerivativeWorks" />
      </cc:License>
      <cc:Work
         rdf:about="">
        <cc:license
           rdf:resource="http://creativecommons.org/licenses/by/4.0/" />
        <dc:title>Raven Aviation</dc:title>
        <dc:date>2022-07-25</dc:date>
        <dc:creator>
          <cc:Agent>
            <dc:title>https://airlinefurries.com/#me</dc:title>
          </cc:Agent>
        </dc:creator>
        <dc:identifier>https://airlinefurries.com/about/icons/raven.svg</dc:identifier>
      </cc:Work>
    </rdf:RDF>
  </metadata>
</svg>
