<?xml version="1.0" encoding="UTF-8" standalone="no"?>
<!-- Created with Inkscape (http://www.inkscape.org/) -->

<svg
   width="105.44022mm"
   height="23.437225mm"
   viewBox="0 0 105.44022 23.437225"
   version="1.1"
   id="svg5"
   inkscape:version="1.1.2 (b8e25be833, 2022-02-05)"
   sodipodi:docname="sweetfluff.svg"
   xmlns:inkscape="http://www.inkscape.org/namespaces/inkscape"
   xmlns:sodipodi="http://sodipodi.sourceforge.net/DTD/sodipodi-0.dtd"
   xmlns="http://www.w3.org/2000/svg"
   xmlns:svg="http://www.w3.org/2000/svg"
   xmlns:rdf="http://www.w3.org/1999/02/22-rdf-syntax-ns#"
   xmlns:cc="http://creativecommons.org/ns#"
   xmlns:dc="http://purl.org/dc/elements/1.1/">
  <title
     id="title7169">SweetFluff Airways</title>
  <sodipodi:namedview
     id="namedview7"
     pagecolor="#333333"
     bordercolor="#666666"
     borderopacity="1.0"
     inkscape:pageshadow="2"
     inkscape:pageopacity="0"
     inkscape:pagecheckerboard="true"
     inkscape:document-units="mm"
     showgrid="false"
     fit-margin-top="0"
     fit-margin-left="0"
     fit-margin-right="0"
     fit-margin-bottom="0"
     inkscape:zoom="1.9621456"
     inkscape:cx="248.96216"
     inkscape:cy="137.85929"
     inkscape:window-width="2250"
     inkscape:window-height="1430"
     inkscape:window-x="-6"
     inkscape:window-y="-6"
     inkscape:window-maximized="1"
     inkscape:current-layer="layer1" />
  <defs
     id="defs2" />
  <g
     inkscape:label="Layer 1"
     inkscape:groupmode="layer"
     id="layer1"
     transform="translate(-27.916613,-96.294258)">
    <path
       d="m 33.139251,114.1372 v -1.65364 q 0.449584,0.37723 0.976682,0.56844 0.527098,0.18603 1.064531,0.18603 0.315225,0 0.547768,-0.0568 0.237711,-0.0568 0.39274,-0.15503 0.160196,-0.10335 0.237711,-0.23771 0.07751,-0.13953 0.07751,-0.29973 0,-0.21704 -0.124023,-0.38757 -0.124023,-0.17053 -0.341063,-0.31522 -0.211873,-0.1447 -0.506428,-0.27905 -0.294554,-0.13436 -0.635618,-0.27389 -0.868161,-0.36173 -1.297074,-0.88366 -0.423745,-0.52193 -0.423745,-1.2609 0,-0.57878 0.232543,-0.99219 0.232543,-0.41858 0.63045,-0.68729 0.403075,-0.26872 0.930173,-0.39274 0.527098,-0.12919 1.116207,-0.12919 0.578775,0 1.023191,0.0723 0.449583,0.0672 0.82682,0.21188 v 1.54512 q -0.186035,-0.12919 -0.408243,-0.22738 -0.21704,-0.0982 -0.449583,-0.16019 -0.232543,-0.0672 -0.465087,-0.0982 -0.227375,-0.031 -0.43408,-0.031 -0.28422,0 -0.516763,0.0568 -0.232543,0.0517 -0.39274,0.14986 -0.160196,0.0982 -0.248046,0.23771 -0.08785,0.13436 -0.08785,0.30489 0,0.18604 0.09819,0.3359 0.09818,0.14469 0.279051,0.27905 0.180867,0.12919 0.439249,0.25838 0.258381,0.12402 0.583942,0.25838 0.444415,0.18604 0.795814,0.39791 0.356566,0.2067 0.60978,0.47025 0.253214,0.26355 0.387572,0.60461 0.134358,0.3359 0.134358,0.78548 0,0.62012 -0.23771,1.04386 -0.232544,0.41858 -0.635619,0.68213 -0.403074,0.25838 -0.940508,0.37207 -0.532265,0.11369 -1.126542,0.11369 -0.60978,0 -1.162716,-0.10335 -0.547769,-0.10336 -0.950844,-0.31006 z"
       style="font-weight:bold;font-size:10.5833px;line-height:1.25;font-family:'Segoe UI';-inkscape-font-specification:'Segoe UI, Bold';font-variant-caps:small-caps;fill:#5573e4;stroke-width:0.264583;fill-opacity:1"
       id="path7090" />
    <path
       d="m 47.370896,108.86622 -1.467606,5.5552 h -1.824173 l -0.997352,-3.20393 q -0.04134,-0.13953 -0.06718,-0.29456 -0.02584,-0.15502 -0.03101,-0.33072 h -0.0155 q -0.02067,0.1912 -0.05168,0.35139 -0.02584,0.15503 -0.06201,0.27389 l -0.992185,3.20393 h -1.906854 l -1.359086,-5.5552 h 1.725988 l 0.60978,3.33829 q 0.02067,0.0982 0.04134,0.26871 0.02584,0.17053 0.03617,0.3669 h 0.02584 q 0.01034,-0.14986 0.04134,-0.31005 0.03617,-0.16537 0.08268,-0.34107 l 1.059364,-3.32278 h 1.591629 l 0.992184,3.36929 q 0.02584,0.10335 0.05168,0.25321 0.02584,0.1447 0.05168,0.34107 h 0.0155 q 0.01034,-0.14986 0.03617,-0.32039 0.02584,-0.1757 0.05168,-0.34107 l 0.661456,-3.30211 z"
       style="font-weight:bold;font-size:10.5833px;line-height:1.25;font-family:'Segoe UI';-inkscape-font-specification:'Segoe UI, Bold';font-variant-caps:small-caps;fill:#5573e4;stroke-width:0.264583;fill-opacity:1"
       id="path7092" />
    <path
       d="m 52.02176,114.42142 h -3.689686 v -5.5552 h 3.55016 v 1.12137 H 49.97538 v 1.08004 h 1.751825 V 112.189 H 49.97538 v 1.11621 h 2.04638 z"
       style="font-weight:bold;font-size:10.5833px;line-height:1.25;font-family:'Segoe UI';-inkscape-font-specification:'Segoe UI, Bold';font-variant-caps:small-caps;fill:#5573e4;stroke-width:0.264583;fill-opacity:1"
       id="path7094" />
    <path
       d="m 56.931005,114.42142 h -3.689686 v -5.5552 h 3.55016 v 1.12137 h -1.906855 v 1.08004 h 1.751826 v 1.12137 h -1.751826 v 1.11621 h 2.046381 z"
       style="font-weight:bold;font-size:10.5833px;line-height:1.25;font-family:'Segoe UI';-inkscape-font-specification:'Segoe UI, Bold';font-variant-caps:small-caps;fill:#5573e4;stroke-width:0.264583;fill-opacity:1"
       id="path7096" />
    <path
       d="m 62.413858,110.03927 h -1.622635 v 4.38215 h -1.643306 v -4.38215 h -1.622634 v -1.17305 h 4.888575 z"
       style="font-weight:bold;font-size:10.5833px;line-height:1.25;font-family:'Segoe UI';-inkscape-font-specification:'Segoe UI, Bold';font-variant-caps:small-caps;fill:#5573e4;stroke-width:0.264583;fill-opacity:1"
       id="path7098" />
    <path
       d="m 67.726178,108.37013 h -2.614819 v 1.819 h 2.402946 v 1.35392 h -2.402946 v 2.87837 h -1.669144 v -7.41038 h 4.283963 z"
       style="font-weight:bold;font-size:10.5833px;line-height:1.25;font-family:'Segoe UI';-inkscape-font-specification:'Segoe UI, Bold';font-variant-caps:small-caps;fill:#5573e4;stroke-width:0.264583;fill-opacity:1"
       id="path7100" />
    <path
       d="m 72.568245,114.42142 h -3.663848 v -5.5552 h 1.643306 v 4.38731 h 2.020542 z"
       style="font-weight:bold;font-size:10.5833px;line-height:1.25;font-family:'Segoe UI';-inkscape-font-specification:'Segoe UI, Bold';font-variant-caps:small-caps;fill:#5573e4;stroke-width:0.264583;fill-opacity:1"
       id="path7102" />
    <path
       d="m 78.54202,112.0133 q 0,2.5063 -2.578646,2.5063 -2.506299,0 -2.506299,-2.44429 v -3.20909 h 1.648473 v 3.15225 q 0,1.31775 0.904334,1.31775 0.888832,0 0.888832,-1.27124 v -3.19876 h 1.643306 z"
       style="font-weight:bold;font-size:10.5833px;line-height:1.25;font-family:'Segoe UI';-inkscape-font-specification:'Segoe UI, Bold';font-variant-caps:small-caps;fill:#5573e4;stroke-width:0.264583;fill-opacity:1"
       id="path7104" />
    <path
       d="m 83.601128,109.98759 h -1.912022 v 1.20923 h 1.736322 v 1.11621 h -1.736322 v 2.10839 h -1.643305 v -5.5552 h 3.555327 z"
       style="font-weight:bold;font-size:10.5833px;line-height:1.25;font-family:'Segoe UI';-inkscape-font-specification:'Segoe UI, Bold';font-variant-caps:small-caps;fill:#5573e4;stroke-width:0.264583;fill-opacity:1"
       id="path7106" />
    <path
       d="m 88.376015,109.98759 h -1.912022 v 1.20923 h 1.736322 v 1.11621 h -1.736322 v 2.10839 h -1.643305 v -5.5552 h 3.555327 z"
       style="font-weight:bold;font-size:10.5833px;line-height:1.25;font-family:'Segoe UI';-inkscape-font-specification:'Segoe UI, Bold';font-variant-caps:small-caps;fill:#5573e4;stroke-width:0.264583;fill-opacity:1"
       id="path7108" />
    <path
       d="m 99.073001,114.42142 h -1.819004 l -0.527098,-1.64848 h -2.63549 l -0.52193,1.64848 h -1.80867 l 2.697502,-7.41038 h 1.979201 z m -2.728507,-2.93005 -0.795814,-2.49079 q -0.08785,-0.27906 -0.124023,-0.66663 h -0.04134 q -0.02584,0.32556 -0.129191,0.64596 l -0.80615,2.51146 z"
       style="font-weight:bold;font-size:10.5833px;line-height:1.25;font-family:'Segoe UI';-inkscape-font-specification:'Segoe UI, Bold';font-variant-caps:small-caps;fill:#000000;stroke-width:0.264583;fill-opacity:1"
       id="path7110" />
    <path
       d="m 101.59997,114.42142 h -1.643304 v -5.5552 h 1.643304 z"
       style="font-weight:bold;font-size:10.5833px;line-height:1.25;font-family:'Segoe UI';-inkscape-font-specification:'Segoe UI, Bold';font-variant-caps:small-caps;fill:#000000;stroke-width:0.264583;fill-opacity:1"
       id="path7112" />
    <path
       d="m 108.37473,114.42142 h -1.91719 l -0.73897,-1.30741 q -0.12402,-0.21704 -0.22221,-0.3669 -0.0982,-0.14987 -0.1912,-0.23771 -0.093,-0.0879 -0.18603,-0.12403 -0.093,-0.0413 -0.20671,-0.0413 h -0.0568 v 2.07739 h -1.64331 v -5.5552 h 2.19625 q 2.23758,0 2.23758,1.50895 0,0.28938 -0.0982,0.52709 -0.093,0.23771 -0.26355,0.42892 -0.17053,0.1912 -0.40824,0.33072 -0.23771,0.13953 -0.52193,0.22221 v 0.0155 q 0.31523,0.10335 0.5426,0.32556 0.22738,0.21704 0.45475,0.57877 z m -3.51915,-4.51651 v 1.39009 h 0.27388 q 0.36174,0 0.57878,-0.2067 0.22221,-0.20671 0.22221,-0.55811 0,-0.36173 -0.19637,-0.49092 -0.19121,-0.13436 -0.58395,-0.13436 z"
       style="font-weight:bold;font-size:10.5833px;line-height:1.25;font-family:'Segoe UI';-inkscape-font-specification:'Segoe UI, Bold';font-variant-caps:small-caps;fill:#000000;stroke-width:0.264583;fill-opacity:1"
       id="path7114" />
    <path
       d="m 117.30439,108.86622 -1.46761,5.5552 h -1.82417 l -0.99735,-3.20393 q -0.0413,-0.13953 -0.0672,-0.29456 -0.0258,-0.15502 -0.031,-0.33072 h -0.0155 q -0.0207,0.1912 -0.0517,0.35139 -0.0258,0.15503 -0.062,0.27389 l -0.99218,3.20393 h -1.90686 l -1.35908,-5.5552 h 1.72599 l 0.60978,3.33829 q 0.0207,0.0982 0.0413,0.26871 0.0258,0.17053 0.0362,0.3669 h 0.0258 q 0.0103,-0.14986 0.0413,-0.31005 0.0362,-0.16537 0.0827,-0.34107 l 1.05936,-3.32278 h 1.59163 l 0.99219,3.36929 q 0.0258,0.10335 0.0517,0.25321 0.0258,0.1447 0.0517,0.34107 h 0.0155 q 0.0103,-0.14986 0.0362,-0.32039 0.0258,-0.1757 0.0517,-0.34107 l 0.66146,-3.30211 z"
       style="font-weight:bold;font-size:10.5833px;line-height:1.25;font-family:'Segoe UI';-inkscape-font-specification:'Segoe UI, Bold';font-variant-caps:small-caps;fill:#000000;stroke-width:0.264583;fill-opacity:1"
       id="path7116" />
    <path
       d="m 123.40736,114.42142 h -1.76733 l -0.34623,-1.13171 h -1.85001 l -0.34623,1.13171 h -1.76216 l 2.08772,-5.5552 h 1.94819 z m -2.42879,-2.19624 -0.44958,-1.40043 q -0.0724,-0.22221 -0.10335,-0.3669 -0.031,-0.1447 -0.0465,-0.28939 h -0.0362 q -0.0103,0.11886 -0.0517,0.25838 -0.0362,0.13953 -0.10852,0.39274 l -0.41341,1.4056 z"
       style="font-weight:bold;font-size:10.5833px;line-height:1.25;font-family:'Segoe UI';-inkscape-font-specification:'Segoe UI, Bold';font-variant-caps:small-caps;fill:#000000;stroke-width:0.264583;fill-opacity:1"
       id="path7118" />
    <path
       d="m 128.44062,108.86622 -1.87068,3.58116 v 1.97404 h -1.6433 v -1.95337 l -1.82418,-3.60183 h 1.81384 l 0.7338,1.76216 q 0.0103,0.0258 0.0465,0.14469 0.0362,0.11369 0.093,0.31006 h 0.0207 q 0.0568,-0.28422 0.12919,-0.43925 l 0.74931,-1.77766 z"
       style="font-weight:bold;font-size:10.5833px;line-height:1.25;font-family:'Segoe UI';-inkscape-font-specification:'Segoe UI, Bold';font-variant-caps:small-caps;fill:#000000;stroke-width:0.264583;fill-opacity:1"
       id="path7120" />
    <path
       d="m 128.91605,114.20954 v -1.34358 q 0.37723,0.28422 0.81131,0.42375 0.43408,0.13952 0.88367,0.13952 0.47542,0 0.70796,-0.12919 0.23255,-0.13436 0.23255,-0.35656 0,-0.12403 -0.062,-0.21188 -0.062,-0.093 -0.21187,-0.1757 -0.14469,-0.0827 -0.39274,-0.18086 -0.24288,-0.0982 -0.61495,-0.23771 -0.70796,-0.27389 -1.04386,-0.69763 -0.33589,-0.42892 -0.33589,-1.01803 0,-0.43408 0.1912,-0.74413 0.19637,-0.31523 0.5271,-0.51677 0.33589,-0.20153 0.76997,-0.29455 0.43925,-0.093 0.93018,-0.093 0.48575,0 0.85266,0.0517 0.3669,0.0517 0.68212,0.16019 v 1.2609 q -0.15503,-0.0982 -0.34106,-0.17053 -0.18087,-0.0723 -0.37207,-0.11885 -0.1912,-0.0517 -0.3824,-0.0724 -0.19121,-0.0258 -0.36174,-0.0258 -0.43925,0 -0.68729,0.12403 -0.24288,0.12402 -0.24288,0.33589 0,0.0982 0.0517,0.17053 0.0568,0.0724 0.18604,0.1447 0.13436,0.0723 0.3514,0.15503 0.21704,0.0827 0.5426,0.20153 0.7183,0.26355 1.12137,0.7028 0.40308,0.43925 0.40308,1.11104 0,0.84232 -0.62012,1.28157 -0.62011,0.43408 -1.819,0.43408 -0.5116,0 -0.96635,-0.0775 -0.44958,-0.0775 -0.79064,-0.23255 z"
       style="font-weight:bold;font-size:10.5833px;line-height:1.25;font-family:'Segoe UI';-inkscape-font-specification:'Segoe UI, Bold';font-variant-caps:small-caps;fill:#000000;stroke-width:0.264583;fill-opacity:1"
       id="path7122" />
    <path
       style="fill:#ff0000;fill-opacity:1;stroke:none;stroke-width:0.264583px;stroke-linecap:butt;stroke-linejoin:miter;stroke-opacity:1"
       d="m 32.103657,111.34902 c 0,0 -35.5243393,15.6968 100.376903,4.13074 0,0 -120.617515,7.43533 -100.376903,-4.13074 z"
       id="path5280"
       sodipodi:nodetypes="ccc" />
    <path
       style="fill:#ff0000;fill-opacity:1;stroke:none;stroke-width:0.264583px;stroke-linecap:round;stroke-linejoin:round;stroke-opacity:1"
       d="m 133.35684,96.294258 v 11.152992 h -11.56606 c 0,0 3.65297,-0.94228 7.63581,-7.484267 1.66772,-2.739313 3.93025,-3.668725 3.93025,-3.668725 z"
       id="path6337"
       sodipodi:nodetypes="cccsc" />
  </g>
  <metadata
     id="metadata7167">
    <rdf:RDF>
      <cc:License
         rdf:about="http://creativecommons.org/licenses/by/4.0/">
        <cc:permits
           rdf:resource="http://creativecommons.org/ns#Reproduction" />
        <cc:permits
           rdf:resource="http://creativecommons.org/ns#Distribution" />
        <cc:requires
           rdf:resource="http://creativecommons.org/ns#Notice" />
        <cc:requires
           rdf:resource="http://creativecommons.org/ns#Attribution" />
        <cc:permits
           rdf:resource="http://creativecommons.org/ns#DerivativeWorks" />
      </cc:License>
      <cc:Work
         rdf:about="">
        <cc:license
           rdf:resource="http://creativecommons.org/licenses/by/4.0/" />
        <dc:title>SweetFluff Airways</dc:title>
        <dc:date>2022-06-22</dc:date>
        <cc:attributionName>Air Line Furries Association, International</cc:attributionName>
        <cc:attributionURL>https://airlinefurries.com/#me</cc:attributionURL>
        <dc:identifier>https://airlinefurries.com/about/logos/sweetfluff.svg</dc:identifier>
        <dc:creator>
          <cc:Agent>
            <dc:title>https://airlinefurries.com/#me</dc:title>
          </cc:Agent>
        </dc:creator>
      </cc:Work>
    </rdf:RDF>
  </metadata>
</svg>
