<?xml version="1.0" encoding="UTF-8" standalone="no"?>
<!-- Created with Inkscape (http://www.inkscape.org/) -->

<svg
   width="113.03982mm"
   height="34.375546mm"
   viewBox="0 0 113.03981 34.375546"
   version="1.1"
   id="svg5"
   inkscape:version="1.1.2 (b8e25be833, 2022-02-05)"
   sodipodi:docname="uwunifi.svg"
   xmlns:inkscape="http://www.inkscape.org/namespaces/inkscape"
   xmlns:sodipodi="http://sodipodi.sourceforge.net/DTD/sodipodi-0.dtd"
   xmlns="http://www.w3.org/2000/svg"
   xmlns:svg="http://www.w3.org/2000/svg"
   xmlns:rdf="http://www.w3.org/1999/02/22-rdf-syntax-ns#"
   xmlns:cc="http://creativecommons.org/ns#"
   xmlns:dc="http://purl.org/dc/elements/1.1/">
  <title
     id="title837">UwUnify</title>
  <sodipodi:namedview
     id="namedview7"
     pagecolor="#ffffff"
     bordercolor="#666666"
     borderopacity="1.0"
     inkscape:pageshadow="2"
     inkscape:pageopacity="0.0"
     inkscape:pagecheckerboard="0"
     inkscape:document-units="mm"
     showgrid="false"
     fit-margin-top="0"
     fit-margin-left="0"
     fit-margin-right="0"
     fit-margin-bottom="0"
     inkscape:zoom="10.33576"
     inkscape:cx="391.98859"
     inkscape:cy="55.293467"
     inkscape:window-width="2250"
     inkscape:window-height="1430"
     inkscape:window-x="-6"
     inkscape:window-y="-6"
     inkscape:window-maximized="1"
     inkscape:current-layer="layer1" />
  <defs
     id="defs2" />
  <g
     inkscape:label="Layer 1"
     inkscape:groupmode="layer"
     id="layer1"
     transform="translate(-36.664649,-34.284737)">
    <path
       d="m 53.258594,50.536016 -6.898902,6.898902 q -1.824116,1.824116 -4.006819,1.824117 -2.174908,0.0078 -3.983434,-1.800731 -1.80073,-1.80073 -1.69939,-3.819731 0.109135,-2.011204 2.096954,-3.999024 l 6.797562,-6.797561 3.16492,3.164919 -6.789767,6.789767 q -0.974421,0.974421 -0.280633,1.668208 0.670402,0.670403 1.644823,-0.304018 l 6.789767,-6.789767 z"
       id="path18742"
       style="font-size:22.5778px;line-height:1.25;font-family:'Bauhaus 93';-inkscape-font-specification:'Bauhaus 93, Normal';fill:#9b870c;stroke-width:0.264583" />
    <path
       d="m 62.659809,59.937232 -6.898901,6.898901 q -1.824117,1.824116 -4.00682,1.824117 -2.174908,0.0078 -3.983433,-1.80073 -1.800731,-1.800731 -1.699391,-3.819731 0.109135,-2.011205 2.096955,-3.999024 l 6.797561,-6.797562 3.16492,3.164919 -6.789767,6.789767 q -0.974421,0.974421 -0.280632,1.668209 0.670401,0.670402 1.644822,-0.304019 l 6.789767,-6.789767 z"
       id="path18744"
       style="font-size:22.5778px;line-height:1.25;font-family:'Bauhaus 93';-inkscape-font-specification:'Bauhaus 93, Normal';fill:#9b870c;stroke-width:0.264583" />
    <g
       aria-label="UU"
       transform="rotate(-135)"
       id="text13190"
       style="font-size:22.5778px;line-height:1.25;font-family:'Bauhaus 93';-inkscape-font-specification:'Bauhaus 93, Normal';fill:#cfb53b;stroke-width:0.264583">
      <path
         d="m -75.808195,1.6906706 v 9.7565204 q 0,2.57969 -1.543404,4.123094 -1.53238,1.543405 -4.090022,1.543405 -2.546617,0 -3.902608,-1.499307 -1.344967,-1.499307 -1.344967,-4.310508 V 1.6906706 h 4.475873 v 9.6021804 q 0,1.378039 0.981164,1.378039 0.948091,0 0.948091,-1.378039 V 1.6906706 Z"
         id="path18747" />
      <path
         d="m -62.512869,1.6906706 v 9.7565204 q 0,2.57969 -1.543404,4.123094 -1.53238,1.543405 -4.090022,1.543405 -2.546617,0 -3.902608,-1.499307 -1.344966,-1.499307 -1.344966,-4.310508 V 1.6906706 h 4.475872 v 9.6021804 q 0,1.378039 0.981164,1.378039 0.948092,0 0.948092,-1.378039 V 1.6906706 Z"
         id="path18749" />
    </g>
    <path
       d="m 77.142416,48.194827 h 4.123094 v 6.206691 q 0,0.937067 0.782727,0.937067 0.771702,0 0.771702,-0.937067 v -6.206691 h 4.123095 v 6.12952 q 0,2.138718 -1.422137,3.615976 -1.422137,1.466234 -3.483684,1.466234 -2.34818,0 -3.781341,-1.708769 -1.113456,-1.333942 -1.113456,-3.70417 z"
       id="path18752"
       style="font-size:22.5778px;line-height:1.25;font-family:'Bauhaus 93';-inkscape-font-specification:'Bauhaus 93, Normal';fill:#cfb53b;stroke-width:0.264583" />
    <path
       d="m 89.346334,48.194827 h 4.123095 v 5.920058 q 0,0.694532 0.143316,0.97014 0.143316,0.264584 0.518143,0.264584 0.694532,0 0.694532,-1.234724 v -5.920058 h 4.123094 v 5.920058 q 0,0.694532 0.143316,0.97014 0.154341,0.264584 0.529168,0.264584 0.683512,0 0.683512,-1.234724 v -5.920058 h 4.12309 v 6.768931 q 0,1.852085 -1.24575,3.152954 -1.24575,1.289845 -3.02066,1.289845 -1.830037,0 -3.285247,-1.543404 -1.609551,1.543404 -3.241149,1.543404 -2.061548,0 -3.307295,-1.499307 -0.981165,-1.179602 -0.981165,-3.406514 z"
       id="path18754"
       style="font-size:22.5778px;line-height:1.25;font-family:'Bauhaus 93';-inkscape-font-specification:'Bauhaus 93, Normal';fill:#cfb53b;stroke-width:0.264583" />
    <path
       d="m 106.84192,48.194827 h 4.1231 v 6.206691 q 0,0.937067 0.78273,0.937067 0.7717,0 0.7717,-0.937067 v -6.206691 h 4.12309 v 6.12952 q 0,2.138718 -1.42213,3.615976 -1.42214,1.466234 -3.48369,1.466234 -2.34818,0 -3.78134,-1.708769 -1.11346,-1.333942 -1.11346,-3.70417 z"
       id="path18756"
       style="font-size:22.5778px;line-height:1.25;font-family:'Bauhaus 93';-inkscape-font-specification:'Bauhaus 93, Normal';fill:#cfb53b;stroke-width:0.264583" />
    <path
       d="m 128.84646,59.031731 h -4.12309 V 52.82504 q 0,-0.948091 -0.78273,-0.948091 -0.7717,0 -0.7717,0.948091 v 6.206691 h -4.1231 v -6.12952 q 0,-2.149742 1.42214,-3.615976 1.42214,-1.477259 3.48368,-1.477259 2.35921,0 3.78134,1.708769 1.11346,1.333943 1.11346,3.715195 z"
       id="path18758"
       style="font-size:22.5778px;line-height:1.25;font-family:'Bauhaus 93';-inkscape-font-specification:'Bauhaus 93, Normal';fill:#cfb53b;stroke-width:0.264583" />
    <path
       style="font-size:22.5778px;line-height:1.25;font-family:'Bauhaus 93';-inkscape-font-specification:'Bauhaus 93, Normal';fill:#9b870c;stroke-width:0.264583;fill-opacity:1"
       d="m 133.32233,43.134666 q 0.83785,0 1.44419,0.595313 0.61736,0.584289 0.61736,1.389064 0,0.859897 -0.58429,1.411112 -0.57326,0.551216 -1.47726,0.551216 -0.90399,0 -1.48828,-0.551216 -0.57326,-0.551215 -0.57326,-1.411112 0,-0.804775 0.60633,-1.389064 0.61736,-0.595313 1.45521,-0.595313 z"
       id="path865" />
    <path
       style="font-size:22.5778px;line-height:1.25;font-family:'Bauhaus 93';-inkscape-font-specification:'Bauhaus 93, Normal';fill:#cfb53b;stroke-width:0.264583"
       d="m 135.37286,48.040487 v 10.991244 h -4.1231 V 48.040487 Z"
       id="path18760" />
    <path
       d="m 143.76236,50.476861 v 4.321532 h -1.84106 v 4.233338 h -4.1231 v -9.337597 q 0,-1.576477 0.5402,-2.689933 0.6835,-1.422137 2.07257,-2.315106 1.40009,-0.903994 2.91042,-0.903994 l 0.44097,0.01102 v 4.321532 q -0.14332,-0.01102 -0.20946,-0.01102 -0.78273,0 -1.21268,0.518143 -0.41892,0.518143 -0.41892,1.477258 v 0.374827 z"
       id="path18762"
       style="font-size:22.5778px;line-height:1.25;font-family:'Bauhaus 93';-inkscape-font-specification:'Bauhaus 93, Normal';fill:#cfb53b;stroke-width:0.264583" />
    <path
       style="font-size:22.5778px;line-height:1.25;font-family:'Bauhaus 93';-inkscape-font-specification:'Bauhaus 93, Normal';fill:#9b870c;stroke-width:0.264583;fill-opacity:1"
       d="m 147.64292,43.134666 q 0.83785,0 1.44419,0.595313 0.61736,0.584289 0.61736,1.389064 0,0.859897 -0.58429,1.411112 -0.57327,0.551216 -1.47726,0.551216 -0.90399,0 -1.48828,-0.551216 -0.57327,-0.551215 -0.57327,-1.411112 0,-0.804775 0.60634,-1.389064 0.61736,-0.595313 1.45521,-0.595313 z"
       id="path907" />
    <path
       style="font-size:22.5778px;line-height:1.25;font-family:'Bauhaus 93';-inkscape-font-specification:'Bauhaus 93, Normal';fill:#cfb53b;stroke-width:0.264583"
       d="m 149.69344,48.040487 v 10.991244 h -4.12309 V 48.040487 Z"
       id="path18764" />
  </g>
  <metadata
     id="metadata835">
    <rdf:RDF>
      <cc:License
         rdf:about="http://creativecommons.org/licenses/by/4.0/">
        <cc:permits
           rdf:resource="http://creativecommons.org/ns#Reproduction" />
        <cc:permits
           rdf:resource="http://creativecommons.org/ns#Distribution" />
        <cc:requires
           rdf:resource="http://creativecommons.org/ns#Notice" />
        <cc:requires
           rdf:resource="http://creativecommons.org/ns#Attribution" />
        <cc:permits
           rdf:resource="http://creativecommons.org/ns#DerivativeWorks" />
      </cc:License>
      <cc:Work
         rdf:about="">
        <cc:license
           rdf:resource="http://creativecommons.org/licenses/by/4.0/" />
        <dc:title>UwUnify</dc:title>
        <dc:date>2022-07-25</dc:date>
        <dc:creator>
          <cc:Agent>
            <dc:title>https://airlinefurries.com/#me</dc:title>
          </cc:Agent>
        </dc:creator>
        <dc:identifier>https://airlinefurries.com/about/icons/uwunifi.svg</dc:identifier>
      </cc:Work>
    </rdf:RDF>
  </metadata>
</svg>
