<?xml version="1.0" encoding="UTF-8" standalone="no"?>
<!-- Created with Inkscape (http://www.inkscape.org/) -->

<svg
   width="1026.4967mm"
   height="1026.4967mm"
   viewBox="0 0 1026.4967 1026.4967"
   version="1.1"
   id="svg5"
   inkscape:version="1.1.2 (b8e25be833, 2022-02-05)"
   sodipodi:docname="ALFA Logo (Black &amp; White).svg"
   inkscape:export-filename="C:\Users\donge\Downloads\ALFA Logo (Black &amp; White).png"
   inkscape:export-xdpi="25.34"
   inkscape:export-ydpi="25.34"
   xmlns:inkscape="http://www.inkscape.org/namespaces/inkscape"
   xmlns:sodipodi="http://sodipodi.sourceforge.net/DTD/sodipodi-0.dtd"
   xmlns="http://www.w3.org/2000/svg"
   xmlns:svg="http://www.w3.org/2000/svg"
   xmlns:rdf="http://www.w3.org/1999/02/22-rdf-syntax-ns#"
   xmlns:cc="http://creativecommons.org/ns#"
   xmlns:dc="http://purl.org/dc/elements/1.1/">
  <title
     id="title836">Air Line Furries Association Logo (Black and White)</title>
  <sodipodi:namedview
     id="namedview7"
     pagecolor="#ffffff"
     bordercolor="#666666"
     borderopacity="1.0"
     inkscape:pageshadow="2"
     inkscape:pageopacity="0.0"
     inkscape:pagecheckerboard="true"
     inkscape:document-units="mm"
     showgrid="false"
     width="1024mm"
     inkscape:zoom="0.23982898"
     inkscape:cx="1672.0248"
     inkscape:cy="2066.0556"
     inkscape:window-width="2250"
     inkscape:window-height="1430"
     inkscape:window-x="-6"
     inkscape:window-y="-6"
     inkscape:window-maximized="1"
     inkscape:current-layer="layer3"
     fit-margin-top="0"
     fit-margin-left="0"
     fit-margin-right="0"
     fit-margin-bottom="0" />
  <defs
     id="defs2" />
  <g
     inkscape:groupmode="layer"
     id="g2473"
     inkscape:label="Globe Grid"
     transform="translate(1.3502131,-0.62052059)">
    <path
       id="path2622"
       style="fill:none;fill-opacity:1;fill-rule:evenodd;stroke:#000000;stroke-width:39.9999;stroke-linecap:round;stroke-opacity:1"
       d="m 582.96573,1975.0398 c -0.15396,-11.7332 -0.23094,-23.4682 -0.23094,-35.2034 -10e-6,-506.109 142.97992,-991.4891 397.48582,-1349.36222 C 1234.7265,232.60107 1579.9106,31.550052 1939.8363,31.550056 c 265.1827,6e-6 499.8316,79.578464 721.3461,284.573584"
       transform="matrix(0.26458333,0,0,0.26458333,-1.3502131,0.62052059)"
       sodipodi:nodetypes="csssc" />
    <path
       id="path2718"
       style="fill:none;fill-opacity:1;fill-rule:evenodd;stroke:#000000;stroke-width:39.9999;stroke-linecap:round;stroke-opacity:1"
       d="M 1229.6433,1867.8642 A 710.69582,1913.6194 0 0 1 1939.8363,26.216987 710.69582,1913.6194 0 0 1 2506.2132,783.88053"
       transform="matrix(0.26458333,0,0,0.26458333,-1.3502131,0.62052059)" />
    <path
       id="path2814"
       style="fill:none;fill-opacity:1;stroke:#000000;stroke-width:39.9999;stroke-linecap:round;stroke-linejoin:miter;stroke-miterlimit:4;stroke-dasharray:none;stroke-opacity:1"
       d="M 1934.25,31.172722 V 1482.5436"
       transform="matrix(0.26458333,0,0,0.26458333,-1.3502131,0.62052059)" />
    <path
       id="path3086"
       style="fill:none;fill-opacity:1;stroke:#000000;stroke-width:10.5833;stroke-linecap:round;stroke-linejoin:miter;stroke-miterlimit:4;stroke-dasharray:none;stroke-opacity:1"
       d="M 70.334723,269.99053 H 583.6963" />
    <path
       id="path3182"
       style="fill:none;fill-opacity:1;stroke:#000000;stroke-width:10.5833;stroke-linecap:round;stroke-linejoin:miter;stroke-miterlimit:4;stroke-dasharray:none;stroke-opacity:1"
       d="m 171.88171,139.92212 h 521.2038" />
    <path
       id="path2990"
       style="fill:none;fill-opacity:1;stroke:#000000;stroke-width:10.5833;stroke-linecap:round;stroke-linejoin:miter;stroke-miterlimit:4;stroke-dasharray:none;stroke-opacity:1"
       d="M 23.328464,395.13218 H 510.05122" />
  </g>
  <g
     inkscape:groupmode="layer"
     id="layer3"
     inkscape:label="ALFA Text"
     transform="translate(1.3502131,-0.62052059)">
    <g
       aria-label="alfa"
       id="text3057"
       style="font-size:10.5833px;line-height:1.25;stroke-width:0.264583">
      <path
         d="m 682.56352,797.24376 q 0,1.23472 -0.88194,1.94027 -0.88195,0.70556 -2.82222,0.97014 -1.85208,0.35278 -5.55625,0.35278 -3.96874,0 -5.82082,-0.35278 -1.76389,-0.26458 -2.55764,-0.97014 -0.70555,-0.70555 -0.70555,-1.94027 v -6.2618 q -4.85069,5.20347 -11.11249,8.11388 -6.1736,2.91041 -13.75831,2.91041 -6.2618,0 -11.55346,-1.67569 -5.20347,-1.5875 -9.08402,-4.76249 -3.79235,-3.26319 -5.90902,-8.02569 -2.11666,-4.76249 -2.11666,-11.11248 0,-6.87916 2.64583,-11.90624 2.73402,-5.11527 8.02568,-8.37846 5.37986,-3.35138 13.31735,-4.93888 7.93749,-1.5875 18.43261,-1.5875 h 7.67291 v -4.76249 q 0,-3.70417 -0.79375,-6.43819 -0.70556,-2.82222 -2.46944,-4.6743 -1.67569,-1.85208 -4.58611,-2.73403 -2.82222,-0.88194 -7.05554,-0.88194 -5.55625,0 -9.96596,1.23472 -4.32153,1.23472 -7.67291,2.73403 -3.35138,1.4993 -5.64444,2.73402 -2.20486,1.23472 -3.61597,1.23472 -0.97013,0 -1.76388,-0.61736 -0.70556,-0.61736 -1.23472,-1.76389 -0.44097,-1.14652 -0.70556,-2.82221 -0.26458,-1.6757 -0.26458,-3.70417 0,-2.73402 0.44097,-4.32152 0.44097,-1.5875 1.67569,-2.82222 1.23472,-1.32291 4.32153,-2.82222 3.0868,-1.58749 7.23193,-2.91041 4.14514,-1.32291 8.99582,-2.11666 4.93889,-0.88195 10.14235,-0.88195 9.26041,0 15.78679,1.85208 6.61457,1.76389 10.8479,5.55625 4.23333,3.70416 6.1736,9.61318 1.94028,5.90902 1.94028,14.0229 z m -21.784,-33.69024 h -8.46666 q -5.37985,0 -9.17221,0.79375 -3.79235,0.79375 -6.1736,2.38125 -2.38125,1.5875 -3.52777,3.88055 -1.05834,2.20486 -1.05834,5.11527 0,4.93888 3.08681,7.7611 3.17499,2.82222 8.73123,2.82222 4.6743,0 8.55485,-2.38125 3.96875,-2.38124 8.02569,-6.96735 z"
         style="font-weight:bold;font-size:180.622px;font-family:Calibri;-inkscape-font-specification:'Calibri, Bold'"
         id="path1003" />
      <path
         d="m 726.92527,796.97918 q 0,0.88194 -0.52916,1.58749 -0.52917,0.61736 -1.85208,1.05834 -1.23473,0.44097 -3.35139,0.61736 -2.11666,0.26458 -5.37985,0.26458 -3.26319,0 -5.37986,-0.26458 -2.11666,-0.17639 -3.43958,-0.61736 -1.23472,-0.44098 -1.76388,-1.05834 -0.52917,-0.70555 -0.52917,-1.58749 V 681.00363 q 0,-0.88195 0.52917,-1.5875 0.52916,-0.70555 1.76388,-1.14653 1.32292,-0.52916 3.43958,-0.79375 2.11667,-0.26458 5.37986,-0.26458 3.26319,0 5.37985,0.26458 2.11666,0.26459 3.35139,0.79375 1.32291,0.44098 1.85208,1.14653 0.52916,0.70555 0.52916,1.5875 z"
         style="font-weight:bold;font-size:180.622px;font-family:Calibri;-inkscape-font-specification:'Calibri, Bold'"
         id="path1005" />
      <path
         d="m 796.51059,688.32376 q 0,2.55763 -0.17639,4.14513 -0.17639,1.4993 -0.52916,2.38125 -0.35278,0.79375 -0.79375,1.14652 -0.44097,0.26459 -0.97014,0.26459 -0.61736,0 -1.41111,-0.26459 -0.70555,-0.35277 -1.85208,-0.70555 -1.05833,-0.35278 -2.55764,-0.61736 -1.4993,-0.35278 -3.52777,-0.35278 -2.38125,0 -4.14513,0.79375 -1.6757,0.70556 -2.82222,2.38125 -1.14653,1.5875 -1.67569,4.23333 -0.52917,2.55763 -0.52917,6.34999 v 7.23193 h 14.37568 q 0.79375,0 1.41111,0.44098 0.70555,0.44097 1.14652,1.4993 0.44097,0.97014 0.61736,2.73402 0.26459,1.76389 0.26459,4.32153 0,4.85068 -0.88195,6.96735 -0.88194,2.02847 -2.55763,2.02847 h -14.37568 v 63.67631 q 0,0.88194 -0.52917,1.58749 -0.52916,0.61736 -1.76388,1.05834 -1.23472,0.44097 -3.43958,0.61736 -2.20486,0.26458 -5.37986,0.26458 -3.17499,0 -5.37985,-0.26458 -2.11666,-0.17639 -3.43958,-0.61736 -1.23472,-0.44098 -1.76389,-1.05834 -0.44097,-0.70555 -0.44097,-1.58749 v -63.67631 h -9.87776 q -1.67569,0 -2.55764,-2.02847 -0.79375,-2.11667 -0.79375,-6.96735 0,-2.55764 0.17639,-4.32153 0.26458,-1.76388 0.61736,-2.73402 0.44097,-1.05833 1.05833,-1.4993 0.70556,-0.44098 1.5875,-0.44098 h 9.78957 v -6.61457 q 0,-8.02569 1.5875,-14.0229 1.5875,-6.08541 4.93888,-10.05415 3.43958,-4.05694 8.64305,-6.08541 5.29166,-2.02847 12.4354,-2.02847 3.43958,0 6.52638,0.61736 3.0868,0.52916 4.85069,1.23472 1.76388,0.61736 2.38124,1.23472 0.61737,0.52916 0.97014,1.67569 0.44097,1.05833 0.61736,2.82222 0.17639,1.67569 0.17639,4.23333 z"
         style="font-weight:bold;font-size:180.622px;font-family:Calibri;-inkscape-font-specification:'Calibri, Bold'"
         id="path1007" />
      <path
         d="m 870.32925,797.24376 q 0,1.23472 -0.88194,1.94027 -0.88195,0.70556 -2.82222,0.97014 -1.85208,0.35278 -5.55624,0.35278 -3.96875,0 -5.82083,-0.35278 -1.76389,-0.26458 -2.55764,-0.97014 -0.70555,-0.70555 -0.70555,-1.94027 v -6.2618 q -4.85069,5.20347 -11.11249,8.11388 -6.1736,2.91041 -13.75831,2.91041 -6.2618,0 -11.55346,-1.67569 -5.20347,-1.5875 -9.08402,-4.76249 -3.79235,-3.26319 -5.90902,-8.02569 -2.11666,-4.76249 -2.11666,-11.11248 0,-6.87916 2.64583,-11.90624 2.73402,-5.11527 8.02568,-8.37846 5.37986,-3.35138 13.31735,-4.93888 7.93749,-1.5875 18.43261,-1.5875 h 7.67291 v -4.76249 q 0,-3.70417 -0.79375,-6.43819 -0.70555,-2.82222 -2.46944,-4.6743 -1.67569,-1.85208 -4.58611,-2.73403 -2.82221,-0.88194 -7.05554,-0.88194 -5.55624,0 -9.96596,1.23472 -4.32152,1.23472 -7.67291,2.73403 -3.35138,1.4993 -5.64444,2.73402 -2.20485,1.23472 -3.61596,1.23472 -0.97014,0 -1.76389,-0.61736 -0.70555,-0.61736 -1.23472,-1.76389 -0.44097,-1.14652 -0.70556,-2.82221 -0.26458,-1.6757 -0.26458,-3.70417 0,-2.73402 0.44097,-4.32152 0.44097,-1.5875 1.6757,-2.82222 1.23472,-1.32291 4.32152,-2.82222 3.0868,-1.58749 7.23193,-2.91041 4.14514,-1.32291 8.99583,-2.11666 4.93888,-0.88195 10.14234,-0.88195 9.26041,0 15.78679,1.85208 6.61457,1.76389 10.8479,5.55625 4.23333,3.70416 6.17361,9.61318 1.94027,5.90902 1.94027,14.0229 z m -21.784,-33.69024 h -8.46666 q -5.37985,0 -9.17221,0.79375 -3.79235,0.79375 -6.1736,2.38125 -2.38125,1.5875 -3.52777,3.88055 -1.05833,2.20486 -1.05833,5.11527 0,4.93888 3.0868,7.7611 3.17499,2.82222 8.73124,2.82222 4.6743,0 8.55485,-2.38125 3.96874,-2.38124 8.02568,-6.96735 z"
         style="font-weight:bold;font-size:180.622px;font-family:Calibri;-inkscape-font-specification:'Calibri, Bold'"
         id="path1009" />
    </g>
  </g>
  <g
     inkscape:groupmode="layer"
     id="layer4"
     inkscape:label="Fox"
     transform="translate(1.3502131,-0.62052059)">
    <path
       id="path7548"
       style="fill:#000000;fill-opacity:1;stroke:none;stroke-width:81.617;stroke-linecap:butt;stroke-linejoin:miter;stroke-miterlimit:4;stroke-dasharray:none;stroke-opacity:1"
       d="m 2361.2734,790.21289 c -119.6649,188.68256 -74.1386,420.47851 -74.1386,420.47851 -759.6364,916.7577 -1718.98601,882.1044 -2271.214878,758.8438 3.896019,265.409 62.786875,527.1266 172.953128,768.623 454.72422,-48.2797 675.60081,-331.4836 734.68945,-420.9473 5.17417,-8.9866 10.71106,-18.0537 16.8125,-27.2402 0,0 -5.55708,10.1989 -16.8125,27.2402 -147.44933,256.0928 71.26172,429.4453 71.26172,429.4453 L 820.0957,2920.9688 c 120.15447,52.5545 282.6484,256.5839 282.6484,256.5839 90.8815,230.3838 237.6114,266.0274 237.6114,266.0274 96.9135,-75.3904 -230.9414,-555.7383 -230.9414,-555.7383 418.0534,-222.09 362.5,-477.6973 362.5,-477.6973 416.631,-29.0439 559.3652,-322.9863 559.3652,-322.9863 l 147.8574,292.9453 c -590.8699,444.593 -410.8711,631.9961 -410.8711,631.9961 56.1675,-186.7073 675.2071,-608.0527 675.2071,-608.0527 l -14.8321,-602.6699 c 12.1206,-297.3154 198.2103,-350.7689 198.2103,-350.7689 172.35,-5.3615 325.3992,-86.8975 325.3992,-86.8975 l 99.7206,-104.4372 v 0 C 2786.042,1195.1701 2566.5566,1133.174 2566.5566,1133.174 2533.6071,989.44763 2361.2734,790.21289 2361.2734,790.21289 Z"
       transform="scale(0.26458333)"
       sodipodi:nodetypes="cccccccccccccccccccccccc" />
  </g>
  <g
     inkscape:label="Circle Border"
     inkscape:groupmode="layer"
     id="g8617"
     style="display:inline"
     transform="translate(1.3502131,-0.62052059)">
    <circle
       style="fill:none;fill-opacity:1;fill-rule:evenodd;stroke:#000000;stroke-width:10.5833;stroke-miterlimit:4;stroke-dasharray:none;stroke-opacity:1"
       id="circle8615"
       cx="511.89816"
       cy="513.8689"
       r="507.95673" />
  </g>
  <metadata
     id="metadata834">
    <rdf:RDF>
      <cc:Work
         rdf:about="">
        <dc:title>Air Line Furries Association Logo (Black and White)</dc:title>
        <dc:date>2022-03-30</dc:date>
        <cc:license
           rdf:resource="http://creativecommons.org/licenses/by/4.0/" />
	<cc:attributionName>Air Line Furries Association, International</cc:attributionName>
	<cc:attributionURL>https://airlinefurries.com/#me</cc:attributionURL>
        <dc:identifier>https://airlinefurries.com/gear/alfa-logo/</dc:identifier>
      </cc:Work>
      <cc:License
         rdf:about="http://creativecommons.org/licenses/by/4.0/">
        <cc:permits
           rdf:resource="http://creativecommons.org/ns#Reproduction" />
        <cc:permits
           rdf:resource="http://creativecommons.org/ns#Distribution" />
        <cc:requires
           rdf:resource="http://creativecommons.org/ns#Notice" />
        <cc:requires
           rdf:resource="http://creativecommons.org/ns#Attribution" />
        <cc:permits
           rdf:resource="http://creativecommons.org/ns#DerivativeWorks" />
      </cc:License>
    </rdf:RDF>
  </metadata>
</svg>
