<?xml version="1.0" encoding="UTF-8" standalone="no"?>
<svg
   xmlns:dc="http://purl.org/dc/elements/1.1/"
   xmlns:cc="http://creativecommons.org/ns#"
   xmlns:rdf="http://www.w3.org/1999/02/22-rdf-syntax-ns#"
   xmlns:svg="http://www.w3.org/2000/svg"
   xmlns="http://www.w3.org/2000/svg"
   width="1401.955mm"
   height="1401.9548mm"
   viewBox="0 0 1401.9548 1401.9549"
   version="1.1"
   id="svg5">
  <title
     id="title857">Air Line Furries Association Logo (Color)</title>
  <defs
     id="defs2" />
  <g
     id="layer1"
     style="display:inline"
     transform="translate(189.07955,187.10864)">
    <path
       id="circle10760"
       style="fill:#000000;fill-opacity:1;fill-rule:evenodd;stroke:none;stroke-width:55.1996;stroke-miterlimit:4;stroke-dasharray:none;stroke-opacity:1"
       d="M 2649.5469 0 A 2649.3639 2649.3639 0 0 0 2081.1211 61.65625 A 2649.3639 2649.3639 0 0 0 61.65625 3217.6074 A 2649.3639 2649.3639 0 0 0 3217.6074 5237.0703 A 2649.3639 2649.3639 0 0 0 5237.0703 2081.1211 A 2649.3639 2649.3639 0 0 0 2671.1875 0.08984375 A 2649.3639 2649.3639 0 0 0 2649.5469 0 z M 2644.6367 183.76562 C 2689.45 183.74043 2722.266 191.24168 2743.0859 206.26953 C 2764.0578 221.29693 2774.5523 245.0656 2774.5703 277.57422 C 2774.5829 300.05681 2769.1249 318.51567 2758.1953 332.95312 C 2747.4177 347.3905 2731.0938 358.03281 2709.2227 364.88086 C 2721.225 367.60858 2731.9376 373.83185 2741.3613 383.54883 C 2750.9369 393.11382 2760.5912 407.69228 2770.3242 427.2832 L 2818.002 523.87109 L 2724.5781 523.92188 L 2683.0586 439.4082 C 2674.6941 422.39898 2666.1818 410.78208 2657.5195 404.55859 C 2649.0091 398.33502 2637.6135 395.22646 2623.334 395.23438 L 2598.498 395.24805 L 2598.5684 523.99219 L 2510.8418 524.04102 L 2510.6523 183.83984 L 2644.6367 183.76562 z M 2364.7363 195.46484 L 2424.7422 530.33203 L 2338.3887 545.80469 L 2312.9473 403.82812 L 2185.5508 426.65625 L 2210.9922 568.63281 L 2124.6387 584.10742 L 2064.6328 249.24023 L 2150.9863 233.76562 L 2173.8555 361.38867 L 2301.252 338.56055 L 2278.3828 210.9375 L 2364.7363 195.46484 z M 3041.6172 212.44531 C 3055.33 212.39307 3069.7355 213.72236 3084.832 216.43359 C 3138.6583 226.10039 3178.0554 249.07314 3203.0254 285.35156 C 3227.9954 321.63001 3235.6067 366.90684 3225.8594 421.18164 C 3216.1389 475.30692 3193.2616 515.03079 3157.2285 540.35352 C 3121.1954 565.67623 3076.2676 573.50469 3022.4414 563.83789 C 2968.7647 554.19794 2929.3656 531.2252 2904.2461 494.91992 C 2879.2761 458.64149 2871.6506 413.43973 2881.3711 359.31445 C 2891.1185 305.03965 2914.0099 265.2407 2950.043 239.91797 C 2976.0492 221.73658 3006.5734 212.57882 3041.6172 212.44531 z M 2635.3301 247.34375 L 2598.416 247.36328 L 2598.4629 334.63477 L 2635.377 334.61719 C 2653.758 334.60711 2666.8975 331.18027 2674.793 324.33984 C 2682.8404 317.49945 2686.8602 306.25604 2686.8516 290.60938 C 2686.844 275.11462 2682.8118 264.02917 2674.7559 257.34961 C 2666.8529 250.66997 2653.7111 247.33357 2635.3301 247.34375 z M 1965.2051 275.41992 L 1987.5977 337.83203 L 1881.4316 375.92188 L 1973.9277 633.72461 L 1891.3535 663.35156 L 1798.8574 405.54883 L 1692.4766 443.7168 L 1670.084 381.30273 L 1965.2051 275.41992 z M 3056.9219 277.45312 C 3037.7853 277.44527 3021.1887 284.01556 3007.1309 297.16602 C 2989.1369 313.99862 2976.9699 340.05765 2970.6328 375.34375 C 2964.3225 410.48033 2966.6751 439.07136 2977.6875 461.11328 C 2988.6999 483.1552 3007.3627 496.53768 3033.6777 501.26367 C 3060.1423 506.01652 3082.3713 499.97712 3100.3652 483.14453 C 3118.3592 466.31194 3130.512 440.32798 3136.8223 405.19141 C 3143.1594 369.90531 3140.821 341.24115 3129.8086 319.19922 C 3118.7962 297.15729 3100.0583 283.75869 3073.5938 279.00586 C 3067.8373 277.97205 3062.2801 277.45533 3056.9219 277.45312 z M 3376.6895 290.36914 L 3513.373 340.54883 C 3554.0149 355.46965 3581.8503 375.96487 3596.877 402.0332 C 3612.0986 428.01128 3613.5828 457.68563 3601.332 491.05469 C 3589.0289 524.56635 3568.6449 546.37223 3540.1777 556.47266 C 3511.9055 566.48284 3477.4484 564.0263 3436.8066 549.10547 L 3382.4746 529.16016 L 3341.7969 639.96094 L 3259.4434 609.72852 L 3376.6895 290.36914 z M 3437.1328 380.28125 L 3404.3848 469.48047 L 3449.9473 486.20703 C 3465.9188 492.07065 3479.6675 492.74916 3491.1934 488.24219 C 3502.7716 483.59261 3511.1767 474.13723 3516.4121 459.87695 C 3521.6475 445.61667 3521.3306 433.04062 3515.459 422.14648 C 3509.5873 411.25235 3498.6649 402.87339 3482.6934 397.00977 L 3437.1328 380.28125 z M 1576.9336 424.20898 L 1743.4727 720.85938 L 1658.0332 768.82422 L 1435.9199 625.92969 L 1550.1426 829.39453 L 1477.6191 870.10742 L 1311.0801 573.45703 L 1396.5195 525.49219 L 1618.6328 668.38672 L 1504.4102 464.92188 L 1576.9336 424.20898 z M 3789.3066 482.10742 C 3820.8704 481.73927 3853.6015 491.3956 3887.5 511.07617 C 3934.7945 538.53411 3963.986 573.57478 3975.0742 616.19727 C 3986.1624 658.81975 3977.8645 703.97541 3950.1777 751.66406 C 3922.5673 799.22135 3887.5045 828.75237 3844.9922 840.25586 C 3802.4799 851.75935 3757.5777 843.78216 3710.2832 816.32422 C 3663.12 788.94255 3633.9285 753.90188 3622.709 711.20312 C 3611.6208 668.58064 3619.8817 623.49088 3647.4922 575.93359 C 3675.1789 528.24493 3710.2787 498.64802 3752.791 487.14453 C 3764.7845 483.93063 3776.9556 482.25148 3789.3066 482.10742 z M 3814.6406 554.36328 C 3805.3591 554.48279 3796.1152 556.50883 3786.9102 560.44141 C 3764.2515 570.1216 3743.9221 590.46455 3725.9219 621.46875 C 3707.9979 652.34158 3700.4495 680.01522 3703.2773 704.49219 C 3706.1052 728.96916 3719.0813 747.91987 3742.2031 761.34375 C 3765.4563 774.8439 3788.4117 776.75441 3811.0703 767.07422 C 3833.7289 757.39402 3854.0194 737.11696 3871.9434 706.24414 C 3889.9436 675.23994 3897.531 647.50041 3894.7031 623.02344 C 3891.8752 598.54646 3878.8332 579.5568 3855.5801 566.05664 C 3841.8515 558.08621 3828.2059 554.18862 3814.6406 554.36328 z M 4147.0156 683.16211 L 4230.291 757.53711 L 4166.793 944.93359 L 4346.1953 861.05859 L 4429.2988 935.2832 L 4202.6777 1189.0137 L 4140.8164 1133.7637 L 4306.5703 948.17969 L 4125.918 1032.7734 L 4084.4512 995.73633 L 4148.1797 806.71289 L 3982.4258 992.29688 L 3920.3945 936.89258 L 4147.0156 683.16211 z M 1124.9102 711.61328 L 1438.4277 894.1543 L 1370.3496 950.20508 L 1314.418 915.97266 L 1208.5195 1003.1641 L 1231.2031 1064.7695 L 1163.125 1120.8223 L 1044.166 778.0918 L 1124.9102 711.61328 z M 2647.5859 729.52734 A 1919.8364 1919.8364 0 0 1 2649.3633 729.52734 A 1919.8364 1919.8364 0 0 1 4569.2012 2649.3633 A 1919.8364 1919.8364 0 0 1 2649.3633 4569.2012 A 1919.8364 1919.8364 0 0 1 729.52734 2649.3633 A 1919.8364 1919.8364 0 0 1 2647.5859 729.52734 z M 1135.3184 806.34961 L 1185.2891 940.53125 L 1257.2363 881.29297 L 1135.3184 806.34961 z M 747.15625 1075.1797 L 1022.4062 1275.1152 L 964.82422 1354.3906 L 703.32227 1317.3691 L 892.10742 1454.498 L 843.22852 1521.791 L 567.97852 1321.8555 L 625.56055 1242.5801 L 887.0625 1279.6016 L 698.27734 1142.4727 L 747.15625 1075.1797 z M 4494.7539 1097.0781 C 4501.5827 1097.0956 4508.4024 1097.5904 4515.2148 1098.5625 C 4558.9049 1104.9057 4597.0082 1129.9679 4629.5234 1173.75 C 4662.1292 1217.6541 4675.1091 1261.3733 4668.4629 1304.9102 C 4661.8167 1348.4469 4636.358 1386.6556 4592.0879 1419.5332 C 4547.94 1452.3202 4504.0665 1465.6021 4460.4668 1459.3809 C 4416.8673 1453.1597 4378.7641 1428.0975 4346.1582 1384.1934 C 4313.6429 1340.4112 4300.6631 1296.69 4307.2188 1253.0312 C 4313.865 1209.4945 4339.2621 1171.3339 4383.4102 1138.5469 C 4420.7629 1110.8064 4457.8783 1096.9836 4494.7539 1097.0781 z M 4517.6152 1179.375 C 4492.9755 1179.3196 4466.264 1189.9785 4437.4824 1211.3535 C 4408.8228 1232.6379 4390.9594 1255.0815 4383.8906 1278.6855 C 4376.8218 1302.2896 4381.2566 1324.8248 4397.1973 1346.2891 C 4413.2285 1367.8753 4433.5634 1378.6966 4458.2031 1378.752 C 4482.8429 1378.8074 4509.4927 1368.1926 4538.1523 1346.9082 C 4566.934 1325.5333 4584.859 1303.0435 4591.9277 1279.4395 C 4598.9965 1255.8354 4594.5154 1233.2405 4578.4844 1211.6543 C 4562.5436 1190.1901 4542.255 1179.4304 4517.6152 1179.375 z M 4792.6914 1428.498 L 4852.2363 1548.5234 C 4872.1522 1588.668 4879.9984 1621.4034 4875.7754 1646.7305 C 4871.6197 1672.1936 4854.9811 1692.1482 4825.8594 1706.5957 C 4805.719 1716.5874 4786.7536 1719.8922 4768.9648 1716.5078 C 4751.2436 1713.2595 4734.4608 1703.3548 4718.6152 1686.7969 C 4721.4993 1698.7627 4720.6798 1711.1249 4716.1562 1723.8828 C 4711.8362 1736.7093 4703.0584 1751.8317 4689.8242 1769.25 L 4624.4414 1854.8496 L 4582.9219 1771.1582 L 4640.2207 1696.4375 C 4651.749 1681.3916 4658.3784 1668.6068 4660.1094 1658.082 C 4661.9082 1647.6934 4659.6351 1636.1024 4653.2891 1623.3105 L 4642.252 1601.0605 L 4526.9199 1658.2773 L 4487.9316 1579.6895 L 4792.6914 1428.498 z M 565.19531 1483.8965 C 593.10477 1483.7274 622.63136 1491.0235 653.77539 1505.7832 C 703.46856 1529.3336 735.81926 1561.8113 750.82617 1603.2168 C 765.83308 1644.6223 761.62541 1690.0345 738.20508 1739.4531 C 714.8498 1788.7345 682.36501 1820.7448 640.75 1835.4844 C 599.20005 1850.0866 553.57793 1845.6129 503.88477 1822.0625 C 454.05432 1798.447 421.63582 1765.9368 406.62891 1724.5312 C 391.68705 1682.9884 395.89472 1637.5763 419.25 1588.2949 C 442.67033 1538.8763 475.15513 1506.8659 516.70508 1492.2637 C 532.28631 1486.7878 548.44964 1483.998 565.19531 1483.8965 z M 4774.7285 1535.3379 L 4696.5488 1574.125 L 4712.9531 1607.1934 C 4721.1222 1623.6595 4730.0239 1633.9109 4739.6582 1637.9492 C 4749.36 1642.1236 4761.2198 1640.733 4775.2363 1633.7793 C 4789.117 1626.8931 4797.2623 1618.3587 4799.6719 1608.1758 C 4802.1487 1598.1289 4799.3016 1584.8723 4791.1328 1568.4062 L 4774.7285 1535.3379 z M 549.09375 1570.0391 C 542.53969 1569.9904 536.2441 1570.5726 530.20508 1571.7871 C 506.04899 1576.6453 488.21226 1591.224 476.69727 1615.5215 C 465.24733 1639.6817 465.29104 1662.647 476.82617 1684.4199 C 488.36131 1706.1928 510.32796 1724.7561 542.72461 1740.1094 C 574.98399 1755.3976 603.19156 1760.6121 627.34766 1755.7539 C 651.50375 1750.8957 669.30592 1736.3868 680.75586 1712.2266 C 692.27086 1687.9291 692.26169 1664.894 680.72656 1643.1211 C 669.19143 1621.3482 647.29258 1602.8176 615.0332 1587.5293 C 590.73572 1576.0143 568.75592 1570.1851 549.09375 1570.0391 z M 4966.1797 1806.2324 L 5008.541 1945.5391 C 5021.1369 1986.9605 5021.5644 2021.5223 5009.8242 2049.2266 C 4998.2735 2077.032 4975.4936 2096.1055 4941.4844 2106.4473 C 4907.3298 2116.8332 4877.6417 2113.7157 4852.4219 2097.0918 C 4827.3913 2080.569 4808.5781 2051.5953 4795.9824 2010.1738 L 4779.1445 1954.8008 L 4666.2168 1989.1406 L 4640.6934 1905.209 L 4966.1797 1806.2324 z M 4930.877 1908.6602 L 4839.9688 1936.3047 L 4854.0898 1982.7402 C 4859.0398 1999.0181 4866.786 2010.3979 4877.3301 2016.877 C 4888.0196 2023.3118 4900.632 2024.318 4915.166 2019.8984 C 4929.6998 2015.4789 4939.5431 2007.6428 4944.6953 1996.3906 C 4949.8476 1985.1384 4949.9468 1971.3736 4944.9961 1955.0957 L 4930.877 1908.6602 z M 238.7207 2188.4961 L 310.00586 2198.6621 C 299.09688 2215.9804 290.28235 2233.1359 283.5625 2250.1309 C 276.84265 2267.1259 272.36692 2283.4436 270.13672 2299.084 C 267.17742 2319.8376 267.84705 2335.5857 272.14648 2346.3262 C 276.44592 2357.0667 284.61151 2363.2942 296.64258 2365.0098 C 305.66587 2366.2964 313.20693 2363.9954 319.26367 2358.1074 C 325.19146 2352.0476 331.21375 2340.4772 337.33203 2323.3965 L 350.05078 2287.4629 C 362.9098 2251.0884 378.13532 2226.0996 395.72656 2212.4961 C 413.3178 2198.8926 436.25044 2194.1072 464.52344 2198.1387 C 501.66934 2203.4354 527.76391 2218.433 542.80859 2243.1348 C 557.72433 2267.6648 561.9547 2302.5632 555.5 2347.8301 C 552.45493 2369.1852 547.36919 2390.3274 540.24219 2411.2539 C 533.11519 2432.1804 524.03319 2452.8283 512.99609 2473.1973 L 439.68164 2462.7422 C 454.17767 2442.8664 465.78473 2423.3469 474.50195 2404.1816 C 483.09023 2384.8445 488.71397 2365.8513 491.37305 2347.2031 C 494.07501 2328.2542 492.98697 2313.2911 488.10742 2302.3145 C 483.22788 2291.3378 474.92169 2285.0125 463.19141 2283.3398 C 452.66423 2281.8387 444.0508 2284.1412 437.34961 2290.2441 C 430.66987 2296.1967 423.61556 2309.0773 416.1875 2328.8867 L 403.95117 2361.4375 C 391.92904 2394.0951 376.90768 2417.1171 358.88672 2430.5059 C 340.8872 2443.7442 318.50153 2448.4557 291.73242 2444.6387 C 258.19584 2439.8566 233.94885 2425.3503 218.99023 2401.1211 C 204.0316 2376.8919 199.44639 2344.4759 205.23633 2303.8711 C 207.87396 2285.3733 212.01698 2266.5512 217.66211 2247.4082 C 223.15684 2228.2437 230.17559 2208.6066 238.7207 2188.4961 z M 5072.8555 2192.8672 L 5083.5723 2279.9395 L 4954.8887 2295.7773 L 4970.6992 2424.2344 L 5099.3828 2408.3965 L 5110.0996 2495.4668 L 4772.4453 2537.0254 L 4761.7285 2449.9551 L 4904.8867 2432.3359 L 4889.0762 2303.877 L 4745.918 2321.498 L 4735.2012 2234.4277 L 5072.8555 2192.8672 z M 397.42578 2558.9336 C 441.15168 2559.1717 474.35335 2570.312 497.0293 2592.3535 C 521.21698 2615.8645 533.97733 2652.3724 535.31055 2701.877 C 536.63968 2751.2296 525.86179 2788.2955 502.97461 2813.0742 C 480.08743 2837.853 444.57339 2850.8911 396.43555 2852.1875 L 192.57227 2857.6777 L 190.21094 2769.9805 L 394.07422 2764.4902 C 422.16728 2763.7336 442.16539 2758.6357 454.06836 2749.1973 C 465.81539 2739.611 471.40989 2724.4173 470.84961 2703.6133 C 470.28524 2682.6574 463.88055 2667.7843 451.63867 2658.9961 C 439.24085 2650.0602 418.99541 2645.9719 390.90234 2646.7285 L 187.03906 2652.2188 L 184.67578 2564.5215 L 388.54102 2559.0312 C 391.54963 2558.9502 394.51072 2558.9177 397.42578 2558.9336 z M 4770.0566 2623.1973 L 5110.2383 2626.7715 L 5109.3184 2714.4941 L 4769.1348 2710.9199 L 4770.0566 2623.1973 z M 4909.7031 2797.9473 C 4919.1528 2798.0292 4928.9164 2798.7399 4938.9961 2800.0801 C 4992.9053 2807.2477 5033.3378 2829.3285 5060.2949 2866.3203 C 5087.4024 2903.3321 5097.224 2949.9219 5089.7559 3006.0898 C 5087.2533 3024.9129 5082.7416 3042.7024 5076.2227 3059.459 C 5069.704 3076.2156 5061.2424 3092.024 5050.8379 3106.8848 L 4981.043 3097.6055 C 4994.1781 3082.9545 5004.3468 3068.1383 5011.5488 3053.1582 C 5018.7508 3038.1782 5023.5022 3022.0301 5025.8047 3004.7129 C 5029.9289 2973.6925 5023.2333 2947.9762 5005.7188 2927.5645 C 4988.2042 2907.1527 4961.9804 2894.6254 4927.0449 2889.9805 C 4892.2599 2885.3556 4863.7476 2890.6063 4841.5078 2905.7324 C 4819.2683 2920.8586 4806.0854 2943.9308 4801.9609 2974.9512 C 4799.6584 2992.2684 4800.0267 3009.098 4803.0645 3025.4395 C 4806.1022 3041.7809 4812.0461 3058.7384 4820.8965 3076.3125 L 4751.0996 3067.0332 C 4744.9395 3049.9701 4740.9039 3032.4989 4738.9902 3014.6211 C 4737.0763 2996.7433 4737.3705 2978.3933 4739.873 2959.5703 C 4747.3409 2903.4024 4768.9172 2860.9872 4804.6035 2832.3242 C 4833.7209 2809.0518 4868.7546 2797.5923 4909.7031 2797.9473 z M 469.06836 2942.7168 C 492.60466 2942.6584 512.41112 2949.218 528.48828 2962.3965 C 550.67799 2980.6123 566.21277 3012.148 575.09375 3057.002 C 579.28344 3078.1623 581.47807 3099.7944 581.67383 3121.9004 C 581.86958 3144.0064 580.1279 3166.496 576.44922 3189.3691 L 503.80273 3203.7539 C 510.90879 3180.2022 515.40547 3157.9406 517.29297 3136.9707 C 519.00194 3115.8813 518.02775 3096.0972 514.36914 3077.6191 C 510.65152 3058.8431 504.67498 3045.0828 496.43945 3036.3379 C 488.20393 3027.593 478.27369 3024.3724 466.65039 3026.6738 C 456.21923 3028.7392 448.85228 3033.7584 444.54688 3041.7344 C 440.21197 3049.5613 437.81525 3064.0517 437.35742 3085.2031 L 436.57422 3119.9688 C 436.03052 3154.7647 429.47081 3181.4609 416.89258 3200.0566 C 404.28484 3218.5034 384.71831 3230.3516 358.19336 3235.6035 C 324.96268 3242.1831 297.28109 3236.5135 275.15039 3218.5957 C 253.01969 3200.6779 237.9722 3171.6016 230.00586 3131.3672 C 226.37676 3113.0381 224.05901 3093.9074 223.05469 3073.9746 C 221.90135 3054.0714 222.03092 3033.2171 223.44336 3011.4121 L 294.07812 2997.4277 C 289.51132 3017.3796 286.86689 3036.485 286.14648 3054.7461 C 285.42611 3073.0072 286.60142 3089.887 289.66992 3105.3848 C 293.74161 3125.949 299.58145 3140.5888 307.19141 3149.3027 C 314.80136 3158.0166 324.56697 3161.1924 336.48828 3158.832 C 345.42928 3157.0618 351.78439 3152.3978 355.55273 3144.8379 C 359.14256 3137.1585 360.99872 3124.2466 361.12305 3106.1035 L 361.24219 3067.9844 C 361.3463 3029.404 367.44911 3000.7871 379.55078 2982.1309 C 391.65246 2963.4746 411.71144 2951.3731 439.72656 2945.8262 C 450.07856 2943.7765 459.8585 2942.7396 469.06836 2942.7168 z M 614.33789 3263.1699 L 649.48047 3354.6328 L 476.04492 3553.8164 L 693.85547 3470.1309 L 723.68555 3547.7676 L 406.11719 3669.7812 L 370.97461 3578.3184 L 544.4082 3379.1348 L 326.59961 3462.8203 L 296.76953 3385.1816 L 614.33789 3263.1699 z M 4691.1348 3293.0391 L 4760.2129 3319.7344 C 4741.6136 3335.8354 4725.9087 3352.241 4713.0996 3368.9512 C 4700.3777 3385.8578 4690.6221 3403.0956 4683.832 3420.666 C 4676.9326 3438.5198 4674.6239 3453.3432 4676.9062 3465.1367 C 4679.1888 3476.9303 4685.8559 3484.9633 4696.9082 3489.2344 C 4706.8269 3493.0674 4715.7391 3492.7654 4723.6426 3488.3281 C 4731.4911 3484.0326 4741.265 3473.0714 4752.9629 3455.4434 L 4772.2148 3426.4844 C 4791.2821 3397.3726 4811.1028 3378.3228 4831.6758 3369.3359 C 4852.1941 3360.4907 4875.0631 3360.9406 4900.2852 3370.6875 C 4931.8835 3382.8985 4952.2428 3402.4915 4961.3613 3429.4668 C 4970.4798 3456.4421 4967.6458 3489.0602 4952.8613 3527.3184 C 4946.126 3544.7471 4937.8536 3562.151 4928.043 3579.5312 C 4918.3739 3596.9662 4907.112 3614.5196 4894.2578 3632.1895 L 4827.0938 3606.2324 C 4841.6223 3591.8154 4854.073 3577.0844 4864.4473 3562.0391 C 4874.8213 3546.9937 4882.8558 3532.1037 4888.5508 3517.3672 C 4896.1073 3497.813 4899.0011 3482.3195 4897.2305 3470.8867 C 4895.4601 3459.4539 4888.9061 3451.5466 4877.5703 3447.166 C 4869.0686 3443.8805 4861.2038 3444.424 4853.9766 3448.7969 C 4846.8365 3453.3662 4838.364 3463.2845 4828.5566 3478.5488 L 4808.0723 3510.6953 C 4787.3526 3543.24 4766.8901 3564.1583 4746.6875 3573.4512 C 4726.4849 3582.744 4703.0649 3582.2437 4676.4258 3571.9492 C 4641.4266 3558.424 4619.379 3537.9337 4610.2832 3510.4785 C 4601.2741 3483.2198 4605.0099 3448.2641 4621.4922 3405.6133 C 4629.2677 3385.4923 4638.9843 3366.0401 4650.6406 3347.2559 C 4662.2967 3328.4717 4675.7944 3310.3996 4691.1348 3293.0391 z M 759.50195 3616.6172 L 882.55469 3824.7227 L 589.7168 3997.8789 L 469.21484 3794.0879 L 526.29102 3760.3398 L 602.14258 3888.6152 L 656.66992 3856.373 L 585.3418 3735.7461 L 642.41992 3701.9961 L 713.74609 3822.623 L 780.82617 3782.959 L 702.42383 3650.3672 L 759.50195 3616.6172 z M 4507.8027 3666.1582 L 4746.2344 3800.9434 L 4801.8535 3702.5566 L 4859.5762 3735.1875 L 4705.2793 4008.1348 L 4647.5566 3975.5039 L 4703.0625 3877.3145 L 4464.6309 3742.5293 L 4507.8027 3666.1582 z M 4425.3125 3814.4414 L 4617.5371 4122.1172 L 4553.6055 4204.8926 L 4207.3359 4096.6719 L 4261.2383 4026.8809 L 4323.3828 4047.8145 L 4407.2305 3939.25 L 4371.4102 3884.2324 L 4425.3125 3814.4414 z M 908.57617 3897.5898 C 925.26931 3904.6915 940.81692 3913.6259 955.2168 3924.3926 C 969.61668 3935.1593 982.85917 3947.8661 994.94531 3962.5117 C 1031.0104 4006.2143 1047.3976 4050.8916 1044.1055 4096.5449 C 1040.6962 4142.295 1018.076 4182.4292 976.24805 4216.9473 C 934.30289 4251.562 890.6068 4266.1533 845.1582 4260.7227 C 799.59244 4255.3887 758.77794 4230.8706 722.71289 4187.168 C 710.62675 4172.5223 700.66284 4157.109 692.82422 4140.9277 C 684.98559 4124.7464 679.16434 4107.7882 675.35938 4090.0508 L 729.66602 4045.2344 C 731.45869 4064.8294 735.39084 4082.3633 741.46289 4097.8359 C 747.53494 4113.3086 756.13075 4127.7819 767.25 4141.2559 C 787.16796 4165.3919 810.56432 4177.9922 837.43945 4179.0547 C 864.31458 4180.1172 891.34306 4169.4319 918.52539 4147 C 945.59056 4124.6648 961.15054 4100.2037 965.20703 4073.6152 C 969.26352 4047.0268 961.33398 4021.6634 941.41602 3997.5273 C 930.29676 3984.0534 917.71702 3972.8685 903.67773 3963.9707 C 889.63845 3955.073 873.17028 3947.8846 854.27148 3942.4062 L 908.57617 3897.5898 z M 4443.8145 3995.1426 L 4386.8477 4068.9023 L 4522.3828 4114.8457 L 4443.8145 3995.1426 z M 4144.0391 4149.6523 L 4333.0371 4347.8887 L 4414.8379 4269.8984 L 4460.5938 4317.8906 L 4233.6621 4534.248 L 4187.9062 4486.2559 L 4269.543 4408.4238 L 4080.5449 4210.1875 L 4144.0391 4149.6523 z M 3959.9551 4312.5059 L 4164.6367 4584.2441 L 4094.5645 4637.0254 L 3889.8828 4365.2871 L 3959.9551 4312.5059 z M 1287.1387 4321.3945 C 1305.9531 4321.1598 1324.7307 4324.4464 1343.4707 4331.2539 C 1368.3675 4340.4532 1401.4044 4360.1339 1442.5801 4390.2969 L 1517.2109 4444.9668 L 1316.1699 4719.4102 L 1241.5391 4664.7402 C 1199.8732 4634.2183 1171.0671 4608.5045 1155.123 4587.5977 C 1138.9668 4566.7238 1128.8044 4543.8377 1124.6348 4518.9395 C 1120.8342 4497.1363 1121.7341 4475.858 1127.334 4455.1035 C 1132.9338 4434.349 1143.229 4413.7387 1158.2207 4393.2734 C 1173.392 4372.563 1190.0723 4356.3474 1208.2617 4344.627 C 1226.3613 4333.0291 1246.3782 4325.754 1268.3125 4322.8027 C 1274.5923 4321.942 1280.8672 4321.4728 1287.1387 4321.3945 z M 1309.6699 4400.4336 C 1306.4072 4400.4533 1303.1694 4400.6637 1299.957 4401.0645 C 1274.1355 4404.1811 1251.2161 4419.4025 1231.1973 4446.7305 C 1211.2682 4473.9358 1203.6941 4500.2135 1208.4766 4525.5605 C 1213.2589 4550.9076 1230.1732 4574.2184 1259.2168 4595.4941 L 1284.584 4614.0762 L 1407.2559 4446.6172 L 1381.8887 4428.0332 C 1356.5828 4409.4956 1332.5089 4400.2959 1309.6699 4400.4336 z M 3835.2949 4429.0938 L 3872.4355 4493.1641 C 3847.8518 4494.0701 3825.3335 4497.0261 3804.8828 4502.0332 C 3784.377 4507.2479 3765.9763 4514.5783 3749.6797 4524.0254 C 3733.1202 4533.6246 3722.0373 4543.7371 3716.4316 4554.3613 C 3710.826 4564.9856 3710.9951 4575.4227 3716.9375 4585.6738 C 3722.2705 4594.8735 3729.4071 4600.2174 3738.3477 4601.707 C 3747.1568 4603.2728 3761.6415 4600.8481 3781.8008 4594.4297 L 3814.9453 4583.9062 C 3848.0412 4573.149 3875.4223 4570.7095 3897.0898 4576.5859 C 3918.626 4582.5384 3936.1734 4597.212 3949.7344 4620.6055 C 3966.7237 4649.9129 3970.3278 4677.9361 3960.5449 4704.6777 C 3950.7621 4731.4192 3928.1291 4755.0765 3892.6445 4775.6465 C 3876.4793 4785.0174 3859.1303 4793.4056 3840.5977 4800.8125 C 3822.1412 4808.3509 3802.368 4814.9837 3781.2812 4820.7109 L 3745.1699 4758.416 C 3765.5253 4756.2735 3784.4589 4752.5852 3801.9688 4747.3516 C 3819.4785 4742.1177 3835.0663 4735.5384 3848.7344 4727.6152 C 3866.8709 4717.1016 3878.8284 4706.8348 3884.6074 4696.8125 C 3890.3864 4686.7902 3890.2296 4676.5217 3884.1348 4666.0078 C 3879.5637 4658.1222 3873.0917 4653.6201 3864.7188 4652.5039 C 3856.2906 4651.5953 3843.4726 4654.0218 3826.2676 4659.7812 L 3790.166 4672.0176 C 3753.6321 4684.4167 3724.5802 4687.9118 3703.0098 4682.5059 C 3681.4393 4677.1001 3663.4927 4662.0437 3649.1699 4637.3359 C 3630.3522 4604.8741 3625.9947 4575.0937 3636.0957 4547.9922 C 3646.1414 4521.0983 3670.9433 4496.1857 3710.502 4473.2539 C 3729.1642 4462.4356 3748.9208 4453.3519 3769.7715 4446.0059 C 3790.6221 4438.6598 3812.4635 4433.0227 3835.2949 4429.0938 z M 1591.2227 4489.5586 L 1679.502 4532.0703 L 1689.7402 4795.9805 L 1790.9785 4585.7539 L 1865.9121 4621.8398 L 1718.3066 4928.3516 L 1630.0273 4885.8398 L 1619.7891 4621.9297 L 1518.5508 4832.1543 L 1443.6172 4796.0684 L 1591.2227 4489.5586 z M 3458.8145 4605.4707 L 3558.1465 4860.7168 L 3663.4727 4819.7285 L 3687.5195 4881.5215 L 3395.3242 4995.2305 L 3371.2773 4933.4375 L 3476.3906 4892.5312 L 3377.0605 4637.2852 L 3458.8145 4605.4707 z M 1908.084 4640.166 L 1993.0332 4663.8242 L 1997.0391 4729.2773 L 2129.1836 4766.0801 L 2166.666 4712.1816 L 2251.6172 4735.8398 L 2038.9531 5029.7617 L 1938.1973 5001.7012 L 1908.084 4640.166 z M 3226.6035 4686.0078 L 3312.4551 5015.1973 L 3227.5664 5037.3359 L 3141.7148 4708.1465 L 3226.6035 4686.0078 z M 2929.5938 4742.7012 C 2970.1977 4742.7825 3004.9412 4753.366 3033.8242 4774.4492 C 3070.8143 4801.5862 3092.8603 4842.0365 3099.9648 4895.8008 C 3107.0893 4949.7157 3096.3067 4994.5049 3067.6152 5030.168 C 3038.9436 5065.9818 2996.5216 5087.6004 2940.3477 5095.0234 C 2921.5226 5097.5111 2903.1712 5097.7916 2885.2949 5095.8633 C 2867.4187 5093.935 2849.9507 5089.8825 2832.8926 5083.709 L 2823.6699 5013.9062 C 2841.2369 5022.7708 2858.1883 5028.7285 2874.5273 5031.7793 C 2890.8664 5034.8299 2907.6966 5035.2103 2925.0156 5032.9219 C 2956.0393 5028.8223 2979.1236 5015.6593 2994.2676 4993.4316 C 3009.4115 4971.2042 3014.6736 4942.6209 3010.0566 4907.6816 C 3005.4596 4872.8929 2992.9622 4846.7341 2972.5645 4829.2031 C 2952.1667 4811.6722 2926.4573 4804.9552 2895.4336 4809.0547 C 2878.1146 4811.3433 2861.9624 4816.0833 2846.9766 4823.2734 C 2831.9908 4830.4634 2817.1654 4840.6189 2802.5039 4853.7422 L 2793.2812 4783.9395 C 2808.1503 4773.547 2823.9648 4765.0991 2840.7266 4758.5938 C 2857.4884 4752.0882 2875.2824 4747.5909 2894.1074 4745.1035 C 2906.3955 4743.4797 2918.2246 4742.6784 2929.5938 4742.7012 z M 2577.1523 4758.0391 C 2579.919 4758.0525 2582.7295 4758.104 2585.5859 4758.1914 C 2607.147 4758.8513 2628.7212 4761.562 2650.3086 4766.3262 C 2671.896 4771.0901 2693.424 4777.829 2714.8906 4786.541 L 2712.625 4860.5625 C 2691.2653 4848.3584 2670.5777 4838.9852 2650.5645 4832.4453 C 2630.3947 4826.0529 2610.8963 4822.5684 2592.0684 4821.9922 C 2572.9367 4821.4069 2558.1867 4824.147 2547.8184 4830.2129 C 2537.45 4836.2788 2532.0851 4845.2348 2531.7227 4857.0781 C 2531.3974 4867.7069 2534.6393 4876.0126 2541.4473 4881.9961 C 2548.1034 4887.9751 2561.6867 4893.5571 2582.1973 4898.7441 L 2615.9023 4907.2988 C 2649.6911 4915.6282 2674.2377 4928.0056 2689.541 4944.4316 C 2704.6924 4960.8534 2711.8545 4982.5783 2711.0273 5009.6055 C 2709.9911 5043.4655 2698.2622 5069.1713 2675.8398 5086.7227 C 2653.4175 5104.2743 2621.7073 5112.4228 2580.7109 5111.168 C 2562.0348 5110.5965 2542.8714 5108.5671 2523.2207 5105.0781 C 2503.5654 5101.7411 2483.2715 5096.9397 2462.3379 5090.6758 L 2464.541 5018.7051 C 2482.9616 5027.6278 2500.9881 5034.486 2518.623 5039.2812 C 2536.258 5044.0765 2552.9725 5046.7159 2568.7637 5047.1992 C 2589.7174 5047.8405 2605.2923 5045.43 2615.4902 5039.9668 C 2625.6881 5034.5036 2630.972 5025.6979 2631.3438 5013.5508 C 2631.6226 5004.4404 2628.5014 4997.2009 2621.9785 4991.834 C 2615.2991 4986.6142 2603.1321 4981.9104 2585.4785 4977.7227 L 2548.3574 4969.0645 C 2510.782 4960.3156 2484.2601 4947.9538 2468.791 4931.9785 C 2453.3219 4916.003 2446.0229 4893.7408 2446.8965 4865.1953 C 2448.0442 4827.6911 2460.0589 4800.0954 2482.9414 4782.4062 C 2504.2471 4765.9603 2535.6518 4757.8376 2577.1523 4758.0391 z M 2001.3965 4796.0117 L 2009.8633 4938.873 L 2091.1758 4821.0156 L 2001.3965 4796.0117 z "
       transform="matrix(0.26458333,0,0,0.26458333,-189.07955,-187.10864)" />
    <circle
       style="fill:#00ff00;fill-opacity:0;fill-rule:evenodd;stroke:none;stroke-width:13.5755;stroke-miterlimit:4;stroke-dasharray:none;stroke-opacity:1"
       id="circle905"
       cx="-378.8887"
       cy="618.50165"
       r="651.57227"
       transform="matrix(-0.97278135,0.23172495,0.23172495,0.97278135,0,0)" />
    <circle
       style="fill:#ff0000;fill-opacity:0;fill-rule:evenodd;stroke:none;stroke-width:11.6917;stroke-miterlimit:4;stroke-dasharray:none;stroke-opacity:1"
       id="circle10534"
       cx="-656.77924"
       cy="-307.80191"
       r="561.15173"
       transform="rotate(-160.00023)" />
  </g>
  <g
     id="g2473"
     transform="translate(189.07955,187.10864)" />
  <g
     id="layer2"
     transform="translate(187.72934,187.72916)" />
  <g
     id="layer3"
     transform="translate(189.07955,187.10864)" />
  <g
     id="layer4"
     transform="translate(189.07955,187.10864)">
    <g
       id="g13881">
      <path
         id="path2622"
         style="fill:none;fill-opacity:1;fill-rule:evenodd;stroke:#000000;stroke-width:10.5833;stroke-linecap:round;stroke-miterlimit:4;stroke-dasharray:none;stroke-opacity:1"
         d="m 152.88136,523.19458 c -0.0407,-3.09085 -0.0611,-6.18218 -0.0611,-9.27357 0,-133.32335 37.83167,-261.18614 105.17249,-355.45999 67.34083,-94.273841 158.67458,-147.236338 253.9089,-147.236337 70.16584,2e-6 132.25261,20.963207 190.8641,74.964691" />
      <path
         id="path2718"
         style="fill:none;fill-opacity:1;fill-rule:evenodd;stroke:#000000;stroke-width:10.5833;stroke-linecap:round;stroke-miterlimit:4;stroke-dasharray:none;stroke-opacity:1"
         d="M 323.97377,494.84539 A 188.05957,502.59849 0 0 1 511.90029,11.149876 188.05957,502.59849 0 0 1 661.77116,210.1448" />
      <path
         id="path2814"
         style="fill:none;fill-opacity:1;stroke:#000000;stroke-width:10.5833;stroke-linecap:round;stroke-linejoin:miter;stroke-miterlimit:4;stroke-dasharray:none;stroke-opacity:1"
         d="M 510.42009,11.289389 V 392.87684" />
      <path
         id="path3086"
         style="fill:none;fill-opacity:1;stroke:#000000;stroke-width:10.5833;stroke-linecap:round;stroke-linejoin:miter;stroke-miterlimit:4;stroke-dasharray:none;stroke-opacity:1"
         d="M 72.415629,269.99053 H 583.6963" />
      <path
         id="path3182"
         style="fill:none;fill-opacity:1;stroke:#000000;stroke-width:10.5833;stroke-linecap:round;stroke-linejoin:miter;stroke-miterlimit:4;stroke-dasharray:none;stroke-opacity:1"
         d="m 175.97811,139.92212 h 517.1074" />
      <path
         id="path2990"
         style="fill:none;fill-opacity:1;stroke:#000000;stroke-width:10.5833;stroke-linecap:round;stroke-linejoin:miter;stroke-miterlimit:4;stroke-dasharray:none;stroke-opacity:1"
         d="M 23.470338,395.13218 H 510.05122" />
      <path
         style="fill:#000000;fill-opacity:1;stroke:none;stroke-width:0.264999px;stroke-linecap:butt;stroke-linejoin:miter;stroke-opacity:1"
         d="m 23.810966,400.39748 h -6.99906 l 2.569275,-10.57605 h 4.961359 z"
         id="path2086" />
      <path
         style="fill:#000000;fill-opacity:1;stroke:none;stroke-width:0.266816px;stroke-linecap:butt;stroke-linejoin:miter;stroke-opacity:1"
         d="m 72.804388,275.2672 h -9.302549 l 5.758722,-10.6315 h 3.455231 z"
         id="path2239" />
      <path
         style="fill:#000000;fill-opacity:1;stroke:none;stroke-width:0.267925px;stroke-linecap:butt;stroke-linejoin:miter;stroke-opacity:1"
         d="m 176.10698,145.2973 -13.64374,-0.0886 11.51745,-10.63149 h 2.48067 z"
         id="path2439" />
      <g
         aria-label="alfa"
         id="text3057"
         style="font-size:10.5833px;line-height:1.25;fill:#000000;fill-opacity:1;stroke-width:0.264583">
        <path
           d="m 682.56352,797.24376 q 0,1.23472 -0.88194,1.94027 -0.88195,0.70556 -2.82222,0.97014 -1.85208,0.35278 -5.55625,0.35278 -3.96874,0 -5.82082,-0.35278 -1.76389,-0.26458 -2.55764,-0.97014 -0.70555,-0.70555 -0.70555,-1.94027 v -6.2618 q -4.85069,5.20347 -11.11249,8.11388 -6.1736,2.91041 -13.75831,2.91041 -6.2618,0 -11.55346,-1.67569 -5.20347,-1.5875 -9.08402,-4.76249 -3.79235,-3.26319 -5.90902,-8.02569 -2.11666,-4.76249 -2.11666,-11.11248 0,-6.87916 2.64583,-11.90624 2.73402,-5.11527 8.02568,-8.37846 5.37986,-3.35138 13.31735,-4.93888 7.93749,-1.5875 18.43261,-1.5875 h 7.67291 v -4.76249 q 0,-3.70417 -0.79375,-6.43819 -0.70556,-2.82222 -2.46944,-4.6743 -1.67569,-1.85208 -4.58611,-2.73403 -2.82222,-0.88194 -7.05554,-0.88194 -5.55625,0 -9.96596,1.23472 -4.32153,1.23472 -7.67291,2.73403 -3.35138,1.4993 -5.64444,2.73402 -2.20486,1.23472 -3.61597,1.23472 -0.97013,0 -1.76388,-0.61736 -0.70556,-0.61736 -1.23472,-1.76389 -0.44097,-1.14652 -0.70556,-2.82221 -0.26458,-1.6757 -0.26458,-3.70417 0,-2.73402 0.44097,-4.32152 0.44097,-1.5875 1.67569,-2.82222 1.23472,-1.32291 4.32153,-2.82222 3.0868,-1.58749 7.23193,-2.91041 4.14514,-1.32291 8.99582,-2.11666 4.93889,-0.88195 10.14235,-0.88195 9.26041,0 15.78679,1.85208 6.61457,1.76389 10.8479,5.55625 4.23333,3.70416 6.1736,9.61318 1.94028,5.90902 1.94028,14.0229 z m -21.784,-33.69024 h -8.46666 q -5.37985,0 -9.17221,0.79375 -3.79235,0.79375 -6.1736,2.38125 -2.38125,1.5875 -3.52777,3.88055 -1.05834,2.20486 -1.05834,5.11527 0,4.93888 3.08681,7.7611 3.17499,2.82222 8.73123,2.82222 4.6743,0 8.55485,-2.38125 3.96875,-2.38124 8.02569,-6.96735 z"
           style="font-weight:bold;font-size:180.622px;font-family:Calibri;-inkscape-font-specification:'Calibri, Bold';fill:#000000;fill-opacity:1"
           id="path857" />
        <path
           d="m 726.92527,796.97918 q 0,0.88194 -0.52916,1.58749 -0.52917,0.61736 -1.85208,1.05834 -1.23473,0.44097 -3.35139,0.61736 -2.11666,0.26458 -5.37985,0.26458 -3.26319,0 -5.37986,-0.26458 -2.11666,-0.17639 -3.43958,-0.61736 -1.23472,-0.44098 -1.76388,-1.05834 -0.52917,-0.70555 -0.52917,-1.58749 V 681.00363 q 0,-0.88195 0.52917,-1.5875 0.52916,-0.70555 1.76388,-1.14653 1.32292,-0.52916 3.43958,-0.79375 2.11667,-0.26458 5.37986,-0.26458 3.26319,0 5.37985,0.26458 2.11666,0.26459 3.35139,0.79375 1.32291,0.44098 1.85208,1.14653 0.52916,0.70555 0.52916,1.5875 z"
           style="font-weight:bold;font-size:180.622px;font-family:Calibri;-inkscape-font-specification:'Calibri, Bold';fill:#000000;fill-opacity:1"
           id="path859" />
        <path
           d="m 796.51059,688.32376 q 0,2.55763 -0.17639,4.14513 -0.17639,1.4993 -0.52916,2.38125 -0.35278,0.79375 -0.79375,1.14652 -0.44097,0.26459 -0.97014,0.26459 -0.61736,0 -1.41111,-0.26459 -0.70555,-0.35277 -1.85208,-0.70555 -1.05833,-0.35278 -2.55764,-0.61736 -1.4993,-0.35278 -3.52777,-0.35278 -2.38125,0 -4.14513,0.79375 -1.6757,0.70556 -2.82222,2.38125 -1.14653,1.5875 -1.67569,4.23333 -0.52917,2.55763 -0.52917,6.34999 v 7.23193 h 14.37568 q 0.79375,0 1.41111,0.44098 0.70555,0.44097 1.14652,1.4993 0.44097,0.97014 0.61736,2.73402 0.26459,1.76389 0.26459,4.32153 0,4.85068 -0.88195,6.96735 -0.88194,2.02847 -2.55763,2.02847 h -14.37568 v 63.67631 q 0,0.88194 -0.52917,1.58749 -0.52916,0.61736 -1.76388,1.05834 -1.23472,0.44097 -3.43958,0.61736 -2.20486,0.26458 -5.37986,0.26458 -3.17499,0 -5.37985,-0.26458 -2.11666,-0.17639 -3.43958,-0.61736 -1.23472,-0.44098 -1.76389,-1.05834 -0.44097,-0.70555 -0.44097,-1.58749 v -63.67631 h -9.87776 q -1.67569,0 -2.55764,-2.02847 -0.79375,-2.11667 -0.79375,-6.96735 0,-2.55764 0.17639,-4.32153 0.26458,-1.76388 0.61736,-2.73402 0.44097,-1.05833 1.05833,-1.4993 0.70556,-0.44098 1.5875,-0.44098 h 9.78957 v -6.61457 q 0,-8.02569 1.5875,-14.0229 1.5875,-6.08541 4.93888,-10.05415 3.43958,-4.05694 8.64305,-6.08541 5.29166,-2.02847 12.4354,-2.02847 3.43958,0 6.52638,0.61736 3.0868,0.52916 4.85069,1.23472 1.76388,0.61736 2.38124,1.23472 0.61737,0.52916 0.97014,1.67569 0.44097,1.05833 0.61736,2.82222 0.17639,1.67569 0.17639,4.23333 z"
           style="font-weight:bold;font-size:180.622px;font-family:Calibri;-inkscape-font-specification:'Calibri, Bold';fill:#000000;fill-opacity:1"
           id="path861" />
        <path
           d="m 870.32925,797.24376 q 0,1.23472 -0.88194,1.94027 -0.88195,0.70556 -2.82222,0.97014 -1.85208,0.35278 -5.55624,0.35278 -3.96875,0 -5.82083,-0.35278 -1.76389,-0.26458 -2.55764,-0.97014 -0.70555,-0.70555 -0.70555,-1.94027 v -6.2618 q -4.85069,5.20347 -11.11249,8.11388 -6.1736,2.91041 -13.75831,2.91041 -6.2618,0 -11.55346,-1.67569 -5.20347,-1.5875 -9.08402,-4.76249 -3.79235,-3.26319 -5.90902,-8.02569 -2.11666,-4.76249 -2.11666,-11.11248 0,-6.87916 2.64583,-11.90624 2.73402,-5.11527 8.02568,-8.37846 5.37986,-3.35138 13.31735,-4.93888 7.93749,-1.5875 18.43261,-1.5875 h 7.67291 v -4.76249 q 0,-3.70417 -0.79375,-6.43819 -0.70555,-2.82222 -2.46944,-4.6743 -1.67569,-1.85208 -4.58611,-2.73403 -2.82221,-0.88194 -7.05554,-0.88194 -5.55624,0 -9.96596,1.23472 -4.32152,1.23472 -7.67291,2.73403 -3.35138,1.4993 -5.64444,2.73402 -2.20485,1.23472 -3.61596,1.23472 -0.97014,0 -1.76389,-0.61736 -0.70555,-0.61736 -1.23472,-1.76389 -0.44097,-1.14652 -0.70556,-2.82221 -0.26458,-1.6757 -0.26458,-3.70417 0,-2.73402 0.44097,-4.32152 0.44097,-1.5875 1.6757,-2.82222 1.23472,-1.32291 4.32152,-2.82222 3.0868,-1.58749 7.23193,-2.91041 4.14514,-1.32291 8.99583,-2.11666 4.93888,-0.88195 10.14234,-0.88195 9.26041,0 15.78679,1.85208 6.61457,1.76389 10.8479,5.55625 4.23333,3.70416 6.17361,9.61318 1.94027,5.90902 1.94027,14.0229 z m -21.784,-33.69024 h -8.46666 q -5.37985,0 -9.17221,0.79375 -3.79235,0.79375 -6.1736,2.38125 -2.38125,1.5875 -3.52777,3.88055 -1.05833,2.20486 -1.05833,5.11527 0,4.93888 3.0868,7.7611 3.17499,2.82222 8.73124,2.82222 4.6743,0 8.55485,-2.38125 3.96874,-2.38124 8.02568,-6.96735 z"
           style="font-weight:bold;font-size:180.622px;font-family:Calibri;-inkscape-font-specification:'Calibri, Bold';fill:#000000;fill-opacity:1"
           id="path863" />
      </g>
      <path
         id="path7548"
         style="fill:#000000;fill-opacity:1;stroke:none;stroke-width:21.5945;stroke-linecap:butt;stroke-linejoin:miter;stroke-miterlimit:4;stroke-dasharray:none;stroke-opacity:1"
         d="m 624.75358,209.07716 c -31.66134,49.92226 -19.61584,111.2516 -19.61584,111.2516 C 404.15061,562.88757 150.3227,553.71888 4.212146,521.10618 c 1.0308217,70.2228 16.61236,139.46891 45.760515,203.36483 120.312449,-12.774 178.752709,-87.70503 194.386579,-111.37563 1.369,-2.37771 2.83397,-4.77671 4.44831,-7.20731 0,0 -1.47031,2.69846 -4.44831,7.20731 -39.01263,67.75788 18.85466,113.62406 18.85466,113.62406 l -46.23025,46.12021 c 31.79087,13.90505 74.78406,67.88782 74.78406,67.88782 24.04573,60.95572 62.86801,70.38642 62.86801,70.38642 25.6417,-19.94704 -61.10324,-147.03909 -61.10324,-147.03909 110.60996,-58.76131 95.91145,-126.39074 95.91145,-126.39074 110.23362,-7.68453 147.99871,-85.45679 147.99871,-85.45679 l 39.1206,77.50844 C 420.22892,747.36761 467.8536,796.95134 467.8536,796.95134 482.71458,747.5517 646.50214,636.07073 646.50214,636.07073 l -3.92432,-159.4564 c 3.20691,-78.6647 52.44314,-92.80761 52.44314,-92.80761 45.60094,-1.41856 86.0952,-22.99163 86.0952,-22.99163 l 26.38441,-27.63234 v 0 c -70.3603,-16.96067 -128.43248,-33.3638 -128.43248,-33.3638 -8.71789,-38.0276 -54.31451,-90.74179 -54.31451,-90.74179 z" />
    </g>
  </g>
  <metadata
     id="metadata855">
    <rdf:RDF>
      <cc:Work
         rdf:about="">
        <dc:title>Air Line Furries Association Logo (Color)</dc:title>
        <dc:date>2022-03-30</dc:date>
        <dc:identifier>https://airlinefurries.com/gear/alfa-logo/</dc:identifier>
        <cc:attributionName>Air Line Furries Association, International</cc:attributionName>
        <cc:attributionURL>https://airlinefurries.com/#me</cc:attributionURL>
        <cc:license
           rdf:resource="http://creativecommons.org/licenses/by/4.0/" />
        <dc:format>image/svg+xml</dc:format>
        <dc:type
           rdf:resource="http://purl.org/dc/dcmitype/StillImage" />
      </cc:Work>
      <cc:License
         rdf:about="http://creativecommons.org/licenses/by/4.0/">
        <cc:permits
           rdf:resource="http://creativecommons.org/ns#Reproduction" />
        <cc:permits
           rdf:resource="http://creativecommons.org/ns#Distribution" />
        <cc:requires
           rdf:resource="http://creativecommons.org/ns#Notice" />
        <cc:requires
           rdf:resource="http://creativecommons.org/ns#Attribution" />
        <cc:permits
           rdf:resource="http://creativecommons.org/ns#DerivativeWorks" />
      </cc:License>
    </rdf:RDF>
  </metadata>
</svg>
